<svg id="Layer_1" data-name="Layer 1" xmlns="http://www.w3.org/2000/svg" viewBox="0 0 350 500"><defs><style>.cls-1{fill:#d0ecf6;}.cls-2{fill:#adc2d9;}.cls-3{fill:#e4edf8;}.cls-4{fill:#a14b5c;}</style></defs><title>sealCard</title><rect class="cls-1" width="350" height="500"/><path class="cls-2" d="M216.34,349.23a76.38,76.38,0,0,1,5.3-11.31A79.69,79.69,0,0,0,231.5,299c0-38.38-25.74-69.5-57.5-69.5s-57.5,31.12-57.5,69.5a80.68,80.68,0,0,0,7.3,33.91A102.14,102.14,0,0,1,133,369.45a88.55,88.55,0,0,0,2,14.29,68.56,68.56,0,0,0-21.21,12.71C98.24,409.7,87.5,435.2,96.35,433c14.15-3.51,23.31,1.81,38.86-11.45a74.49,74.49,0,0,0,12.91-14.06l.76.27a74.05,74.05,0,0,0,1.72,19.47c4.33,20,14.84,21.29,24,32.66,5.71,7.1,12.61-19.69,8.28-39.66a77.26,77.26,0,0,0-4.8-14.89C192.55,395.72,206.92,375.28,216.34,349.23Z"/><path class="cls-2" d="M120.48,297.13c-6.68,19.4-7.23,26.82-16.77,23.54S91.86,299,98.54,279.58s19.83-32.47,29.37-29.19S127.16,277.72,120.48,297.13Z"/><path class="cls-2" d="M222,297.69c7.67,19,8.59,26.41,17.95,22.65S250.68,298.08,243,279s-21.47-31.41-30.83-27.64S214.34,278.66,222,297.69Z"/><path class="cls-2" d="M262.28,190.47c.14-1.64.22-3.3.22-5,0-39.21-40.07-71-89.5-71s-89.5,31.79-89.5,71a57.12,57.12,0,0,0,.44,7C75.79,199,71,206.8,71,215.25c0,22,32.24,39.75,72,39.75,3.25,0,6.44-.13,9.57-.36a113,113,0,0,0,41.74-.17c3.81.34,7.71.53,11.69.53,39.76,0,72-17.8,72-39.75C278,205.88,272.11,197.27,262.28,190.47Z"/><path class="cls-3" d="M208.49,186.31a124.7,124.7,0,0,0-34.44-4.5,123.87,123.87,0,0,0-35,4.68c-15.9,2.58-27.93,14.64-27.93,29.14,0,16.38,15.36,29.66,34.3,29.66,12,0,22.58-5.35,28.71-13.44,6.22,8.09,16.94,13.44,29.14,13.44,19.22,0,34.81-13.28,34.81-29.66C238,200.77,225.22,188.47,208.49,186.31Z"/><circle cx="128.4" cy="181.81" r="11.54"/><circle cx="220.73" cy="181.81" r="11.54"/><path class="cls-4" d="M191.25,192.78c-8.3,5.28-7.43,9.81-16.6,9.81s-10.56-4.53-16.6-9.81c-4.08-3.57,7.43-9.81,16.6-9.81S195.82,189.87,191.25,192.78Z"/></svg>