<svg id="Layer_1" data-name="Layer 1" xmlns="http://www.w3.org/2000/svg" viewBox="0 0 350 500"><defs><style>.cls-1{fill:#99b372;}.cls-2{fill:#e5ea92;}.cls-3{fill:#c6d9c2;}.cls-4{fill:#e8eeaa;}.cls-5{fill:#231f20;}</style></defs><title>turtleCard</title><rect class="cls-1" width="350" height="500"/><ellipse class="cls-2" cx="169.91" cy="263.25" rx="89.59" ry="113.75"/><path class="cls-3" d="M229.84,284.21c-5.67-31.44-28.85-55-56.61-55-31.14,0-56.53,29.64-57.88,66.81a148.75,148.75,0,0,0-2.58,28.29c0,32.35,9.31,58.57,20.78,58.57,6.26,0,11.87-7.81,15.68-20.14a49,49,0,0,0,48.69-.37c3.81,14,9.67,23,16.25,23,11.48,0,20.78-27.35,20.78-61.09C235,309,233,294.95,229.84,284.21Z"/><path class="cls-3" d="M119.48,297.13c-6.68,19.4-7.23,26.82-16.77,23.54S90.86,299,97.54,279.58s19.83-32.47,29.37-29.19S126.16,277.72,119.48,297.13Z"/><path class="cls-3" d="M221,297.69c7.67,19,8.59,26.41,17.95,22.65S249.68,298.08,242,279s-21.47-31.41-30.83-27.64S213.34,278.66,221,297.69Z"/><ellipse class="cls-4" cx="173.5" cy="299.25" rx="58" ry="69.75"/><path class="cls-3" d="M257.28,190.47c.14-1.64.22-3.3.22-5,0-39.21-40.07-71-89.5-71s-89.5,31.79-89.5,71a57.12,57.12,0,0,0,.44,7C70.79,199,66,206.8,66,215.25c0,22,32.24,39.75,72,39.75,3.25,0,6.44-.13,9.57-.36a113,113,0,0,0,41.74-.17c3.81.34,7.71.53,11.69.53,39.76,0,72-17.8,72-39.75C273,205.88,267.11,197.27,257.28,190.47Z"/><circle cx="123.4" cy="181.81" r="11.54"/><circle cx="215.73" cy="181.81" r="11.54"/><ellipse class="cls-5" cx="170" cy="205" rx="19.5" ry="1.5"/></svg>