<svg id="background" xmlns="http://www.w3.org/2000/svg" xmlns:xlink="http://www.w3.org/1999/xlink" viewBox="0 0 350 500"><defs><style>.cls-1{fill:none;}.cls-2{fill:#272f33;}.cls-3{fill:#f2d3bb;}.cls-4{fill:#666;}.cls-5{clip-path:url(#clip-path);}.cls-6{fill:#f1d2ba;}</style><clipPath id="clip-path"><rect class="cls-1" x="22" y="19" width="308" height="461"/></clipPath></defs><title>background</title><rect class="cls-2" width="350" height="500"/><rect class="cls-3" x="14" y="14" width="324" height="473"/><rect class="cls-4" x="22" y="22" width="308" height="458"/><g class="cls-5"><rect class="cls-3" x="58.74843" y="21.71613" width="18.15027" height="18.15027"/><rect class="cls-2" x="76.8987" y="21.71614" width="18.15027" height="18.15027"/><rect class="cls-3" x="95.04898" y="21.71614" width="18.15027" height="18.15027"/><rect class="cls-2" x="113.19925" y="21.71615" width="18.15027" height="18.15027"/><rect class="cls-3" x="131.34952" y="21.71616" width="18.15027" height="18.15027"/><rect class="cls-2" x="58.74843" y="39.8664" width="18.15027" height="18.15027"/><rect class="cls-3" x="76.8987" y="39.86641" width="18.15027" height="18.15027"/><rect class="cls-2" x="95.04897" y="39.86642" width="18.15027" height="18.15027"/><rect class="cls-3" x="113.19925" y="39.86642" width="18.15027" height="18.15027"/><rect class="cls-2" x="131.34952" y="39.86643" width="18.15027" height="18.15027"/><rect class="cls-3" x="22.44789" y="21.71612" width="18.15027" height="18.15027"/><rect class="cls-2" x="40.59816" y="21.71613" width="18.15027" height="18.15027"/><rect class="cls-2" x="22.44788" y="39.86639" width="18.15027" height="18.15027"/><rect class="cls-3" x="40.59815" y="39.8664" width="18.15027" height="18.15027"/><rect class="cls-2" x="149.4998" y="21.71616" width="18.15027" height="18.15027"/><rect class="cls-3" x="167.65007" y="21.71617" width="18.15027" height="18.15027"/><rect class="cls-3" x="149.49979" y="39.86644" width="18.15027" height="18.15027"/><rect class="cls-2" x="167.65007" y="39.86644" width="18.15027" height="18.15027"/><rect class="cls-3" x="58.70306" y="57.91271" width="18.15027" height="18.15027"/><rect class="cls-2" x="76.85333" y="57.91271" width="18.15027" height="18.15027"/><rect class="cls-3" x="95.00361" y="57.91272" width="18.15027" height="18.15027"/><rect class="cls-2" x="113.15388" y="57.91273" width="18.15027" height="18.15027"/><rect class="cls-3" x="131.30415" y="57.91273" width="18.15027" height="18.15027"/><rect class="cls-2" x="58.70305" y="76.06298" width="18.15027" height="18.15027"/><rect class="cls-3" x="76.85333" y="76.06299" width="18.15027" height="18.15027"/><rect class="cls-2" x="95.0036" y="76.06299" width="18.15027" height="18.15027"/><rect class="cls-3" x="113.15387" y="76.063" width="18.15027" height="18.15027"/><rect class="cls-2" x="131.30415" y="76.063" width="18.15027" height="18.15027"/><rect class="cls-3" x="22.40251" y="57.91269" width="18.15027" height="18.15027"/><rect class="cls-2" x="40.55279" y="57.9127" width="18.15027" height="18.15027"/><rect class="cls-2" x="22.40251" y="76.06297" width="18.15027" height="18.15027"/><rect class="cls-3" x="40.55278" y="76.06297" width="18.15027" height="18.15027"/><rect class="cls-2" x="149.45443" y="57.91274" width="18.15027" height="18.15027"/><rect class="cls-3" x="167.6047" y="57.91274" width="18.15027" height="18.15027"/><rect class="cls-3" x="149.45442" y="76.06301" width="18.15027" height="18.15027"/><rect class="cls-2" x="167.60469" y="76.06302" width="18.15027" height="18.15027"/><rect class="cls-3" x="58.72575" y="93.81442" width="18.15027" height="18.15027"/><rect class="cls-2" x="76.87602" y="93.81443" width="18.15027" height="18.15027"/><rect class="cls-3" x="95.02629" y="93.81443" width="18.15027" height="18.15027"/><rect class="cls-2" x="113.17657" y="93.81444" width="18.15027" height="18.15027"/><rect class="cls-3" x="131.32684" y="93.81444" width="18.15027" height="18.15027"/><rect class="cls-2" x="58.72574" y="111.96469" width="18.15027" height="18.15027"/><rect class="cls-3" x="76.87601" y="111.9647" width="18.15027" height="18.15027"/><rect class="cls-2" x="95.02629" y="111.9647" width="18.15027" height="18.15027"/><rect class="cls-3" x="113.17656" y="111.96471" width="18.15027" height="18.15027"/><rect class="cls-2" x="131.32683" y="111.96472" width="18.15027" height="18.15027"/><rect class="cls-3" x="22.4252" y="93.81441" width="18.15027" height="18.15027"/><rect class="cls-2" x="40.57547" y="93.81441" width="18.15027" height="18.15027"/><rect class="cls-2" x="22.42519" y="111.96468" width="18.15027" height="18.15027"/><rect class="cls-3" x="40.57547" y="111.96469" width="18.15027" height="18.15027"/><rect class="cls-2" x="149.47711" y="93.81445" width="18.15027" height="18.15027"/><rect class="cls-3" x="167.62739" y="93.81446" width="18.15027" height="18.15027"/><rect class="cls-3" x="149.47711" y="111.96472" width="18.15027" height="18.15027"/><rect class="cls-2" x="167.62738" y="111.96473" width="18.15027" height="18.15027"/><rect class="cls-3" x="58.68037" y="130.01099" width="18.15027" height="18.15027"/><rect class="cls-2" x="76.83065" y="130.011" width="18.15027" height="18.15027"/><rect class="cls-3" x="94.98092" y="130.01101" width="18.15027" height="18.15027"/><rect class="cls-2" x="113.13119" y="130.01101" width="18.15027" height="18.15027"/><rect class="cls-3" x="131.28147" y="130.01102" width="18.15027" height="18.15027"/><rect class="cls-2" x="58.68037" y="148.16127" width="18.15027" height="18.15027"/><rect class="cls-3" x="76.83064" y="148.16127" width="18.15027" height="18.15027"/><rect class="cls-2" x="94.98091" y="148.16128" width="18.15027" height="18.15027"/><rect class="cls-3" x="113.13119" y="148.16129" width="18.15027" height="18.15027"/><rect class="cls-2" x="131.28146" y="148.16129" width="18.15027" height="18.15027"/><rect class="cls-3" x="22.37983" y="130.01098" width="18.15027" height="18.15027"/><rect class="cls-2" x="40.5301" y="130.01099" width="18.15027" height="18.15027"/><rect class="cls-2" x="22.37982" y="148.16125" width="18.15027" height="18.15027"/><rect class="cls-3" x="40.53009" y="148.16126" width="18.15027" height="18.15027"/><rect class="cls-2" x="149.43174" y="130.01103" width="18.15027" height="18.15027"/><rect class="cls-3" x="167.58201" y="130.01103" width="18.15027" height="18.15027"/><rect class="cls-3" x="149.43173" y="148.1613" width="18.15027" height="18.15027"/><rect class="cls-2" x="167.58201" y="148.1613" width="18.15027" height="18.15027"/><rect class="cls-3" x="58.72575" y="165.81442" width="18.15027" height="18.15027"/><rect class="cls-2" x="76.87602" y="165.81443" width="18.15027" height="18.15027"/><rect class="cls-3" x="95.02629" y="165.81443" width="18.15027" height="18.15027"/><rect class="cls-2" x="113.17657" y="165.81444" width="18.15027" height="18.15027"/><rect class="cls-3" x="131.32684" y="165.81444" width="18.15027" height="18.15027"/><rect class="cls-2" x="58.72574" y="183.96469" width="18.15027" height="18.15027"/><rect class="cls-3" x="76.87601" y="183.9647" width="18.15027" height="18.15027"/><rect class="cls-2" x="95.02629" y="183.9647" width="18.15027" height="18.15027"/><rect class="cls-3" x="113.17656" y="183.96471" width="18.15027" height="18.15027"/><rect class="cls-2" x="131.32683" y="183.96472" width="18.15027" height="18.15027"/><rect class="cls-3" x="22.4252" y="165.81441" width="18.15027" height="18.15027"/><rect class="cls-2" x="40.57547" y="165.81441" width="18.15027" height="18.15027"/><rect class="cls-2" x="22.42519" y="183.96468" width="18.15027" height="18.15027"/><rect class="cls-3" x="40.57547" y="183.96469" width="18.15027" height="18.15027"/><rect class="cls-2" x="149.47711" y="165.81445" width="18.15027" height="18.15027"/><rect class="cls-3" x="167.62739" y="165.81446" width="18.15027" height="18.15027"/><rect class="cls-3" x="149.47711" y="183.96472" width="18.15027" height="18.15027"/><rect class="cls-2" x="167.62738" y="183.96473" width="18.15027" height="18.15027"/><rect class="cls-3" x="58.70306" y="201.98784" width="18.15027" height="18.15027"/><rect class="cls-2" x="76.85333" y="201.98785" width="18.15027" height="18.15027"/><rect class="cls-3" x="95.0036" y="201.98786" width="18.15027" height="18.15027"/><rect class="cls-2" x="113.15388" y="201.98786" width="18.15027" height="18.15027"/><rect class="cls-3" x="131.30415" y="201.98787" width="18.15027" height="18.15027"/><rect class="cls-3" x="22.40251" y="201.98783" width="18.15027" height="18.15027"/><rect class="cls-2" x="40.55278" y="201.98784" width="18.15027" height="18.15027"/><rect class="cls-2" x="149.45442" y="201.98787" width="18.15027" height="18.15027"/><rect class="cls-3" x="167.6047" y="201.98788" width="18.15027" height="18.15027"/><rect class="cls-3" x="203.8552" y="22.11183" width="18.15027" height="18.15027"/><rect class="cls-2" x="222.00547" y="22.11184" width="18.15027" height="18.15027"/><rect class="cls-3" x="240.15575" y="22.11184" width="18.15027" height="18.15027"/><rect class="cls-2" x="258.30602" y="22.11185" width="18.15027" height="18.15027"/><rect class="cls-3" x="276.45629" y="22.11185" width="18.15027" height="18.15027"/><rect class="cls-2" x="203.85519" y="40.2621" width="18.15027" height="18.15027"/><rect class="cls-3" x="222.00547" y="40.26211" width="18.15027" height="18.15027"/><rect class="cls-2" x="240.15574" y="40.26212" width="18.15027" height="18.15027"/><rect class="cls-3" x="258.30601" y="40.26212" width="18.15027" height="18.15027"/><rect class="cls-2" x="276.45629" y="40.26213" width="18.15027" height="18.15027"/><rect class="cls-3" x="167.55465" y="22.11182" width="18.15027" height="18.15027"/><rect class="cls-2" x="185.70493" y="22.11182" width="18.15027" height="18.15027"/><rect class="cls-2" x="167.55465" y="40.26209" width="18.15027" height="18.15027"/><rect class="cls-3" x="185.70492" y="40.2621" width="18.15027" height="18.15027"/><rect class="cls-2" x="294.60657" y="22.11186" width="18.15027" height="18.15027"/><rect class="cls-3" x="312.75684" y="22.11187" width="18.15027" height="18.15027"/><rect class="cls-3" x="294.60656" y="40.26213" width="18.15027" height="18.15027"/><rect class="cls-2" x="312.75683" y="40.26214" width="18.15027" height="18.15027"/><rect class="cls-3" x="203.80983" y="58.3084" width="18.15027" height="18.15027"/><rect class="cls-2" x="221.9601" y="58.30841" width="18.15027" height="18.15027"/><rect class="cls-3" x="240.11037" y="58.30842" width="18.15027" height="18.15027"/><rect class="cls-2" x="258.26065" y="58.30842" width="18.15027" height="18.15027"/><rect class="cls-3" x="276.41092" y="58.30843" width="18.15027" height="18.15027"/><rect class="cls-2" x="203.80982" y="76.45868" width="18.15027" height="18.15027"/><rect class="cls-3" x="221.96009" y="76.45868" width="18.15027" height="18.15027"/><rect class="cls-2" x="240.11037" y="76.45869" width="18.15027" height="18.15027"/><rect class="cls-3" x="258.26064" y="76.4587" width="18.15027" height="18.15027"/><rect class="cls-2" x="276.41091" y="76.4587" width="18.15027" height="18.15027"/><rect class="cls-3" x="167.50928" y="58.30839" width="18.15027" height="18.15027"/><rect class="cls-2" x="185.65955" y="58.3084" width="18.15027" height="18.15027"/><rect class="cls-2" x="167.50927" y="76.45867" width="18.15027" height="18.15027"/><rect class="cls-3" x="185.65955" y="76.45867" width="18.15027" height="18.15027"/><rect class="cls-2" x="294.56119" y="58.30844" width="18.15027" height="18.15027"/><rect class="cls-3" x="312.71147" y="58.30844" width="18.15027" height="18.15027"/><rect class="cls-3" x="294.56119" y="76.45871" width="18.15027" height="18.15027"/><rect class="cls-2" x="312.71146" y="76.45872" width="18.15027" height="18.15027"/><rect class="cls-3" x="203.83251" y="94.21012" width="18.15027" height="18.15027"/><rect class="cls-2" x="221.98279" y="94.21012" width="18.15027" height="18.15027"/><rect class="cls-3" x="240.13306" y="94.21013" width="18.15027" height="18.15027"/><rect class="cls-2" x="258.28333" y="94.21014" width="18.15027" height="18.15027"/><rect class="cls-3" x="276.43361" y="94.21014" width="18.15027" height="18.15027"/><rect class="cls-2" x="203.83251" y="112.36039" width="18.15027" height="18.15027"/><rect class="cls-3" x="221.98278" y="112.3604" width="18.15027" height="18.15027"/><rect class="cls-2" x="240.13305" y="112.3604" width="18.15027" height="18.15027"/><rect class="cls-3" x="258.28333" y="112.36041" width="18.15027" height="18.15027"/><rect class="cls-2" x="276.4336" y="112.36042" width="18.15027" height="18.15027"/><rect class="cls-3" x="167.53197" y="94.2101" width="18.15027" height="18.15027"/><rect class="cls-2" x="185.68224" y="94.21011" width="18.15027" height="18.15027"/><rect class="cls-2" x="167.53196" y="112.36038" width="18.15027" height="18.15027"/><rect class="cls-3" x="185.68223" y="112.36038" width="18.15027" height="18.15027"/><rect class="cls-2" x="294.58388" y="94.21015" width="18.15027" height="18.15027"/><rect class="cls-3" x="312.73415" y="94.21015" width="18.15027" height="18.15027"/><rect class="cls-3" x="294.58387" y="112.36042" width="18.15027" height="18.15027"/><rect class="cls-2" x="312.73415" y="112.36043" width="18.15027" height="18.15027"/><rect class="cls-3" x="203.78714" y="130.40669" width="18.15027" height="18.15027"/><rect class="cls-2" x="221.93741" y="130.4067" width="18.15027" height="18.15027"/><rect class="cls-3" x="240.08769" y="130.4067" width="18.15027" height="18.15027"/><rect class="cls-2" x="258.23796" y="130.40671" width="18.15027" height="18.15027"/><rect class="cls-3" x="276.38823" y="130.40672" width="18.15027" height="18.15027"/><rect class="cls-2" x="203.78714" y="148.55696" width="18.15027" height="18.15027"/><rect class="cls-3" x="221.93741" y="148.55697" width="18.15027" height="18.15027"/><rect class="cls-2" x="240.08768" y="148.55698" width="18.15027" height="18.15027"/><rect class="cls-3" x="258.23796" y="148.55698" width="18.15027" height="18.15027"/><rect class="cls-2" x="276.38823" y="148.55699" width="18.15027" height="18.15027"/><rect class="cls-3" x="167.48659" y="130.40668" width="18.15027" height="18.15027"/><rect class="cls-2" x="185.63687" y="130.40669" width="18.15027" height="18.15027"/><rect class="cls-2" x="167.48659" y="148.55695" width="18.15027" height="18.15027"/><rect class="cls-3" x="185.63686" y="148.55696" width="18.15027" height="18.15027"/><rect class="cls-2" x="294.53851" y="130.40672" width="18.15027" height="18.15027"/><rect class="cls-3" x="312.68878" y="130.40673" width="18.15027" height="18.15027"/><rect class="cls-3" x="294.5385" y="148.557" width="18.15027" height="18.15027"/><rect class="cls-2" x="312.68878" y="148.557" width="18.15027" height="18.15027"/><rect class="cls-3" x="203.83251" y="166.21012" width="18.15027" height="18.15027"/><rect class="cls-2" x="221.98279" y="166.21012" width="18.15027" height="18.15027"/><rect class="cls-3" x="240.13306" y="166.21013" width="18.15027" height="18.15027"/><rect class="cls-2" x="258.28333" y="166.21014" width="18.15027" height="18.15027"/><rect class="cls-3" x="276.43361" y="166.21014" width="18.15027" height="18.15027"/><rect class="cls-2" x="203.83251" y="184.36039" width="18.15027" height="18.15027"/><rect class="cls-3" x="221.98278" y="184.3604" width="18.15027" height="18.15027"/><rect class="cls-2" x="240.13305" y="184.3604" width="18.15027" height="18.15027"/><rect class="cls-3" x="258.28333" y="184.36041" width="18.15027" height="18.15027"/><rect class="cls-2" x="276.4336" y="184.36042" width="18.15027" height="18.15027"/><rect class="cls-3" x="167.53197" y="166.2101" width="18.15027" height="18.15027"/><rect class="cls-2" x="185.68224" y="166.21011" width="18.15027" height="18.15027"/><rect class="cls-2" x="167.53196" y="184.36038" width="18.15027" height="18.15027"/><rect class="cls-3" x="185.68223" y="184.36038" width="18.15027" height="18.15027"/><rect class="cls-2" x="294.58388" y="166.21015" width="18.15027" height="18.15027"/><rect class="cls-3" x="312.73415" y="166.21015" width="18.15027" height="18.15027"/><rect class="cls-3" x="294.58387" y="184.36042" width="18.15027" height="18.15027"/><rect class="cls-2" x="312.73415" y="184.36043" width="18.15027" height="18.15027"/><rect class="cls-3" x="203.80982" y="202.38354" width="18.15027" height="18.15027"/><rect class="cls-2" x="221.9601" y="202.38355" width="18.15027" height="18.15027"/><rect class="cls-3" x="240.11037" y="202.38355" width="18.15027" height="18.15027"/><rect class="cls-2" x="258.26064" y="202.38356" width="18.15027" height="18.15027"/><rect class="cls-3" x="276.41092" y="202.38357" width="18.15027" height="18.15027"/><rect class="cls-3" x="167.50928" y="202.38353" width="18.15027" height="18.15027"/><rect class="cls-2" x="185.65955" y="202.38353" width="18.15027" height="18.15027"/><rect class="cls-2" x="294.56119" y="202.38357" width="18.15027" height="18.15027"/><rect class="cls-3" x="312.71146" y="202.38358" width="18.15027" height="18.15027"/><rect class="cls-3" x="221.55599" y="219.84411" width="18.15027" height="18.15027"/><rect class="cls-2" x="239.70626" y="219.84412" width="18.15027" height="18.15027"/><rect class="cls-3" x="257.85653" y="219.84413" width="18.15027" height="18.15027"/><rect class="cls-2" x="276.00681" y="219.84413" width="18.15027" height="18.15027"/><rect class="cls-3" x="294.15708" y="219.84414" width="18.15027" height="18.15027"/><rect class="cls-2" x="221.55598" y="237.99439" width="18.15027" height="18.15027"/><rect class="cls-3" x="239.70625" y="237.99439" width="18.15027" height="18.15027"/><rect class="cls-2" x="257.85653" y="237.9944" width="18.15027" height="18.15027"/><rect class="cls-3" x="276.0068" y="237.99441" width="18.15027" height="18.15027"/><rect class="cls-2" x="294.15707" y="237.99441" width="18.15027" height="18.15027"/><rect class="cls-3" x="185.25544" y="219.8441" width="18.15027" height="18.15027"/><rect class="cls-2" x="203.40571" y="219.84411" width="18.15027" height="18.15027"/><rect class="cls-2" x="185.25543" y="237.99437" width="18.15027" height="18.15027"/><rect class="cls-3" x="203.40571" y="237.99438" width="18.15027" height="18.15027"/><rect class="cls-2" x="312.30735" y="219.84414" width="18.15027" height="18.15027"/><rect class="cls-3" x="312.30735" y="237.99442" width="18.15027" height="18.15027"/><rect class="cls-3" x="221.51061" y="256.04069" width="18.15027" height="18.15027"/><rect class="cls-2" x="239.66089" y="256.04069" width="18.15027" height="18.15027"/><rect class="cls-3" x="257.81116" y="256.0407" width="18.15027" height="18.15027"/><rect class="cls-2" x="275.96143" y="256.04071" width="18.15027" height="18.15027"/><rect class="cls-3" x="294.11171" y="256.04071" width="18.15027" height="18.15027"/><rect class="cls-2" x="221.51061" y="274.19096" width="18.15027" height="18.15027"/><rect class="cls-3" x="239.66088" y="274.19097" width="18.15027" height="18.15027"/><rect class="cls-2" x="257.81116" y="274.19097" width="18.15027" height="18.15027"/><rect class="cls-3" x="275.96143" y="274.19098" width="18.15027" height="18.15027"/><rect class="cls-2" x="294.1117" y="274.19099" width="18.15027" height="18.15027"/><rect class="cls-3" x="185.21007" y="256.04068" width="18.15027" height="18.15027"/><rect class="cls-2" x="203.36034" y="256.04068" width="18.15027" height="18.15027"/><rect class="cls-2" x="185.21006" y="274.19095" width="18.15027" height="18.15027"/><rect class="cls-3" x="203.36034" y="274.19095" width="18.15027" height="18.15027"/><rect class="cls-2" x="312.26198" y="256.04072" width="18.15027" height="18.15027"/><rect class="cls-3" x="312.26198" y="274.19099" width="18.15027" height="18.15027"/><rect class="cls-3" x="221.5333" y="291.9424" width="18.15027" height="18.15027"/><rect class="cls-2" x="239.68357" y="291.94241" width="18.15027" height="18.15027"/><rect class="cls-3" x="257.83385" y="291.94241" width="18.15027" height="18.15027"/><rect class="cls-2" x="275.98412" y="291.94242" width="18.15027" height="18.15027"/><rect class="cls-3" x="294.13439" y="291.94243" width="18.15027" height="18.15027"/><rect class="cls-2" x="221.53329" y="310.09267" width="18.15027" height="18.15027"/><rect class="cls-3" x="239.68357" y="310.09268" width="18.15027" height="18.15027"/><rect class="cls-2" x="257.83384" y="310.09269" width="18.15027" height="18.15027"/><rect class="cls-3" x="275.98411" y="310.09269" width="18.15027" height="18.15027"/><rect class="cls-2" x="294.13439" y="310.0927" width="18.15027" height="18.15027"/><rect class="cls-3" x="185.23275" y="291.94239" width="18.15027" height="18.15027"/><rect class="cls-2" x="203.38303" y="291.94239" width="18.15027" height="18.15027"/><rect class="cls-2" x="185.23275" y="310.09266" width="18.15027" height="18.15027"/><rect class="cls-3" x="203.38302" y="310.09267" width="18.15027" height="18.15027"/><rect class="cls-2" x="312.28467" y="291.94243" width="18.15027" height="18.15027"/><rect class="cls-3" x="312.28466" y="310.09271" width="18.15027" height="18.15027"/><rect class="cls-3" x="221.48793" y="328.13898" width="18.15027" height="18.15027"/><rect class="cls-2" x="239.6382" y="328.13898" width="18.15027" height="18.15027"/><rect class="cls-3" x="257.78848" y="328.13899" width="18.15027" height="18.15027"/><rect class="cls-2" x="275.93875" y="328.13899" width="18.15027" height="18.15027"/><rect class="cls-3" x="294.08902" y="328.139" width="18.15027" height="18.15027"/><rect class="cls-2" x="221.48792" y="346.28925" width="18.15027" height="18.15027"/><rect class="cls-3" x="239.6382" y="346.28925" width="18.15027" height="18.15027"/><rect class="cls-2" x="257.78847" y="346.28926" width="18.15027" height="18.15027"/><rect class="cls-3" x="275.93874" y="346.28927" width="18.15027" height="18.15027"/><rect class="cls-2" x="294.08902" y="346.28927" width="18.15027" height="18.15027"/><rect class="cls-3" x="185.18738" y="328.13896" width="18.15027" height="18.15027"/><rect class="cls-2" x="203.33766" y="328.13897" width="18.15027" height="18.15027"/><rect class="cls-2" x="185.18738" y="346.28924" width="18.15027" height="18.15027"/><rect class="cls-3" x="203.33765" y="346.28924" width="18.15027" height="18.15027"/><rect class="cls-2" x="312.2393" y="328.13901" width="18.15027" height="18.15027"/><rect class="cls-3" x="312.23929" y="346.28928" width="18.15027" height="18.15027"/><rect class="cls-3" x="221.5333" y="363.9424" width="18.15027" height="18.15027"/><rect class="cls-2" x="239.68357" y="363.94241" width="18.15027" height="18.15027"/><rect class="cls-3" x="257.83385" y="363.94241" width="18.15027" height="18.15027"/><rect class="cls-2" x="275.98412" y="363.94242" width="18.15027" height="18.15027"/><rect class="cls-3" x="294.13439" y="363.94243" width="18.15027" height="18.15027"/><rect class="cls-2" x="221.53329" y="382.09267" width="18.15027" height="18.15027"/><rect class="cls-3" x="239.68357" y="382.09268" width="18.15027" height="18.15027"/><rect class="cls-2" x="257.83384" y="382.09269" width="18.15027" height="18.15027"/><rect class="cls-3" x="275.98411" y="382.09269" width="18.15027" height="18.15027"/><rect class="cls-2" x="294.13439" y="382.0927" width="18.15027" height="18.15027"/><rect class="cls-3" x="185.23275" y="363.94239" width="18.15027" height="18.15027"/><rect class="cls-2" x="203.38303" y="363.94239" width="18.15027" height="18.15027"/><rect class="cls-2" x="185.23275" y="382.09266" width="18.15027" height="18.15027"/><rect class="cls-3" x="203.38302" y="382.09267" width="18.15027" height="18.15027"/><rect class="cls-2" x="312.28467" y="363.94243" width="18.15027" height="18.15027"/><rect class="cls-3" x="312.28466" y="382.09271" width="18.15027" height="18.15027"/><rect class="cls-3" x="221.51061" y="400.11582" width="18.15027" height="18.15027"/><rect class="cls-2" x="239.66088" y="400.11583" width="18.15027" height="18.15027"/><rect class="cls-3" x="257.81116" y="400.11584" width="18.15027" height="18.15027"/><rect class="cls-2" x="275.96143" y="400.11584" width="18.15027" height="18.15027"/><rect class="cls-3" x="294.1117" y="400.11585" width="18.15027" height="18.15027"/><rect class="cls-3" x="185.21006" y="400.11581" width="18.15027" height="18.15027"/><rect class="cls-2" x="203.36034" y="400.11582" width="18.15027" height="18.15027"/><rect class="cls-2" x="312.26198" y="400.11586" width="18.15027" height="18.15027"/><rect class="cls-2" x="166.85653" y="219.84413" width="18.15027" height="18.15027"/><rect class="cls-3" x="166.85653" y="237.9944" width="18.15027" height="18.15027"/><rect class="cls-2" x="166.81116" y="256.0407" width="18.15027" height="18.15027"/><rect class="cls-3" x="166.81116" y="274.19097" width="18.15027" height="18.15027"/><rect class="cls-2" x="166.83385" y="291.94241" width="18.15027" height="18.15027"/><rect class="cls-3" x="166.83384" y="310.09269" width="18.15027" height="18.15027"/><rect class="cls-2" x="166.78848" y="328.13899" width="18.15027" height="18.15027"/><rect class="cls-3" x="166.78847" y="346.28926" width="18.15027" height="18.15027"/><rect class="cls-2" x="166.83385" y="363.94241" width="18.15027" height="18.15027"/><rect class="cls-3" x="166.83384" y="382.09269" width="18.15027" height="18.15027"/><rect class="cls-2" x="166.81116" y="400.11584" width="18.15027" height="18.15027"/><rect class="cls-3" x="39.55599" y="219.84411" width="18.15027" height="18.15027"/><rect class="cls-2" x="57.70626" y="219.84412" width="18.15027" height="18.15027"/><rect class="cls-3" x="75.85653" y="219.84413" width="18.15027" height="18.15027"/><rect class="cls-2" x="94.00681" y="219.84413" width="18.15027" height="18.15027"/><rect class="cls-3" x="112.15708" y="219.84414" width="18.15027" height="18.15027"/><rect class="cls-2" x="39.55598" y="237.99439" width="18.15027" height="18.15027"/><rect class="cls-3" x="57.70625" y="237.99439" width="18.15027" height="18.15027"/><rect class="cls-2" x="75.85653" y="237.9944" width="18.15027" height="18.15027"/><rect class="cls-3" x="94.0068" y="237.99441" width="18.15027" height="18.15027"/><rect class="cls-2" x="112.15707" y="237.99441" width="18.15027" height="18.15027"/><rect class="cls-3" x="3.25544" y="219.8441" width="18.15027" height="18.15027"/><rect class="cls-2" x="21.40571" y="219.84411" width="18.15027" height="18.15027"/><rect class="cls-2" x="3.25543" y="237.99437" width="18.15027" height="18.15027"/><rect class="cls-3" x="21.40571" y="237.99438" width="18.15027" height="18.15027"/><rect class="cls-2" x="130.30735" y="219.84414" width="18.15027" height="18.15027"/><rect class="cls-3" x="148.45763" y="219.84415" width="18.15027" height="18.15027"/><rect class="cls-3" x="130.30735" y="237.99442" width="18.15027" height="18.15027"/><rect class="cls-2" x="148.45762" y="237.99442" width="18.15027" height="18.15027"/><rect class="cls-3" x="39.51061" y="256.04069" width="18.15027" height="18.15027"/><rect class="cls-2" x="57.66089" y="256.04069" width="18.15027" height="18.15027"/><rect class="cls-3" x="75.81116" y="256.0407" width="18.15027" height="18.15027"/><rect class="cls-2" x="93.96143" y="256.04071" width="18.15027" height="18.15027"/><rect class="cls-3" x="112.11171" y="256.04071" width="18.15027" height="18.15027"/><rect class="cls-2" x="39.51061" y="274.19096" width="18.15027" height="18.15027"/><rect class="cls-3" x="57.66088" y="274.19097" width="18.15027" height="18.15027"/><rect class="cls-2" x="75.81116" y="274.19097" width="18.15027" height="18.15027"/><rect class="cls-3" x="93.96143" y="274.19098" width="18.15027" height="18.15027"/><rect class="cls-2" x="112.1117" y="274.19099" width="18.15027" height="18.15027"/><rect class="cls-3" x="3.21007" y="256.04068" width="18.15027" height="18.15027"/><rect class="cls-2" x="21.36034" y="256.04068" width="18.15027" height="18.15027"/><rect class="cls-2" x="3.21006" y="274.19095" width="18.15027" height="18.15027"/><rect class="cls-3" x="21.36034" y="274.19095" width="18.15027" height="18.15027"/><rect class="cls-2" x="130.26198" y="256.04072" width="18.15027" height="18.15027"/><rect class="cls-3" x="148.41225" y="256.04073" width="18.15027" height="18.15027"/><rect class="cls-3" x="130.26198" y="274.19099" width="18.15027" height="18.15027"/><rect class="cls-2" x="148.41225" y="274.191" width="18.15027" height="18.15027"/><rect class="cls-3" x="39.5333" y="291.9424" width="18.15027" height="18.15027"/><rect class="cls-2" x="57.68357" y="291.94241" width="18.15027" height="18.15027"/><rect class="cls-3" x="75.83385" y="291.94241" width="18.15027" height="18.15027"/><rect class="cls-2" x="93.98412" y="291.94242" width="18.15027" height="18.15027"/><rect class="cls-3" x="112.13439" y="291.94243" width="18.15027" height="18.15027"/><rect class="cls-2" x="39.53329" y="310.09267" width="18.15027" height="18.15027"/><rect class="cls-3" x="57.68357" y="310.09268" width="18.15027" height="18.15027"/><rect class="cls-2" x="75.83384" y="310.09269" width="18.15027" height="18.15027"/><rect class="cls-3" x="93.98411" y="310.09269" width="18.15027" height="18.15027"/><rect class="cls-2" x="112.13439" y="310.0927" width="18.15027" height="18.15027"/><rect class="cls-3" x="3.23275" y="291.94239" width="18.15027" height="18.15027"/><rect class="cls-2" x="21.38303" y="291.94239" width="18.15027" height="18.15027"/><rect class="cls-2" x="3.23275" y="310.09266" width="18.15027" height="18.15027"/><rect class="cls-3" x="21.38302" y="310.09267" width="18.15027" height="18.15027"/><rect class="cls-2" x="130.28467" y="291.94243" width="18.15027" height="18.15027"/><rect class="cls-3" x="148.43494" y="291.94244" width="18.15027" height="18.15027"/><rect class="cls-3" x="130.28466" y="310.09271" width="18.15027" height="18.15027"/><rect class="cls-2" x="148.43493" y="310.09271" width="18.15027" height="18.15027"/><rect class="cls-3" x="39.48793" y="328.13898" width="18.15027" height="18.15027"/><rect class="cls-2" x="57.6382" y="328.13898" width="18.15027" height="18.15027"/><rect class="cls-3" x="75.78848" y="328.13899" width="18.15027" height="18.15027"/><rect class="cls-2" x="93.93875" y="328.13899" width="18.15027" height="18.15027"/><rect class="cls-3" x="112.08902" y="328.139" width="18.15027" height="18.15027"/><rect class="cls-2" x="39.48792" y="346.28925" width="18.15027" height="18.15027"/><rect class="cls-3" x="57.6382" y="346.28925" width="18.15027" height="18.15027"/><rect class="cls-2" x="75.78847" y="346.28926" width="18.15027" height="18.15027"/><rect class="cls-3" x="93.93874" y="346.28927" width="18.15027" height="18.15027"/><rect class="cls-2" x="112.08902" y="346.28927" width="18.15027" height="18.15027"/><rect class="cls-3" x="3.18738" y="328.13896" width="18.15027" height="18.15027"/><rect class="cls-2" x="21.33766" y="328.13897" width="18.15027" height="18.15027"/><rect class="cls-2" x="3.18738" y="346.28924" width="18.15027" height="18.15027"/><rect class="cls-3" x="21.33765" y="346.28924" width="18.15027" height="18.15027"/><rect class="cls-2" x="130.2393" y="328.13901" width="18.15027" height="18.15027"/><rect class="cls-3" x="148.38957" y="328.13901" width="18.15027" height="18.15027"/><rect class="cls-3" x="130.23929" y="346.28928" width="18.15027" height="18.15027"/><rect class="cls-2" x="148.38956" y="346.28929" width="18.15027" height="18.15027"/><rect class="cls-3" x="39.5333" y="363.9424" width="18.15027" height="18.15027"/><rect class="cls-2" x="57.68357" y="363.94241" width="18.15027" height="18.15027"/><rect class="cls-3" x="75.83385" y="363.94241" width="18.15027" height="18.15027"/><rect class="cls-2" x="93.98412" y="363.94242" width="18.15027" height="18.15027"/><rect class="cls-3" x="112.13439" y="363.94243" width="18.15027" height="18.15027"/><rect class="cls-2" x="39.53329" y="382.09267" width="18.15027" height="18.15027"/><rect class="cls-3" x="57.68357" y="382.09268" width="18.15027" height="18.15027"/><rect class="cls-2" x="75.83384" y="382.09269" width="18.15027" height="18.15027"/><rect class="cls-3" x="93.98411" y="382.09269" width="18.15027" height="18.15027"/><rect class="cls-2" x="112.13439" y="382.0927" width="18.15027" height="18.15027"/><rect class="cls-3" x="3.23275" y="363.94239" width="18.15027" height="18.15027"/><rect class="cls-2" x="21.38303" y="363.94239" width="18.15027" height="18.15027"/><rect class="cls-2" x="3.23275" y="382.09266" width="18.15027" height="18.15027"/><rect class="cls-3" x="21.38302" y="382.09267" width="18.15027" height="18.15027"/><rect class="cls-2" x="130.28467" y="363.94243" width="18.15027" height="18.15027"/><rect class="cls-3" x="148.43494" y="363.94244" width="18.15027" height="18.15027"/><rect class="cls-3" x="130.28466" y="382.09271" width="18.15027" height="18.15027"/><rect class="cls-2" x="148.43493" y="382.09271" width="18.15027" height="18.15027"/><rect class="cls-3" x="39.51061" y="400.11582" width="18.15027" height="18.15027"/><rect class="cls-2" x="57.66088" y="400.11583" width="18.15027" height="18.15027"/><rect class="cls-3" x="75.81116" y="400.11584" width="18.15027" height="18.15027"/><rect class="cls-2" x="93.96143" y="400.11584" width="18.15027" height="18.15027"/><rect class="cls-3" x="112.1117" y="400.11585" width="18.15027" height="18.15027"/><rect class="cls-3" x="3.21006" y="400.11581" width="18.15027" height="18.15027"/><rect class="cls-2" x="21.36034" y="400.11582" width="18.15027" height="18.15027"/><rect class="cls-2" x="130.26198" y="400.11586" width="18.15027" height="18.15027"/><rect class="cls-3" x="148.41225" y="400.11586" width="18.15027" height="18.15027"/><rect class="cls-3" x="221.13506" y="400.52128" width="18.15027" height="18.15027"/><rect class="cls-2" x="239.28533" y="400.52128" width="18.15027" height="18.15027"/><rect class="cls-3" x="257.43561" y="400.52129" width="18.15027" height="18.15027"/><rect class="cls-2" x="275.58588" y="400.5213" width="18.15027" height="18.15027"/><rect class="cls-3" x="293.73615" y="400.5213" width="18.15027" height="18.15027"/><rect class="cls-2" x="221.13505" y="418.67155" width="18.15027" height="18.15027"/><rect class="cls-3" x="239.28533" y="418.67156" width="18.15027" height="18.15027"/><rect class="cls-2" x="257.4356" y="418.67156" width="18.15027" height="18.15027"/><rect class="cls-3" x="275.58587" y="418.67157" width="18.15027" height="18.15027"/><rect class="cls-2" x="293.73615" y="418.67158" width="18.15027" height="18.15027"/><rect class="cls-3" x="184.83451" y="400.52127" width="18.15027" height="18.15027"/><rect class="cls-2" x="202.98479" y="400.52127" width="18.15027" height="18.15027"/><rect class="cls-2" x="184.83451" y="418.67154" width="18.15027" height="18.15027"/><rect class="cls-3" x="202.98478" y="418.67155" width="18.15027" height="18.15027"/><rect class="cls-2" x="311.88643" y="400.52131" width="18.15027" height="18.15027"/><rect class="cls-3" x="311.88642" y="418.67158" width="18.15027" height="18.15027"/><rect class="cls-3" x="221.08969" y="436.71785" width="18.15027" height="18.15027"/><rect class="cls-2" x="239.23996" y="436.71786" width="18.15027" height="18.15027"/><rect class="cls-3" x="257.39024" y="436.71787" width="18.15027" height="18.15027"/><rect class="cls-2" x="275.54051" y="436.71787" width="18.15027" height="18.15027"/><rect class="cls-3" x="293.69078" y="436.71788" width="18.15027" height="18.15027"/><rect class="cls-2" x="221.08968" y="454.86813" width="18.15027" height="18.15027"/><rect class="cls-3" x="239.23996" y="454.86813" width="18.15027" height="18.15027"/><rect class="cls-2" x="257.39023" y="454.86814" width="18.15027" height="18.15027"/><rect class="cls-3" x="275.5405" y="454.86815" width="18.15027" height="18.15027"/><rect class="cls-2" x="293.69078" y="454.86815" width="18.15027" height="18.15027"/><rect class="cls-3" x="184.78914" y="436.71784" width="18.15027" height="18.15027"/><rect class="cls-2" x="202.93942" y="436.71785" width="18.15027" height="18.15027"/><rect class="cls-2" x="184.78914" y="454.86811" width="18.15027" height="18.15027"/><rect class="cls-3" x="202.93941" y="454.86812" width="18.15027" height="18.15027"/><rect class="cls-2" x="311.84105" y="436.71788" width="18.15027" height="18.15027"/><rect class="cls-3" x="311.84105" y="454.86816" width="18.15027" height="18.15027"/><rect class="cls-3" x="221.11237" y="472.61957" width="18.15027" height="18.15027"/><rect class="cls-2" x="239.26265" y="472.61957" width="18.15027" height="18.15027"/><rect class="cls-3" x="257.41292" y="472.61958" width="18.15027" height="18.15027"/><rect class="cls-2" x="275.56319" y="472.61958" width="18.15027" height="18.15027"/><rect class="cls-3" x="293.71347" y="472.61959" width="18.15027" height="18.15027"/><rect class="cls-3" x="184.81183" y="472.61955" width="18.15027" height="18.15027"/><rect class="cls-2" x="202.9621" y="472.61956" width="18.15027" height="18.15027"/><rect class="cls-2" x="311.86374" y="472.6196" width="18.15027" height="18.15027"/><rect class="cls-2" x="166.43561" y="400.52129" width="18.15027" height="18.15027"/><rect class="cls-3" x="166.4356" y="418.67156" width="18.15027" height="18.15027"/><rect class="cls-2" x="166.39024" y="436.71787" width="18.15027" height="18.15027"/><rect class="cls-3" x="166.39023" y="454.86814" width="18.15027" height="18.15027"/><rect class="cls-2" x="166.41292" y="472.61958" width="18.15027" height="18.15027"/><rect class="cls-3" x="39.13506" y="400.52128" width="18.15027" height="18.15027"/><rect class="cls-2" x="57.28533" y="400.52128" width="18.15027" height="18.15027"/><rect class="cls-3" x="75.43561" y="400.52129" width="18.15027" height="18.15027"/><rect class="cls-2" x="93.58588" y="400.5213" width="18.15027" height="18.15027"/><rect class="cls-3" x="111.73615" y="400.5213" width="18.15027" height="18.15027"/><rect class="cls-2" x="39.13505" y="418.67155" width="18.15027" height="18.15027"/><rect class="cls-3" x="57.28533" y="418.67156" width="18.15027" height="18.15027"/><rect class="cls-2" x="75.4356" y="418.67156" width="18.15027" height="18.15027"/><rect class="cls-3" x="93.58587" y="418.67157" width="18.15027" height="18.15027"/><rect class="cls-2" x="111.73615" y="418.67158" width="18.15027" height="18.15027"/><rect class="cls-3" x="2.83451" y="400.52127" width="18.15027" height="18.15027"/><rect class="cls-2" x="20.98479" y="400.52127" width="18.15027" height="18.15027"/><rect class="cls-2" x="2.83451" y="418.67154" width="18.15027" height="18.15027"/><rect class="cls-3" x="20.98478" y="418.67155" width="18.15027" height="18.15027"/><rect class="cls-2" x="129.88643" y="400.52131" width="18.15027" height="18.15027"/><rect class="cls-3" x="148.0367" y="400.52132" width="18.15027" height="18.15027"/><rect class="cls-3" x="129.88642" y="418.67158" width="18.15027" height="18.15027"/><rect class="cls-2" x="148.03669" y="418.67159" width="18.15027" height="18.15027"/><rect class="cls-3" x="39.08969" y="436.71785" width="18.15027" height="18.15027"/><rect class="cls-2" x="57.23996" y="436.71786" width="18.15027" height="18.15027"/><rect class="cls-3" x="75.39024" y="436.71787" width="18.15027" height="18.15027"/><rect class="cls-2" x="93.54051" y="436.71787" width="18.15027" height="18.15027"/><rect class="cls-3" x="111.69078" y="436.71788" width="18.15027" height="18.15027"/><rect class="cls-2" x="39.08968" y="454.86813" width="18.15027" height="18.15027"/><rect class="cls-3" x="57.23996" y="454.86813" width="18.15027" height="18.15027"/><rect class="cls-2" x="75.39023" y="454.86814" width="18.15027" height="18.15027"/><rect class="cls-3" x="93.5405" y="454.86815" width="18.15027" height="18.15027"/><rect class="cls-2" x="111.69078" y="454.86815" width="18.15027" height="18.15027"/><rect class="cls-3" x="2.78914" y="436.71784" width="18.15027" height="18.15027"/><rect class="cls-2" x="20.93942" y="436.71785" width="18.15027" height="18.15027"/><rect class="cls-2" x="2.78914" y="454.86811" width="18.15027" height="18.15027"/><rect class="cls-3" x="20.93941" y="454.86812" width="18.15027" height="18.15027"/><rect class="cls-2" x="129.84105" y="436.71788" width="18.15027" height="18.15027"/><rect class="cls-3" x="147.99133" y="436.71789" width="18.15027" height="18.15027"/><rect class="cls-3" x="129.84105" y="454.86816" width="18.15027" height="18.15027"/><rect class="cls-2" x="147.99132" y="454.86816" width="18.15027" height="18.15027"/><rect class="cls-3" x="39.11237" y="472.61957" width="18.15027" height="18.15027"/><rect class="cls-2" x="57.26265" y="472.61957" width="18.15027" height="18.15027"/><rect class="cls-3" x="75.41292" y="472.61958" width="18.15027" height="18.15027"/><rect class="cls-2" x="93.56319" y="472.61958" width="18.15027" height="18.15027"/><rect class="cls-3" x="111.71347" y="472.61959" width="18.15027" height="18.15027"/><rect class="cls-3" x="2.81183" y="472.61955" width="18.15027" height="18.15027"/><rect class="cls-2" x="20.9621" y="472.61956" width="18.15027" height="18.15027"/><rect class="cls-2" x="129.86374" y="472.6196" width="18.15027" height="18.15027"/><rect class="cls-3" x="148.01401" y="472.6196" width="18.15027" height="18.15027"/></g><rect class="cls-3" x="52" y="46" width="245" height="411" rx="12.05512"/><rect class="cls-2" x="60" y="56" width="228" height="390" rx="15.45276"/><rect class="cls-6" x="97" y="282" width="156" height="99" rx="7.55118"/><rect class="cls-2" x="111" y="296" width="128" height="71"/><path class="cls-3" d="M81,387c0,5.27778,2.60162,8.763,5,11.61111,2.93494,3.48525,7,5.27778,11,7.38889H251c4,0,10-4.22222,13-7.38889s5-6.33333,5-11.61111Z"/><path class="cls-3" d="M262.9992,141.73988q0,46.80164-37.77963,68.60481Q196.83691,226.511,194.3944,243.04944q-.56388,4.32492-.93979,8.64608-1.31665,3.94713-6.7665,3.94713-18.98568,0-27.254,2.2555a9.0193,9.0193,0,0,1-2.63141.56388q-6.7665,0-6.7665-18.41992,0-15.97458,18.51389-39.56524,18.512-23.58688,18.5139-39.56523,0-24.24663-25.75029-24.24663-16.35238,0-42.47859,12.78117-8.08315,0-8.08221-47.92938a40.76628,40.76628,0,0,1,.56387-7.89426q2.63049-12.59133,31.38905-19.54766A170.04871,170.04871,0,0,1,182.92894,69q34.01859,0,56.38751,18.98379Q262.9992,108.09722,262.9992,141.73988ZM212.06249,303.38407a34.95809,34.95809,0,0,1-10.05578,24.99847,33.843,33.843,0,0,1-49.05713,0,34.95031,34.95031,0,0,1-10.05577-24.99847,34.00129,34.00129,0,0,1,10.05577-24.71652,34.48863,34.48863,0,0,1,49.05713,0A34.00875,34.00875,0,0,1,212.06249,303.38407Z"/></svg>