<svg xmlns="http://www.w3.org/2000/svg" viewBox="0 0 350 500"><defs><style>.cls-1{fill:#eaaa9b;}.cls-2{fill:#f3dcdf;}.cls-3{fill:#f5e0e2;}.cls-4{fill:#edc4cc;}.cls-5{fill:#a14b5c;}</style></defs><title>bunnyCard</title><g id="Layer_1" data-name="Layer 1"><rect class="cls-1" width="350" height="500"/></g><g id="Layer_2" data-name="Layer 2"><path class="cls-2" d="M231.84,306.21c-5.67-31.44-28.85-55-56.61-55-31.14,0-56.53,29.64-57.88,66.81a148.75,148.75,0,0,0-2.58,28.29c0,32.35,9.31,58.57,20.78,58.57,6.26,0,11.87-7.81,15.68-20.14a49,49,0,0,0,48.69-.37c3.81,14,9.67,23,16.25,23,11.48,0,20.78-27.35,20.78-61.09C237,331,235,316.95,231.84,306.21Z"/><path class="cls-2" d="M121.48,319.13c-6.68,19.4-7.23,26.82-16.77,23.54S92.86,321,99.54,301.58s19.83-32.47,29.37-29.19S128.16,299.72,121.48,319.13Z"/><path class="cls-2" d="M223,319.69c7.67,19,8.59,26.41,17.95,22.65S251.68,320.08,244,301s-21.47-31.41-30.83-27.64S215.34,300.66,223,319.69Z"/><path class="cls-3" d="M262.24,214.83c.14-1.65.22-3.32.22-5,0-21.87-12.25-41.43-31.54-54.52a110.21,110.21,0,0,0,1.31-17.19C232.23,112.65,224.08,92,214,92s-18.22,20.65-18.22,46.12c0,.88,0,1.75,0,2.62a110.34,110.34,0,0,0-48.93,1.08c0-1.22.06-2.45.06-3.7C147,112.65,138.81,92,128.75,92s-18.22,20.65-18.22,46.12a107.69,107.69,0,0,0,1.83,20.16C95.47,171.27,85,189.56,85,209.82a58.12,58.12,0,0,0,.45,7.23C76.34,223.63,71,231.7,71,240.44c0,22,34,39.92,76,39.92q5.43,0,10.67-.39a111,111,0,0,0,36.14-.66q4.43.27,9,.28c42,0,76-17.87,76-39.92C278.74,230.28,272.57,221.64,262.24,214.83Z"/><path class="cls-4" d="M206.49,208.31a124.7,124.7,0,0,0-34.44-4.5,123.87,123.87,0,0,0-35,4.68c-15.9,2.58-27.93,14.64-27.93,29.14,0,16.38,15.36,29.66,34.3,29.66,12,0,22.58-5.35,28.71-13.44,6.22,8.09,16.94,13.44,29.14,13.44,19.22,0,34.81-13.28,34.81-29.66C236,222.77,223.22,210.47,206.49,208.31Z"/><circle cx="126.4" cy="203.81" r="11.54"/><circle cx="218.73" cy="203.81" r="11.54"/><path class="cls-5" d="M189.25,214.78c-8.3,5.28-7.43,9.81-16.6,9.81s-10.56-4.53-16.6-9.81c-4.08-3.57,7.43-9.81,16.6-9.81S193.82,211.87,189.25,214.78Z"/><ellipse class="cls-4" cx="128.71" cy="124.75" rx="10.39" ry="22.51"/><ellipse class="cls-4" cx="212.96" cy="124.75" rx="10.39" ry="22.51"/></g></svg>