<svg id="Layer_1" data-name="Layer 1" xmlns="http://www.w3.org/2000/svg" viewBox="0 0 350 500"><defs><style>.cls-1{fill:#fdd4c0;}.cls-2{fill:#c69c6d;}.cls-3{fill:#9b7651;}.cls-4{fill:#d16183;}</style></defs><title>catCard</title><rect class="cls-1" width="350" height="500"/><path class="cls-2" d="M233.84,284.21c-5.67-31.44-28.85-55-56.61-55-31.14,0-56.53,29.64-57.88,66.81a148.75,148.75,0,0,0-2.58,28.29c0,32.35,9.31,58.57,20.78,58.57,6.26,0,11.87-7.81,15.68-20.14a49,49,0,0,0,48.69-.37c3.81,14,9.67,23,16.25,23,11.48,0,20.78-27.35,20.78-61.09C239,309,237,294.95,233.84,284.21Z"/><path class="cls-2" d="M123.48,297.13c-6.68,19.4-7.23,26.82-16.77,23.54S94.86,299,101.54,279.58s19.83-32.47,29.37-29.19S130.16,277.72,123.48,297.13Z"/><path class="cls-2" d="M225,297.69c7.67,19,8.59,26.41,17.95,22.65S253.68,298.08,246,279s-21.47-31.41-30.83-27.64S217.34,278.66,225,297.69Z"/><path class="cls-2" d="M262.28,190.47c.14-1.64.22-3.3.22-5,0-15.88-6.57-30.54-17.67-42.36,0-.18.06-.35.08-.53l1.2-15.27,1.2-15.27a8.78,8.78,0,0,0-12.53-8.62L221,110l-13.83,6.59a8.74,8.74,0,0,0-3,2.29A111.72,111.72,0,0,0,138.37,120a8.72,8.72,0,0,0-3-2.38L121.51,111l-13.83-6.59a8.78,8.78,0,0,0-12.53,8.62l1.2,15.27,1.2,15.27a8.79,8.79,0,0,0,.71,2.82C88.94,157.63,83.5,171.06,83.5,185.5a57.12,57.12,0,0,0,.44,7C75.79,199,71,206.8,71,215.25c0,22,32.24,39.75,72,39.75,3.25,0,6.44-.13,9.57-.36a113,113,0,0,0,41.74-.17c3.81.34,7.71.53,11.69.53,39.76,0,72-17.8,72-39.75C278,205.88,272.11,197.27,262.28,190.47Z"/><path class="cls-3" d="M208.49,186.31a124.7,124.7,0,0,0-34.44-4.5,123.87,123.87,0,0,0-35,4.68c-15.9,2.58-27.93,14.64-27.93,29.14,0,16.38,15.36,29.66,34.3,29.66,12,0,22.58-5.35,28.71-13.44,6.22,8.09,16.94,13.44,29.14,13.44,19.22,0,34.81-13.28,34.81-29.66C238,200.77,225.22,188.47,208.49,186.31Z"/><circle cx="128.4" cy="181.81" r="11.54"/><circle cx="220.73" cy="181.81" r="11.54"/><path class="cls-4" d="M191.25,192.78c-8.3,5.28-7.43,9.81-16.6,9.81s-10.56-4.53-16.6-9.81c-4.08-3.57,7.43-9.81,16.6-9.81S195.82,189.87,191.25,192.78Z"/></svg>