<?xml version="1.0" encoding="utf-8"?>
<!-- Generator: Adobe Illustrator 24.0.2, SVG Export Plug-In . SVG Version: 6.00 Build 0)  -->
<svg version="1.1" xmlns="http://www.w3.org/2000/svg" xmlns:xlink="http://www.w3.org/1999/xlink" x="0px" y="0px"
	 viewBox="0 0 500 700" style="enable-background:new 0 0 500 700;" xml:space="preserve">
<style type="text/css">
	.st0{fill:#333333;}
	.st1{fill:#2B2828;}
	.st2{fill:#E0AB79;}
	.st3{fill:#99714E;}
	.st4{fill:#7C4F4A;}
	.st5{fill:#B84451;}
	.st6{fill:#F7FFFB;}
	.st7{fill:#E8867C;}
	.st8{fill:#8C5E3C;}
	.st9{fill:#3A5C8A;}
	.st10{fill:#223150;}
	.st11{fill:#F6F5F8;}
	.st12{fill:#B31222;}
	.st13{fill:#E62832;}
	.st14{fill:#D91F20;}
	.st15{fill:#E24C4D;}
</style>
<g id="Layer_1">
	<ellipse class="st0" cx="233.99" cy="171.02" rx="43.51" ry="80.49"/>
	<path class="st1" d="M284.02,53.54c7.34,1.06,12.76,9.3,15.23,13.05c3.92,5.96,5.2,11.49,6.53,17.4
		c2.4,10.73,2.24,19.33,2.18,21.75c-0.42,16.59-0.62,24.88-2.18,47.86c-2.12,31.43-3.18,47.15-2.18,63.09
		c0.96,15.28,2.59,21.68-2.18,28.28c-7.58,10.51-24.98,12.74-36.98,10.88c-6.95-1.08-10.42-1.62-13.05-4.35
		c-9.86-10.23,7.01-31.87,10.88-71.79c1.2-12.37,0.66-21.44,0-32.63c-2.46-41.54-12.63-53.34-4.35-71.79
		C263,63.96,274.16,52.12,284.02,53.54z"/>
	<path class="st1" d="M205.71,33.96c-5.02-0.89-9.2,2.34-17.4,8.7c-4.57,3.54-11.89,9.34-17.4,19.58
		c-3.19,5.92-5.12,12.12-6.53,21.75c-2.55,17.46-0.92,29.45,0,43.51c1.38,21.03,0.59,37.55,0,50.04
		c-0.63,13.17-2.03,30.8,2.18,52.21c0.74,3.76,2.04,9.63,6.53,15.23c7.43,9.27,21.56,15.3,28.28,10.88
		c0.08-0.05,0.17-0.11,0.25-0.17c14.12-9.24,18.69-27.75,10.6-42.55c-6.88-12.6-14.44-35.07-8.68-68.23
		c8.7-50.04-7.76-64.45-2.18-69.62c6.9-6.38,14.85-7.03,17.4-15.23C221.87,50.07,214.87,35.59,205.71,33.96z"/>
	<g>
		<rect x="220.93" y="162.32" class="st2" width="26.11" height="34.81"/>
		<polygon class="st3" points="220.93,173.2 247.04,181.9 247.04,166.67 220.93,166.67 		"/>
	</g>
	<path class="st2" d="M243.12,168.84h-18.26c-21.3,0-38.73-17.43-38.73-38.73V90.1c0-21.3,17.43-38.73,38.73-38.73h18.26
		c21.3,0,38.73,17.43,38.73,38.73v40.02C281.85,151.42,264.42,168.84,243.12,168.84z"/>
	<circle class="st2" cx="179.6" cy="125.33" r="13.05"/>
	<circle class="st2" cx="286.2" cy="125.33" r="13.05"/>
	<g>
		<ellipse class="st4" cx="208.97" cy="117.72" rx="5.44" ry="7.61"/>
		<ellipse class="st4" cx="256.83" cy="117.72" rx="5.44" ry="7.61"/>
		<path class="st5" d="M216.56,136.21c-1.05,0-1.96,0.78-2.07,1.82c-0.14,1.31-0.13,2.93,0.31,4.7c1.16,4.65,4.51,7.22,6.46,8.7
			c1.71,1.31,6.34,4.74,12.92,4.35c5.44-0.32,9.1-3.06,10.76-4.35c2-1.55,5.31-4.1,6.46-8.7c0.44-1.76,0.45-3.37,0.31-4.67
			c-0.11-1.06-1.01-1.86-2.08-1.86h-17.61H216.56z"/>
		<path class="st6" d="M217.47,136.21c0.44,0.9,0.9,1.64,1.29,2.18c3.93,5.48,10.1,6.42,10.88,6.53c1.63,0.22,2.85,0.12,4.35,0
			c1.65-0.13,5.2-0.45,8.7-2.18c3.57-1.76,5.91-4.4,7.37-6.53H217.47z"/>
		<circle class="st7" cx="202.44" cy="135.12" r="7.61"/>
		<circle class="st7" cx="265.53" cy="135.12" r="7.61"/>
		<path class="st8" d="M197,107.93c2.18-2.18,4.35-4.35,8.46-4.35c2.98,0,5.96,0,8.94,0v-1.91c0-1.35-1.09-2.44-2.44-2.44h-6.81
			c-2.72,0-8.15,2.18-8.15,4.35C197,105.03,197,106.48,197,107.93z"/>
		<path class="st8" d="M266.62,107.93c-2.18-2.18-4.35-4.35-8.46-4.35c-2.98,0-5.96,0-8.94,0v-1.91c0-1.35,1.09-2.44,2.44-2.44h6.81
			c2.72,0,8.15,2.18,8.15,4.35C266.62,105.03,266.62,106.48,266.62,107.93z"/>
	</g>
	<path class="st1" d="M197,29.61c-2.46,2.46-6.53,10.01-6.53,15.23c0,8.7,0.13,10.84,2.18,17.4c0.72,2.33,3.85,10.37,8.7,15.23
		c4.35,4.35,10.56,7.45,13.05,8.7c4.35,2.18,5.19,2.46,10.88,4.35c6.53,2.18,13.75,3.61,15.23,4.35c4.35,2.18,10.88,2.18,15.23,2.18
		c6.94,0,8.7,0,15.23,0c4.35,0,17.36,1.22,23.93-6.53c5.98-7.04,3.81-17.92,2.18-26.11c-0.23-1.14-1.33-6.54-4.35-13.05
		c-2.74-5.92-5.71-9.83-6.53-10.88c-2.35-3.03-5.32-5.32-8.7-8.7c-2.18-2.18-6.26-4.99-10.88-6.53c-6.53-2.18-12.35-1.61-17.4-2.18
		c-1.63-0.18-0.82-0.02-17.4,0c-8.56,0.01-12.84,0-13.05,0c-6.53,0-7.48,0-10.88,0C203.53,23.09,199.18,27.44,197,29.61z"/>
	<path class="st2" d="M183.95,225.41c-1.71-5.96-3.04-14.22,0-21.75c1.64-4.06,3.79-6.03,4.35-6.53c2.16-1.9,3.6-2.01,10.88-4.35
		c7.42-2.38,7.44-2.76,13.05-4.35c3.56-1.01,5.75-1.63,8.7-2.18c10.42-1.93,19.22-0.85,23.93,0c3.11,0.56,5.24,1.18,8.7,2.18
		c7.02,2.02,12.72,4.32,17.4,6.53c7.82,3.68,11.76,5.59,13.05,8.7c1.65,3.97-0.21,7.77-2.18,13.05c-3.13,8.41-4.22,17.44-6.53,26.11
		c-7.07,26.53-0.16,33.45-6.53,39.16c-11.49,10.31-42.97-4.18-60.91-19.58C207.88,262.39,190.23,247.25,183.95,225.41z"/>
	<path class="st2" d="M125.77,272.51l-3.22-3.55c-3.65-4.03-3.34-10.31,0.69-13.96l51.18-48.61c3.9-3.71,8.32-6.85,13.16-9.2
		c8.82-4.29,11.9-3.72,14.8-0.51l3.22,3.55c3.65,4.03,10.65,12.82,6.62,16.47l-72.51,56.5C135.7,276.85,129.41,276.54,125.77,272.51
		z"/>
	<path class="st2" d="M323.18,284.14h-2.18c4.35,6.53-13.15,4.34-17.4-2.18l-41.94-60.37c-4.25-6.51-2.4-15.32,4.11-19.57v0
		c6.51-4.25,15.32-2.4,19.57,4.11l39.94,61.17C329.53,273.82,329.69,279.89,323.18,284.14z"/>
	<path class="st2" d="M307.05,282.1l6.51,4.32c4.08,2.7,9.62,1.58,12.33-2.49l43.22-65.12c2.7-4.08,1.58-9.62-2.49-12.33l-6.51-4.32
		c-4.08-2.7-9.62-1.58-12.33,2.49l-43.22,65.12C301.85,273.85,302.97,279.4,307.05,282.1z"/>
	<path class="st2" d="M351.06,210c-2.17,0-3.94-2.33-3.94-5.19v-15.56c0-2.85,1.77-5.19,3.94-5.19c2.17,0,3.94,2.33,3.94,5.19v15.56
		C355,207.67,353.23,210,351.06,210z"/>
	<path class="st2" d="M353.64,199.3c0.11-0.53,0.42-1.38,4.35-4.35c3.04-2.3,4.56-3.44,6.53-4.35c3.37-1.55,6.21-1.88,8.7-2.18
		c7.5-0.88,8.4-0.36,8.7,0c0.95,1.13,0.87,3.19,0,4.35c-0.92,1.23-4.2,2.07-6.53,2.18c-2.24,0.1-2.66-0.34-4.35,0
		c-1.83,0.37-3.87,3.13-5.04,4.05c-5.68,4.43-5.54,6.83-8.01,6.83C355.67,205.83,353.06,202.05,353.64,199.3z"/>
	<path class="st2" d="M368.87,199.3c1.39-0.93,2.56-1.71,4.35-2.18c3.15-0.81,4.09,0.42,8.7,0c2.55-0.23,3.56-0.73,4.35,0
		c0.99,0.91,0.86,3.01,0,4.35c-1.01,1.58-2.91,1.92-4.35,2.18c-1.94,0.35-2.51-0.08-4.35,0c-2.31,0.1-3.9,0.89-6.53,2.18
		c-3.99,1.96-4.66,4.72-6.53,4.35c-1.04-0.21-1.9-1.21-2.18-2.18C361.29,204.37,368,199.88,368.87,199.3z"/>
	<path class="st2" d="M371,207c1.13-0.78,4.55-0.8,6.57-1.17c1.43-0.26,1.72,0.09,4.35,0c2.97-0.1,3.67-0.59,4.35,0
		c0.98,0.85,0.87,2.99,0,4.35c-1.06,1.67-3.15,1.99-4.35,2.18c-2.03,0.31-2.56-0.29-4.35,0c-0.46,0.07-1.93,0.35-4.35,2.18
		c-4.53,3.42-4.72,6.49-6.53,6.53c-2.5,0.05-5.92-5.76-4.35-8.7C363.73,209.75,365.59,210.71,371,207z"/>
	<path class="st2" d="M375.39,210.18c0.43-1.14,0.89-0.04,0.61-2.18c-0.25-1.88-1.18-6.44-2.78-8.7c-0.37-0.52-3.49-5.89-7.22-6.3
		c-5.16-0.56-10.76,6.71-10.19,12.83c0.44,4.71,4.78,7.93,8.7,8.7C368.86,215.38,374.14,213.52,375.39,210.18z"/>
	<g>
		<path class="st2" d="M218.76,630.05h2.18c-7.78,0-4.35,1.25-9.2-2.49L188.3,399.45c4.85-11.82,21.59-6.53,29.37-6.53h0
			c7.78,0,14.14,6.36,14.14,14.14v211.02C231.81,625.86,226.54,630.05,218.76,630.05z"/>
		<path class="st9" d="M175.25,647.45c-1.1,0.86-1.78,3.09-2.18,6.53c-0.28,2.46,0.75,5.02,2.18,6.53
			c5.39,5.71,17.81,0.16,23.93-2.18c9.2-3.5,15.68-8.09,19.58-10.88c7.05-5.05,5.11-5.12,13.05-10.88c3.38-2.44,6.53-3.49,6.53-6.53
			c0-2.18,0.97-7.87-2.18-10.88c-2.38-2.27-6.63-3.79-8.7-2.18c-2.93,2.28,2.01,8.09,0,13.05
			C222.91,641.26,186.69,638.52,175.25,647.45z"/>
		<path class="st10" d="M188.3,632.22c-0.7,0.35,1.82,0.6,4.35,2.18c2.26,1.41,3.5,3.16,4.35,4.35c3.96,5.58,1.97,9.31,4.35,10.88
			c2.58,1.71,8.97-2.49,21.75-10.88c2.85-1.87-0.28,0.1,8.7-6.53c4.73-3.49,6.34-4.58,6.53-6.53c0.33-3.41-1.82-6.3-2.18-6.53
			c-5.08-3.3-15.85-1.63-21.75,0c-5.09,1.4-8.7,4.35-13.05,6.53C193.95,629.4,192.65,630.05,188.3,632.22z"/>
		<path class="st2" d="M205.71,623.52c0.46-1.89,5.39-4.91,10.88-6.53c4.47-1.32,3.73-2.35,8.7-2.18
			c4.04,0.14,10.16,2.45,10.88,4.35c1.12,2.95-6.19,8.39-10.88,10.88c-3.39,1.8-5.48,2.09-6.53,2.18c-1.18,0.1-4.35,0-8.7-2.18
			C208.11,629.07,204.99,626.48,205.71,623.52z"/>
		<path class="st10" d="M188.3,632.22c-2.3,1.19-4.09,2.01-8.7,6.53c-5.45,5.34-5.09,5.44-6.53,8.7c-0.25,0.57-2.4,5.63,0,8.7
			c1.88,2.41,5.56,2.31,8.7,2.18c6.3-0.27,10.9-2.34,15.23-4.35c18.51-8.58,19.58-10.88,21.75-13.05c3.51-3.51-12.27-7.23-17.4-8.7
			C198.15,631.3,192.95,629.82,188.3,632.22z"/>
		<path class="st10" d="M207.88,621.34c3.45,0.52,5.31,5.47,6.53,6.53c5.49,4.75,20.34-5.11,21.75-6.53
			c2.18-2.18-8.66,17.67-21.75,17.4c-7.14-0.15-15.25-4.52-15.23-8.7c0.01-2.59-0.25,0.25,2.18-2.18
			C203.53,625.7,206.78,621.18,207.88,621.34z"/>
		<path class="st2" d="M201.31,625.7c1.48,1.64,3.7,3.5,6.5,3.52c1.14,0.01,1.92-0.29,2.17,0c0.58,0.69-2.26,4.12-6.5,5.28
			c-5.47,1.49-10.48-1.54-10.84-1.76c-1.01-0.63-1.72-1.28-2.17-1.76"/>
	</g>
	<g>
		<path class="st2" d="M306.23,625.08l-2.13,0.43c7.63-1.52,4.51,0.38,8.54-4.24l-18.41-232.74c-7.07-10.64-14.34-6.01-21.97-4.49h0
			c-7.63,1.52-22.39,12.14-20.87,19.77l39.7,212.1C292.61,623.52,298.61,626.6,306.23,625.08z"/>
		<path class="st9" d="M352.31,633.63c1.24,0.63,2.35,2.68,3.41,5.97c0.76,2.35,0.25,5.07-0.86,6.83
			c-4.17,6.66-17.43,3.64-23.89,2.55c-9.7-1.63-16.96-4.86-21.33-6.84c-7.9-3.57-6.01-4.03-14.93-8.11
			c-3.79-1.74-7.08-2.14-7.68-5.12c-0.43-2.13-2.49-7.53,0.01-11.09c1.89-2.69,5.76-5.01,8.11-3.84c3.32,1.66-0.39,8.33,2.55,12.8
			C304.36,636.89,339.34,627.11,352.31,633.63z"/>
		<path class="st10" d="M336.53,621.25c0.76,0.21-1.67,0.95-3.84,2.98c-1.94,1.82-2.82,3.78-3.42,5.12
			c-2.8,6.25-0.12,9.51-2.14,11.52c-2.2,2.18-9.29-0.68-23.46-6.41c-3.16-1.28,0.3,0.05-9.81-4.7c-5.32-2.5-7.11-3.25-7.68-5.12
			c-1-3.28,0.55-6.53,0.86-6.83c4.34-4.23,15.22-4.69,21.33-4.26c5.27,0.38,9.39,2.56,14.08,3.85
			C330.44,619.59,331.84,619.97,336.53,621.25z"/>
		<path class="st2" d="M317.76,616.12c-0.82-1.76-6.24-3.76-11.94-4.27c-4.64-0.42-4.11-1.57-8.96-0.43
			c-3.93,0.93-9.48,4.39-9.82,6.4c-0.52,3.11,7.72,7.02,12.8,8.54c3.68,1.1,5.78,0.98,6.83,0.86c1.17-0.13,4.27-0.85,8.11-3.84
			C316.49,622.04,319.04,618.88,317.76,616.12z"/>
		<path class="st10" d="M336.53,621.25c2.49,0.72,4.41,1.17,9.81,4.7c6.39,4.17,6.05,4.34,8.1,7.26c0.36,0.51,3.46,5.05,1.7,8.53
			c-1.38,2.73-5,3.35-8.11,3.84c-6.23,0.97-11.15-0.17-15.79-1.29c-19.83-4.79-21.33-6.84-23.89-8.54
			c-4.13-2.76,10.62-9.49,15.36-11.94C326.69,622.28,331.5,619.8,336.53,621.25z"/>
		<path class="st10" d="M315.2,614.41c-3.28,1.18-4.14,6.41-5.12,7.68c-4.45,5.73-20.94-1.03-22.61-2.14
			c-2.56-1.71,11.95,15.63,24.74,12.81c6.97-1.54,14.07-7.42,13.23-11.51c-0.52-2.53,0.3,0.2-2.56-1.71
			C320.32,617.83,316.25,614.04,315.2,614.41z"/>
		<path class="st2" d="M322.49,617.4c-1.13,1.89-2.94,4.16-5.69,4.72c-1.12,0.23-1.94,0.09-2.13,0.42c-0.44,0.79,3.02,3.6,7.41,3.91
			c5.65,0.39,9.98-3.56,10.28-3.85c0.87-0.82,1.43-1.6,1.78-2.15"/>
	</g>
	<g>
		<path class="st11" d="M253.57,188.42c1.57,0.94,14.53,10.99,14.38,12.64c-0.68,7.44-26.66,7.76-36.14,9.12
			c-6.07,0.87-32.89-0.85-32.89-7.76c0-1.9,10.58-14.3,14.21-15.56c0,0-48.05,12.86-45.34,19.62c2.93,7.33,5.35,8.85,10.15,14.77
			c3.38,4.17-5.19,14.3-4.74,25.15c5.41,24.36,27.07,97.44,12.86,129.92c-6.46,14.77,29.92-23.12,46.86-22.58
			c24.02,0.76,50.83,25.49,49.23,19.88c-7.31-25.59,3.04-93.11,12.18-115.04c2.19-5.26,2.4-12.58,2.71-18.27
			c0.36-6.75-2.71-10.83-4.06-18.27c0.27,1.49,3.27-1.62,1.91-20.56C294.79,199.97,253.57,188.42,253.57,188.42z"/>
		<g>
			<path class="st10" d="M238.34,227.58c-7.44,8.12-26.11,13.05,5.41-16.05l7.67-9.29c2.2-2.67,2.62-6.38,1.07-9.47l-3.27-6.53
				c7.44,0,12.64,0.6,16.7,1.96v0c4.6,2.09,2.25,7.82,2.71,12.86l10.15,12.86c-0.29,4.38-6.24,6.9-10.49,8.01l-14.63-3.32
				L238.34,227.58z"/>
			<path class="st10" d="M231.81,234.11c14.39,0.65-5.19-15.73-9.73-21.22l-6.62-8.02c-2.79-3.38-3.12-8.16-0.83-11.89l4.13-6.72
				c-7.44,0-14.79,1.96-18.85,3.31h0c-4.6,2.09-2.25,7.82-2.71,12.86l-8.8,15.56c0.29,4.38,6.24,6.9,10.49,8.01l13.27-6.02
				L231.81,234.11z"/>
		</g>
	</g>
	<path class="st10" d="M323.79,386.69c-1.07-5.75-3.22-11.2-7.48-21.87c-3.62-9.07-5.81-14.55-9.35-21.87
		c-5.17-10.69-8.89-18.4-14.96-26.56c-2.68-3.61-5.4-7.25-8.46-10.77c-10.09,8.03-27.54,13.34-47.39,13.34
		c-21.76,0-40.63-6.38-50.1-15.74c-4.58,5.91-10.17,15.35-17.46,31.91c-6.05,13.76-3.27,9.67-14.96,40.62
		c-8.09,21.41-10.79,26.98-7.48,34.37c3.04,6.79,10.13,10.78,24.31,18.75c12.59,7.08,25.39,14.28,44.87,17.19
		c16.28,2.43,29.31,0.68,33.65,0c13.92-2.17,25.57-6.87,31.79-9.37c14.63-5.9,14.96-7.81,24.31-9.37c4.76-0.8,10.77,0.16,16.83-3.12
		c1.69-0.92,5.61-1.94,5.61-4.69C327.53,414.81,325.57,396.28,323.79,386.69z"/>
	<g>
		<path class="st12" d="M235.55,225.02c0,0.72-0.33,1.08-1.34,3.6c-0.2,0.5-1.31,3.41-3.34,9.36c-1.59,4.69-2.39,7.03-3.01,10.08
			c-0.81,4.06-2,7.56-2,7.56c-0.13,0.02-0.27-0.03-2-1.8c-1.35-1.38-2-1.8-2-1.8s-0.67,0.36-1.67,1.08
			c-1.24,0.89-2.67,2.16-3.01,2.16c0,0,0.42-1.35,1-3.24c0.33-1.08,0.67-2.16,2-5.76c1.18-3.18,1.82-5.77,2.34-7.2
			c0.36-1.01,0.89-2.45,1.67-4.32c1.24-2.96,2.12-4.59,3.34-6.84c0.47-0.86,0.91-1.65,1.67-2.52c0.74-0.86,1.63-1.86,3.01-2.16
			c0.48-0.11,1.59-0.35,2.34,0.36C235.25,224.24,235.55,224.61,235.55,225.02z"/>
		<path class="st13" d="M227.63,231.5c0,0.72,0.36,1.08,1.44,3.6c0.21,0.5,1.42,3.41,3.6,9.36c1.72,4.69,2.58,7.03,3.24,10.08
			c0.88,4.06,2.16,7.56,2.16,7.56c0.14,0.02,0.29-0.03,2.16-1.8c1.45-1.38,2.16-1.8,2.16-1.8s0.72,0.36,1.8,1.08
			c1.34,0.89,2.88,2.16,3.24,2.16c0,0-0.45-1.35-1.08-3.24c-0.36-1.08-0.72-2.16-2.16-5.76c-1.27-3.18-1.96-5.77-2.52-7.2
			c-0.39-1.01-0.96-2.45-1.8-4.32c-1.33-2.96-2.28-4.59-3.6-6.84c-0.51-0.86-0.98-1.65-1.8-2.52c-0.8-0.86-1.76-1.86-3.24-2.16
			c-0.52-0.11-1.71-0.35-2.52,0.36C227.96,230.72,227.63,231.09,227.63,231.5z"/>
		<path class="st12" d="M212.5,221.78c0.42,0.78-0.07,1.2-0.36,3.24c-0.06,0.43-0.45,3.37,0.36,6.48c0.63,2.43,1.57,3.37,1.08,3.96
			c-0.29,0.35-0.82,0.29-3.96-0.36c-3.87-0.8-4.28-0.97-4.68-1.44c-0.48-0.56-0.56-1.82-0.72-4.32c-0.15-2.39,0-2.88,0-4.68
			c0-2.7,0.72-3.29,1.08-3.6c0.63-0.55,1.35-0.63,2.16-0.72C207.65,220.31,211.51,219.92,212.5,221.78z"/>
		<path class="st14" d="M225.11,224.66c-1.03,0.12-1.1,0.96-3.24,2.52c-1.63,1.19-3.08,1.8-3.96,2.16c-0.65,0.27-2.8,1.11-5.76,1.44
			c-1.94,0.22-2.89,0.22-3.96,0c-1.8-0.36-3.6-1.8-3.96-2.16c-0.09-0.09-0.14,0.22,0,1.44c0.14,1.25,0.21,1.87,0.36,2.52
			c0.26,1.16,0.49,2.14,1.08,3.24c0.41,0.75,1.11,2.05,2.52,2.88c1.2,0.71,2.29,0.71,4.32,0.72c2.53,0.01,4.42-0.53,5.04-0.72
			c1.3-0.4,2.19-0.87,3.96-1.8c1.58-0.83,3.39-1.6,5.04-2.88c2.28-1.77,2.69-1.58,2.88-2.88
			C229.8,228.56,227.2,224.41,225.11,224.66z"/>
		<path class="st13" d="M228.35,221.78c-0.38-0.45-0.29-0.66-2.52-2.16c-2.91-1.95-4.74-2.94-5.4-3.24
			c-1.81-0.82-3.28-1.46-5.04-1.8c-2.71-0.52-4.07-0.42-5.4,0c-2.41,0.75-3.67,2.88-4.32,3.96c-2.09,3.5-1.44,6.84-1.44,7.56
			c0,0.12,0.19-0.42,0.72-1.08c0.66-0.82,1.43-1.2,1.8-1.44c1.08-0.72,2-0.77,2.88-0.72c0.85,0.05,3.24,0.36,4.32,0.72
			c1.88,0.63,3.5,1.28,5.4,2.16c2.96,1.37,4.45,2.05,5.76,2.88c2.44,1.54,3.15,2.49,3.96,2.16c1.34-0.54,1.11-3.84,1.08-4.32
			C230.11,225.8,229.93,223.66,228.35,221.78z"/>
		<path class="st12" d="M249.54,222.14c-0.42,0.78,0.07,1.2,0.36,3.24c0.06,0.43,0.45,3.37-0.36,6.48
			c-0.63,2.43-1.57,3.37-1.08,3.96c0.29,0.35,0.82,0.29,3.96-0.36c3.87-0.8,4.28-0.97,4.68-1.44c0.48-0.56,0.56-1.82,0.72-4.32
			c0.15-2.39,0-2.88,0-4.68c0-2.7-0.72-3.29-1.08-3.6c-0.63-0.55-1.35-0.63-2.16-0.72C254.39,220.67,250.53,220.28,249.54,222.14z"
			/>
		<path class="st14" d="M236.93,225.02c1.03,0.12,1.1,0.96,3.24,2.52c1.63,1.19,3.08,1.8,3.96,2.16c0.65,0.27,2.8,1.11,5.76,1.44
			c1.94,0.22,2.89,0.22,3.96,0c1.8-0.36,3.6-1.8,3.96-2.16c0.09-0.09,0.14,0.22,0,1.44c-0.14,1.25-0.21,1.87-0.36,2.52
			c-0.26,1.16-0.49,2.14-1.08,3.24c-0.41,0.75-1.11,2.05-2.52,2.88c-1.2,0.71-2.29,0.71-4.32,0.72c-2.53,0.01-4.42-0.53-5.04-0.72
			c-1.3-0.4-2.19-0.87-3.96-1.8c-1.58-0.83-3.03-1.6-4.68-2.88c-2.28-1.77-1.19-3.38-1.38-4.68
			C234.1,227.12,234.85,224.77,236.93,225.02z"/>
		<path class="st13" d="M233.69,222.14c0.38-0.45,0.29-0.66,2.52-2.16c2.91-1.95,4.74-2.94,5.4-3.24c1.81-0.82,3.28-1.46,5.04-1.8
			c2.71-0.52,4.07-0.42,5.4,0c2.41,0.75,3.67,2.88,4.32,3.96c2.09,3.5,1.44,6.84,1.44,7.56c0,0.12-0.19-0.42-0.72-1.08
			c-0.66-0.82-1.43-1.2-1.8-1.44c-1.08-0.72-2-0.77-2.88-0.72c-0.85,0.05-3.24,0.36-4.32,0.72c-1.88,0.63-3.5,1.28-5.4,2.16
			c-2.96,1.37-4.45,2.05-5.76,2.88c-2.44,1.54-3.15,2.49-3.96,2.16c-1.34-0.54-1.11-3.84-1.08-4.32
			C231.94,226.16,232.11,224.02,233.69,222.14z"/>
		<polygon class="st15" points="234.83,221.06 227.99,221.06 226.91,226.1 227.99,232.94 234.83,233.3 236.63,227.18 		"/>
	</g>
	<path class="st2" d="M123.83,254.71L123.83,254.71c-4.87,4.43-5.23,12.04-0.8,16.9l45.39,49.88c4.43,4.87,12.04,5.23,16.9,0.8h0
		c4.87-4.43,5.23-12.04,0.8-16.9l-43.51-53.87C138.19,246.65,128.7,250.28,123.83,254.71z"/>
	<path class="st2" d="M188.3,323.3c1.18-0.16,1.7-0.12,2.18,0c2.23,0.56,3.21,0.86,4.35,2.18c2.17,2.52,2.18,4.35,2.18,6.53
		c0,2.28,1.76,2.17,2.18,2.18c0.97,0.02,1.9-1.16,2.18-2.18c0.13-0.48,0.06-3.91,0-4.35c-0.36-2.65-1.26-4.46-4.35-6.53
		c-1.43-0.95-2.13-1.36-2.18-2.18c-0.06-1.05,1.18-2.27,2.18-2.18c0.67,0.06,2.95,0.78,4.35,2.18c2.18,2.18,1.38,3.13,1.78,4.77
		c0.4,1.64,1.99,2.58,3.67,2.4c1.2-0.13,1.14-4.34,1.08-5c-0.16-1.81-1.08-3.26-2.18-4.35c-2.18-2.18-6.53-4.35-6.53-4.35
		c-0.61-0.61-0.46-1.83,0-2.18c0.38-0.28,1.56-0.39,4.82,1.75c2.72,1.78,2.96,2.78,3.88,2.6c1.03-0.2,2.2-1.11,2.18-2.18
		C210,310,203.97,307.12,202,306c-3.36-1.9-4.37-1.84-7.17-2.28c-2.03-0.32-2.17,0.03-6.53,0c-5.47-0.04-5.49-1.32-6.3-0.72
		c-2.79,2.03,0.96,8.36-2.4,13.78c-0.96,1.54-2.13,2.46-2.18,4.35c-0.03,1.47-1.7,4.35,0,4.35C181.78,325.48,183.14,324,188.3,323.3
		z"/>
</g>
<g id="Layer_2">
	<ellipse class="st0" cx="234.83" cy="170.08" rx="43.51" ry="80.49"/>
	<path class="st1" d="M284.86,52.61c7.34,1.06,12.76,9.3,15.23,13.05c3.92,5.96,5.2,11.49,6.53,17.4
		c2.4,10.73,2.24,19.33,2.18,21.75c-0.42,16.59-0.62,24.88-2.18,47.86c-2.12,31.43-3.18,47.15-2.18,63.09
		c0.96,15.28,2.59,21.68-2.18,28.28c-7.58,10.51-24.98,12.74-36.98,10.88c-6.95-1.08-10.42-1.62-13.05-4.35
		c-9.86-10.23,7.01-31.87,10.88-71.79c1.2-12.37,0.66-21.44,0-32.63c-2.46-41.54-12.63-53.34-4.35-71.79
		C263.84,63.03,275,51.18,284.86,52.61z"/>
	<path class="st1" d="M206.55,33.03c-5.02-0.89-9.2,2.34-17.4,8.7c-4.57,3.54-11.89,9.34-17.4,19.58
		c-3.19,5.92-5.12,12.12-6.53,21.75c-2.55,17.46-0.92,29.45,0,43.51c1.38,21.03,0.59,37.55,0,50.04
		c-0.63,13.17-2.03,30.8,2.18,52.21c0.74,3.76,2.04,9.63,6.53,15.23c7.43,9.27,21.56,15.3,28.28,10.88
		c0.08-0.05,0.17-0.11,0.25-0.17c14.12-9.24,18.69-27.75,10.6-42.55c-6.88-12.6-14.44-35.07-8.68-68.23
		c8.7-50.04-7.76-64.45-2.18-69.62c6.9-6.38,14.85-7.03,17.4-15.23C222.71,49.14,215.71,34.66,206.55,33.03z"/>
	<g>
		<rect x="221.77" y="161.38" class="st2" width="26.11" height="34.81"/>
		<polygon class="st3" points="221.77,172.26 247.88,180.96 247.88,165.73 221.77,165.73 		"/>
	</g>
	<path class="st2" d="M243.96,167.91h-18.26c-21.3,0-38.73-17.43-38.73-38.73V89.16c0-21.3,17.43-38.73,38.73-38.73h18.26
		c21.3,0,38.73,17.43,38.73,38.73v40.02C282.69,150.48,265.26,167.91,243.96,167.91z"/>
	<circle class="st2" cx="180.44" cy="124.4" r="13.05"/>
	<circle class="st2" cx="287.04" cy="124.4" r="13.05"/>
	<g>
		<ellipse class="st4" cx="209.81" cy="116.78" rx="5.44" ry="7.61"/>
		<ellipse class="st4" cx="257.67" cy="116.78" rx="5.44" ry="7.61"/>
		<path class="st5" d="M217.4,135.27c-1.05,0-1.96,0.78-2.07,1.82c-0.14,1.31-0.13,2.93,0.31,4.7c1.16,4.65,4.51,7.22,6.46,8.7
			c1.71,1.31,6.34,4.74,12.92,4.35c5.44-0.32,9.1-3.06,10.76-4.35c2-1.55,5.31-4.1,6.46-8.7c0.44-1.76,0.45-3.37,0.31-4.67
			c-0.11-1.06-1.01-1.86-2.08-1.86h-17.61H217.4z"/>
		<path class="st6" d="M218.31,135.27c0.44,0.9,0.9,1.64,1.29,2.18c3.93,5.48,10.1,6.42,10.88,6.53c1.63,0.22,2.85,0.12,4.35,0
			c1.65-0.13,5.2-0.45,8.7-2.18c3.57-1.76,5.91-4.4,7.37-6.53H218.31z"/>
		<circle class="st7" cx="203.28" cy="134.19" r="7.61"/>
		<circle class="st7" cx="266.37" cy="134.19" r="7.61"/>
		<path class="st8" d="M197.84,106.99c2.18-2.18,4.35-4.35,8.46-4.35c2.98,0,5.96,0,8.94,0v-1.91c0-1.35-1.09-2.44-2.44-2.44H206
			c-2.72,0-8.15,2.18-8.15,4.35C197.84,104.09,197.84,105.54,197.84,106.99z"/>
		<path class="st8" d="M267.46,106.99c-2.18-2.18-4.35-4.35-8.46-4.35c-2.98,0-5.96,0-8.94,0v-1.91c0-1.35,1.09-2.44,2.44-2.44h6.81
			c2.72,0,8.15,2.18,8.15,4.35C267.46,104.09,267.46,105.54,267.46,106.99z"/>
	</g>
	<path class="st1" d="M197.84,28.68c-2.46,2.46-6.53,10.01-6.53,15.23c0,8.7,0.13,10.84,2.18,17.4c0.72,2.33,3.85,10.37,8.7,15.23
		c4.35,4.35,10.56,7.45,13.05,8.7c4.35,2.18,5.19,2.46,10.88,4.35c6.53,2.18,13.75,3.61,15.23,4.35c4.35,2.18,10.88,2.18,15.23,2.18
		c6.94,0,8.7,0,15.23,0c4.35,0,17.36,1.22,23.93-6.53c5.98-7.04,3.81-17.92,2.18-26.11c-0.23-1.14-1.33-6.54-4.35-13.05
		c-2.74-5.92-5.71-9.83-6.53-10.88c-2.35-3.03-5.32-5.32-8.7-8.7c-2.18-2.18-6.26-4.99-10.88-6.53c-6.53-2.18-12.35-1.61-17.4-2.18
		c-1.63-0.18-0.82-0.02-17.4,0c-8.56,0.01-12.84,0-13.05,0c-6.53,0-7.48,0-10.88,0C204.37,22.15,200.02,26.5,197.84,28.68z"/>
	<path class="st2" d="M184.79,224.47c-1.71-5.96-3.04-14.22,0-21.75c1.64-4.06,3.79-6.03,4.35-6.53c2.16-1.9,3.6-2.01,10.88-4.35
		c7.42-2.38,7.44-2.76,13.05-4.35c3.56-1.01,5.75-1.63,8.7-2.18c10.42-1.93,19.22-0.85,23.93,0c3.11,0.56,5.24,1.18,8.7,2.18
		c7.02,2.02,12.72,4.32,17.4,6.53c7.82,3.68,11.76,5.59,13.05,8.7c1.65,3.97-0.21,7.77-2.18,13.05c-3.13,8.41-4.22,17.44-6.53,26.11
		c-7.07,26.53-0.16,33.45-6.53,39.16c-11.49,10.31-42.97-4.18-60.91-19.58C208.72,261.45,191.07,246.31,184.79,224.47z"/>
	<path class="st2" d="M126.61,271.58l-3.22-3.55c-3.65-4.03-3.34-10.31,0.69-13.96l51.18-48.61c3.9-3.71,8.32-6.85,13.16-9.2
		c8.82-4.29,11.9-3.72,14.8-0.51l3.22,3.55c3.65,4.03,10.65,12.82,6.62,16.47l-72.51,56.5
		C136.53,275.92,130.25,275.61,126.61,271.58z"/>
	<path class="st2" d="M324.02,283.21h-2.18c4.35,6.53-13.15,4.34-17.4-2.18l-41.94-60.37c-4.25-6.51-2.4-15.32,4.11-19.57l0,0
		c6.51-4.25,15.32-2.4,19.57,4.11l39.94,61.17C330.37,272.88,330.53,278.96,324.02,283.21z"/>
	<path class="st2" d="M314.38,289.24l7.38,2.57c4.62,1.61,9.71-0.86,11.32-5.48l25.68-73.81c1.61-4.62-0.86-9.71-5.48-11.32
		l-7.38-2.57c-4.62-1.61-9.71,0.86-11.32,5.48l-25.68,73.81C307.3,282.54,309.76,287.64,314.38,289.24z"/>
	<path class="st2" d="M339.09,208.47c-2.1,0.54-4.4-1.28-5.11-4.04l-3.87-15.07c-0.71-2.76,0.43-5.46,2.53-6
		c2.1-0.54,4.4,1.28,5.11,4.04l3.87,15.07C342.33,205.23,341.19,207.93,339.09,208.47z"/>
	<path class="st2" d="M338.94,197.46c-0.02-0.54,0.06-1.44,3.13-5.3c2.37-2.98,3.56-4.47,5.24-5.84c2.88-2.34,5.55-3.37,7.89-4.27
		c7.05-2.72,8.04-2.44,8.43-2.16c1.2,0.86,1.64,2.87,1.08,4.21c-0.59,1.42-3.55,3.05-5.78,3.73c-2.15,0.65-2.66,0.33-4.21,1.08
		c-1.68,0.81-2.97,4-3.88,5.18c-4.4,5.7-3.67,7.99-6.06,8.6C342.52,203.28,339.06,200.28,338.94,197.46z"/>
	<path class="st2" d="M353.69,193.68c1.12-1.25,2.05-2.29,3.67-3.19c2.85-1.57,4.07-0.61,8.43-2.16c2.41-0.86,3.27-1.59,4.21-1.08
		c1.18,0.64,1.58,2.7,1.08,4.21c-0.58,1.78-2.34,2.58-3.67,3.19c-1.79,0.82-2.45,0.54-4.21,1.08c-2.21,0.67-3.56,1.83-5.78,3.73
		c-3.37,2.89-3.34,5.73-5.24,5.84c-1.06,0.06-2.14-0.7-2.65-1.57C347.61,200.47,352.99,194.46,353.69,193.68z"/>
	<path class="st2" d="M357.67,200.61c0.9-1.03,4.2-1.91,6.07-2.77c1.32-0.61,1.69-0.34,4.21-1.08c2.85-0.84,3.4-1.48,4.21-1.08
		c1.16,0.58,1.59,2.68,1.08,4.21c-0.62,1.88-2.55,2.71-3.67,3.19c-1.89,0.81-2.55,0.36-4.21,1.08c-0.42,0.18-1.79,0.82-3.67,3.19
		c-3.54,4.43-2.96,7.46-4.7,7.94c-2.41,0.67-7.17-4.11-6.38-7.35C351.31,205.08,353.35,205.55,357.67,200.61z"/>
	<path class="st2" d="M362.71,202.59c0.13-1.21,0.85-0.26,0.05-2.26c-0.71-1.76-2.74-5.94-4.86-7.73c-0.49-0.42-4.84-4.84-8.56-4.31
		c-5.13,0.73-8.75,9.18-6.68,14.96c1.6,4.45,6.6,6.49,10.59,6.27C357.68,209.26,362.32,206.14,362.71,202.59z"/>
	<g>
		<path class="st2" d="M219.6,629.11h2.18c-7.78,0-4.35,1.25-9.2-2.49l-23.43-228.11c4.85-11.82,21.59-6.53,29.37-6.53h0
			c7.78,0,14.14,6.36,14.14,14.14v211.02C232.65,624.92,227.38,629.11,219.6,629.11z"/>
		<path class="st9" d="M176.09,646.51c-1.1,0.86-1.78,3.09-2.18,6.53c-0.28,2.46,0.75,5.02,2.18,6.53
			c5.39,5.71,17.81,0.16,23.93-2.18c9.2-3.5,15.68-8.09,19.58-10.88c7.05-5.05,5.11-5.12,13.05-10.88c3.38-2.44,6.53-3.49,6.53-6.53
			c0-2.18,0.97-7.87-2.18-10.88c-2.38-2.27-6.63-3.79-8.7-2.18c-2.93,2.28,2.01,8.09,0,13.05
			C223.75,640.33,187.53,637.58,176.09,646.51z"/>
		<path class="st10" d="M189.14,631.28c-0.7,0.35,1.82,0.6,4.35,2.18c2.26,1.41,3.5,3.16,4.35,4.35c3.96,5.58,1.97,9.31,4.35,10.88
			c2.58,1.71,8.97-2.49,21.75-10.88c2.85-1.87-0.28,0.1,8.7-6.53c4.73-3.49,6.34-4.58,6.53-6.53c0.33-3.41-1.82-6.3-2.18-6.53
			c-5.08-3.3-15.85-1.63-21.75,0c-5.09,1.4-8.7,4.35-13.05,6.53C194.79,628.46,193.49,629.11,189.14,631.28z"/>
		<path class="st2" d="M206.55,622.58c0.46-1.89,5.39-4.91,10.88-6.53c4.47-1.32,3.73-2.35,8.7-2.18
			c4.04,0.14,10.16,2.45,10.88,4.35c1.12,2.95-6.19,8.39-10.88,10.88c-3.39,1.8-5.48,2.09-6.53,2.18c-1.18,0.1-4.35,0-8.7-2.18
			C208.95,628.14,205.83,625.54,206.55,622.58z"/>
		<path class="st10" d="M189.14,631.28c-2.3,1.19-4.09,2.01-8.7,6.53c-5.45,5.34-5.09,5.44-6.53,8.7c-0.25,0.57-2.4,5.63,0,8.7
			c1.88,2.41,5.56,2.31,8.7,2.18c6.3-0.27,10.9-2.34,15.23-4.35c18.51-8.58,19.58-10.88,21.75-13.05c3.51-3.51-12.27-7.23-17.4-8.7
			C198.99,630.37,193.79,628.88,189.14,631.28z"/>
		<path class="st10" d="M208.72,620.41c3.45,0.52,5.31,5.47,6.53,6.53c5.49,4.75,20.34-5.11,21.75-6.53
			c2.18-2.18-8.66,17.67-21.75,17.4c-7.14-0.15-15.25-4.52-15.23-8.7c0.01-2.59-0.25,0.25,2.18-2.18
			C204.37,624.76,207.62,620.24,208.72,620.41z"/>
		<path class="st2" d="M202.15,624.76c1.48,1.64,3.7,3.5,6.5,3.52c1.14,0.01,1.92-0.29,2.17,0c0.58,0.69-2.26,4.12-6.5,5.28
			c-5.47,1.49-10.48-1.54-10.84-1.76c-1.01-0.63-1.72-1.28-2.17-1.76"/>
	</g>
	<g>
		<path class="st2" d="M307.07,624.14l-2.13,0.43c7.63-1.52,4.51,0.38,8.54-4.24l-18.41-232.74c-7.07-10.64-14.34-6.01-21.97-4.49
			l0,0c-7.63,1.52-22.39,12.14-20.87,19.77l39.7,212.1C293.45,622.59,299.45,625.66,307.07,624.14z"/>
		<path class="st9" d="M353.15,632.69c1.24,0.63,2.35,2.68,3.41,5.97c0.76,2.35,0.25,5.07-0.86,6.83
			c-4.17,6.66-17.43,3.64-23.89,2.55c-9.7-1.63-16.96-4.86-21.33-6.84c-7.9-3.57-6.01-4.03-14.93-8.11
			c-3.79-1.74-7.08-2.14-7.68-5.12c-0.43-2.13-2.49-7.53,0.01-11.09c1.89-2.69,5.76-5.01,8.11-3.84c3.32,1.66-0.39,8.33,2.55,12.8
			C305.2,635.95,340.18,626.18,353.15,632.69z"/>
		<path class="st10" d="M337.37,620.31c0.76,0.21-1.67,0.95-3.84,2.98c-1.94,1.82-2.82,3.78-3.42,5.12
			c-2.8,6.25-0.12,9.51-2.14,11.52c-2.2,2.18-9.29-0.68-23.46-6.41c-3.16-1.28,0.3,0.05-9.81-4.7c-5.32-2.5-7.11-3.25-7.68-5.12
			c-1-3.28,0.55-6.53,0.86-6.83c4.34-4.23,15.22-4.69,21.33-4.26c5.27,0.38,9.39,2.56,14.08,3.85
			C331.28,618.65,332.67,619.03,337.37,620.31z"/>
		<path class="st2" d="M318.6,615.19c-0.82-1.76-6.24-3.76-11.94-4.27c-4.64-0.42-4.11-1.57-8.96-0.43
			c-3.93,0.93-9.48,4.39-9.82,6.4c-0.52,3.11,7.72,7.02,12.8,8.54c3.68,1.1,5.78,0.98,6.83,0.86c1.17-0.13,4.27-0.85,8.11-3.84
			C317.32,621.1,319.88,617.95,318.6,615.19z"/>
		<path class="st10" d="M337.37,620.31c2.49,0.72,4.41,1.17,9.81,4.7c6.39,4.17,6.05,4.34,8.1,7.26c0.36,0.51,3.46,5.05,1.7,8.53
			c-1.38,2.73-5,3.35-8.11,3.84c-6.23,0.97-11.15-0.17-15.79-1.29c-19.83-4.79-21.33-6.84-23.89-8.54
			c-4.13-2.76,10.62-9.49,15.36-11.94C327.53,621.34,332.33,618.86,337.37,620.31z"/>
		<path class="st10" d="M316.04,613.48c-3.28,1.18-4.14,6.41-5.12,7.68c-4.45,5.73-20.94-1.03-22.61-2.14
			c-2.56-1.71,11.95,15.63,24.74,12.81c6.97-1.54,14.07-7.42,13.23-11.51c-0.52-2.53,0.3,0.2-2.56-1.71
			C321.16,616.89,317.09,613.1,316.04,613.48z"/>
		<path class="st2" d="M323.33,616.46c-1.13,1.89-2.94,4.16-5.69,4.72c-1.12,0.23-1.94,0.09-2.13,0.42
			c-0.44,0.79,3.02,3.6,7.41,3.91c5.65,0.39,9.98-3.56,10.28-3.85c0.87-0.82,1.43-1.6,1.78-2.15"/>
	</g>
	<g>
		<path class="st11" d="M254.41,187.49c1.57,0.94,14.53,10.99,14.38,12.64c-0.68,7.44-26.66,7.76-36.14,9.12
			c-6.07,0.87-32.89-0.85-32.89-7.76c0-1.9,10.58-14.3,14.21-15.56c0,0-48.05,12.86-45.34,19.62c2.93,7.33,5.35,8.85,10.15,14.77
			c3.38,4.17-5.19,14.3-4.74,25.15c5.41,24.36,27.07,97.44,12.86,129.92c-6.46,14.77,29.92-23.12,46.86-22.58
			c24.02,0.76,50.83,25.49,49.23,19.88c-7.31-25.59,3.04-93.11,12.18-115.04c2.19-5.26,2.4-12.58,2.71-18.27
			c0.36-6.75-2.71-10.83-4.06-18.27c0.27,1.49,3.27-1.62,1.91-20.56C295.63,199.04,254.41,187.49,254.41,187.49z"/>
		<g>
			<path class="st10" d="M239.18,226.65c-7.44,8.12-26.11,13.05,5.41-16.05l7.67-9.29c2.2-2.67,2.62-6.38,1.07-9.47l-3.27-6.53
				c7.44,0,12.64,0.6,16.7,1.96h0c4.6,2.09,2.25,7.82,2.71,12.86l10.15,12.86c-0.29,4.38-6.24,6.9-10.49,8.01l-14.63-3.32
				L239.18,226.65z"/>
			<path class="st10" d="M232.65,233.17c14.39,0.65-5.19-15.73-9.73-21.22l-6.62-8.02c-2.79-3.38-3.12-8.16-0.83-11.89l4.13-6.72
				c-7.44,0-14.79,1.96-18.85,3.31v0c-4.6,2.09-2.25,7.82-2.71,12.86l-8.8,15.56c0.29,4.38,6.24,6.9,10.49,8.01l13.27-6.02
				L232.65,233.17z"/>
		</g>
	</g>
	<path class="st10" d="M324.63,385.75c-1.07-5.75-3.22-11.2-7.48-21.87c-3.62-9.07-5.81-14.55-9.35-21.87
		c-5.17-10.69-8.89-18.4-14.96-26.56c-2.68-3.61-5.4-7.25-8.46-10.77c-10.09,8.03-27.54,13.34-47.39,13.34
		c-21.76,0-40.63-6.38-50.1-15.74c-4.58,5.91-10.17,15.35-17.46,31.91c-6.05,13.76-3.27,9.67-14.96,40.62
		c-8.09,21.41-10.79,26.98-7.48,34.37c3.04,6.79,10.13,10.78,24.31,18.75c12.59,7.08,25.39,14.28,44.87,17.19
		c16.28,2.43,29.31,0.68,33.65,0c13.92-2.17,25.57-6.87,31.79-9.37c14.63-5.9,14.96-7.81,24.31-9.37c4.76-0.8,10.77,0.16,16.83-3.12
		c1.69-0.92,5.61-1.94,5.61-4.69C328.37,413.87,326.41,395.34,324.63,385.75z"/>
	<g>
		<path class="st12" d="M236.39,224.08c0,0.72-0.33,1.08-1.34,3.6c-0.2,0.5-1.31,3.41-3.34,9.36c-1.59,4.69-2.39,7.03-3.01,10.08
			c-0.81,4.06-2,7.56-2,7.56c-0.13,0.02-0.27-0.03-2-1.8c-1.35-1.38-2-1.8-2-1.8s-0.67,0.36-1.67,1.08
			c-1.24,0.89-2.67,2.16-3.01,2.16c0,0,0.42-1.35,1-3.24c0.33-1.08,0.67-2.16,2-5.76c1.18-3.18,1.82-5.77,2.34-7.2
			c0.36-1.01,0.89-2.45,1.67-4.32c1.24-2.96,2.12-4.59,3.34-6.84c0.47-0.86,0.91-1.65,1.67-2.52c0.74-0.86,1.63-1.86,3.01-2.16
			c0.48-0.11,1.59-0.35,2.34,0.36C236.09,223.3,236.39,223.67,236.39,224.08z"/>
		<path class="st13" d="M228.47,230.56c0,0.72,0.36,1.08,1.44,3.6c0.21,0.5,1.42,3.41,3.6,9.36c1.72,4.69,2.58,7.03,3.24,10.08
			c0.88,4.06,2.16,7.56,2.16,7.56c0.14,0.02,0.29-0.03,2.16-1.8c1.45-1.38,2.16-1.8,2.16-1.8s0.72,0.36,1.8,1.08
			c1.34,0.89,2.88,2.16,3.24,2.16c0,0-0.45-1.35-1.08-3.24c-0.36-1.08-0.72-2.16-2.16-5.76c-1.27-3.18-1.96-5.77-2.52-7.2
			c-0.39-1.01-0.96-2.45-1.8-4.32c-1.33-2.96-2.28-4.59-3.6-6.84c-0.51-0.86-0.98-1.65-1.8-2.52c-0.8-0.86-1.76-1.86-3.24-2.16
			c-0.52-0.11-1.71-0.35-2.52,0.36C228.8,229.78,228.47,230.15,228.47,230.56z"/>
		<path class="st12" d="M213.34,220.84c0.42,0.78-0.07,1.2-0.36,3.24c-0.06,0.43-0.45,3.37,0.36,6.48c0.63,2.43,1.57,3.37,1.08,3.96
			c-0.29,0.35-0.82,0.29-3.96-0.36c-3.87-0.8-4.28-0.97-4.68-1.44c-0.48-0.56-0.56-1.82-0.72-4.32c-0.15-2.39,0-2.88,0-4.68
			c0-2.7,0.72-3.29,1.08-3.6c0.63-0.55,1.35-0.63,2.16-0.72C208.49,219.38,212.35,218.98,213.34,220.84z"/>
		<path class="st14" d="M225.95,223.72c-1.03,0.12-1.1,0.96-3.24,2.52c-1.63,1.19-3.08,1.8-3.96,2.16c-0.65,0.27-2.8,1.11-5.76,1.44
			c-1.94,0.22-2.89,0.22-3.96,0c-1.8-0.36-3.6-1.8-3.96-2.16c-0.09-0.09-0.14,0.22,0,1.44c0.14,1.25,0.21,1.87,0.36,2.52
			c0.26,1.16,0.49,2.14,1.08,3.24c0.41,0.75,1.11,2.05,2.52,2.88c1.2,0.71,2.29,0.71,4.32,0.72c2.53,0.01,4.42-0.53,5.04-0.72
			c1.3-0.4,2.19-0.87,3.96-1.8c1.58-0.83,3.39-1.6,5.04-2.88c2.28-1.77,2.69-1.58,2.88-2.88
			C230.64,227.62,228.04,223.47,225.95,223.72z"/>
		<path class="st13" d="M229.19,220.84c-0.38-0.45-0.29-0.66-2.52-2.16c-2.91-1.95-4.74-2.94-5.4-3.24
			c-1.81-0.82-3.28-1.46-5.04-1.8c-2.71-0.52-4.07-0.42-5.4,0c-2.41,0.75-3.67,2.88-4.32,3.96c-2.09,3.5-1.44,6.84-1.44,7.56
			c0,0.12,0.19-0.42,0.72-1.08c0.66-0.82,1.43-1.2,1.8-1.44c1.08-0.72,2-0.77,2.88-0.72c0.85,0.05,3.24,0.36,4.32,0.72
			c1.88,0.63,3.5,1.28,5.4,2.16c2.96,1.37,4.45,2.05,5.76,2.88c2.44,1.54,3.15,2.49,3.96,2.16c1.34-0.54,1.11-3.84,1.08-4.32
			C230.94,224.86,230.77,222.72,229.19,220.84z"/>
		<path class="st12" d="M250.38,221.2c-0.42,0.78,0.07,1.2,0.36,3.24c0.06,0.43,0.45,3.37-0.36,6.48c-0.63,2.43-1.57,3.37-1.08,3.96
			c0.29,0.35,0.82,0.29,3.96-0.36c3.87-0.8,4.28-0.97,4.68-1.44c0.48-0.56,0.56-1.82,0.72-4.32c0.15-2.39,0-2.88,0-4.68
			c0-2.7-0.72-3.29-1.08-3.6c-0.63-0.55-1.35-0.63-2.16-0.72C255.23,219.74,251.37,219.34,250.38,221.2z"/>
		<path class="st14" d="M237.77,224.08c1.03,0.12,1.1,0.96,3.24,2.52c1.63,1.19,3.08,1.8,3.96,2.16c0.65,0.27,2.8,1.11,5.76,1.44
			c1.94,0.22,2.89,0.22,3.96,0c1.8-0.36,3.6-1.8,3.96-2.16c0.09-0.09,0.14,0.22,0,1.44c-0.14,1.25-0.21,1.87-0.36,2.52
			c-0.26,1.16-0.49,2.14-1.08,3.24c-0.41,0.75-1.11,2.05-2.52,2.88c-1.2,0.71-2.29,0.71-4.32,0.72c-2.53,0.01-4.42-0.53-5.04-0.72
			c-1.3-0.4-2.19-0.87-3.96-1.8c-1.58-0.83-3.03-1.6-4.68-2.88c-2.28-1.77-1.19-3.38-1.38-4.68
			C234.94,226.18,235.68,223.83,237.77,224.08z"/>
		<path class="st13" d="M234.53,221.2c0.38-0.45,0.29-0.66,2.52-2.16c2.91-1.95,4.74-2.94,5.4-3.24c1.81-0.82,3.28-1.46,5.04-1.8
			c2.71-0.52,4.07-0.42,5.4,0c2.41,0.75,3.67,2.88,4.32,3.96c2.09,3.5,1.44,6.84,1.44,7.56c0,0.12-0.19-0.42-0.72-1.08
			c-0.66-0.82-1.43-1.2-1.8-1.44c-1.08-0.72-2-0.77-2.88-0.72c-0.85,0.05-3.24,0.36-4.32,0.72c-1.88,0.63-3.5,1.28-5.4,2.16
			c-2.96,1.37-4.45,2.05-5.76,2.88c-2.44,1.54-3.15,2.49-3.96,2.16c-1.34-0.54-1.11-3.84-1.08-4.32
			C232.78,225.22,232.95,223.08,234.53,221.2z"/>
		<polygon class="st15" points="235.67,220.12 228.83,220.12 227.75,225.16 228.83,232 235.67,232.36 237.47,226.24 		"/>
	</g>
	<path class="st2" d="M124.67,253.77L124.67,253.77c-4.87,4.43-5.23,12.04-0.8,16.9l45.39,49.88c4.43,4.87,12.04,5.23,16.9,0.8l0,0
		c4.87-4.43,5.23-12.04,0.8-16.9l-43.51-53.87C139.03,245.71,129.54,249.34,124.67,253.77z"/>
	<path class="st2" d="M189.14,322.37c1.18-0.16,1.7-0.12,2.18,0c2.23,0.56,3.21,0.86,4.35,2.18c2.17,2.52,2.18,4.35,2.18,6.53
		c0,2.28,1.76,2.17,2.18,2.18c0.97,0.02,1.9-1.16,2.18-2.18c0.13-0.48,0.06-3.91,0-4.35c-0.36-2.65-1.26-4.46-4.35-6.53
		c-1.43-0.95-2.13-1.36-2.18-2.18c-0.06-1.05,1.18-2.27,2.18-2.18c0.67,0.06,2.95,0.78,4.35,2.18c2.18,2.18,1.38,3.13,1.78,4.77
		c0.4,1.64,1.99,2.58,3.67,2.4c1.2-0.13,1.14-4.34,1.08-5c-0.16-1.81-1.08-3.26-2.18-4.35c-2.18-2.18-6.53-4.35-6.53-4.35
		c-0.61-0.61-0.46-1.83,0-2.18c0.38-0.28,1.56-0.39,4.82,1.75c2.72,1.78,2.96,2.78,3.88,2.6c1.03-0.2,2.2-1.11,2.18-2.18
		c-0.06-2.43-6.09-5.31-8.06-6.43c-3.36-1.9-4.37-1.84-7.17-2.28c-2.03-0.32-2.17,0.03-6.53,0c-5.47-0.04-5.49-1.32-6.3-0.72
		c-2.79,2.03,0.96,8.36-2.4,13.78c-0.96,1.54-2.13,2.46-2.18,4.35c-0.03,1.47-1.7,4.35,0,4.35
		C182.62,324.54,183.98,323.07,189.14,322.37z"/>
</g>
<g id="Layer_3">
	<ellipse class="st0" cx="235" cy="171.08" rx="43.51" ry="80.49"/>
	<path class="st1" d="M285.03,53.61c7.34,1.06,12.76,9.3,15.23,13.05c3.92,5.96,5.2,11.49,6.53,17.4
		c2.4,10.73,2.24,19.33,2.18,21.75c-0.42,16.59-0.62,24.88-2.18,47.86c-2.12,31.43-3.18,47.15-2.18,63.09
		c0.96,15.28,2.59,21.68-2.18,28.28c-7.58,10.51-24.98,12.74-36.98,10.88c-6.95-1.08-10.42-1.62-13.05-4.35
		c-9.86-10.23,7.01-31.87,10.88-71.79c1.2-12.37,0.66-21.44,0-32.63c-2.46-41.54-12.63-53.34-4.35-71.79
		C264.02,64.03,275.17,52.18,285.03,53.61z"/>
	<path class="st1" d="M206.72,34.03c-5.02-0.89-9.2,2.34-17.4,8.7c-4.57,3.54-11.89,9.34-17.4,19.58
		c-3.19,5.92-5.12,12.12-6.53,21.75c-2.55,17.46-0.92,29.45,0,43.51c1.38,21.03,0.59,37.55,0,50.04
		c-0.63,13.17-2.03,30.8,2.18,52.21c0.74,3.76,2.04,9.63,6.53,15.23c7.43,9.27,21.56,15.3,28.28,10.88
		c0.08-0.05,0.17-0.11,0.25-0.17c14.12-9.24,18.69-27.75,10.6-42.55c-6.88-12.6-14.44-35.07-8.68-68.23
		c8.7-50.04-7.76-64.45-2.18-69.62c6.9-6.38,14.85-7.03,17.4-15.23C222.88,50.14,215.88,35.66,206.72,34.03z"/>
	<g>
		<rect x="221.95" y="162.38" class="st2" width="26.11" height="34.81"/>
		<polygon class="st3" points="221.95,173.26 248.05,181.96 248.05,166.73 221.95,166.73 		"/>
	</g>
	<path class="st2" d="M244.13,168.91h-18.26c-21.3,0-38.73-17.43-38.73-38.73V90.16c0-21.3,17.43-38.73,38.73-38.73h18.26
		c21.3,0,38.73,17.43,38.73,38.73v40.02C282.86,151.48,265.43,168.91,244.13,168.91z"/>
	<circle class="st2" cx="180.61" cy="125.4" r="13.05"/>
	<circle class="st2" cx="287.21" cy="125.4" r="13.05"/>
	<g>
		<ellipse class="st4" cx="209.98" cy="117.78" rx="5.44" ry="7.61"/>
		<ellipse class="st4" cx="257.84" cy="117.78" rx="5.44" ry="7.61"/>
		<path class="st5" d="M217.57,136.27c-1.05,0-1.96,0.78-2.07,1.82c-0.14,1.31-0.13,2.93,0.31,4.7c1.16,4.65,4.51,7.22,6.46,8.7
			c1.71,1.31,6.34,4.74,12.92,4.35c5.44-0.32,9.1-3.06,10.76-4.35c2-1.55,5.31-4.1,6.46-8.7c0.44-1.76,0.45-3.37,0.31-4.67
			c-0.11-1.06-1.01-1.86-2.08-1.86h-17.61H217.57z"/>
		<path class="st6" d="M218.48,136.27c0.44,0.9,0.9,1.64,1.29,2.18c3.93,5.48,10.1,6.42,10.88,6.53c1.63,0.22,2.85,0.12,4.35,0
			c1.65-0.13,5.2-0.45,8.7-2.18c3.57-1.76,5.91-4.4,7.37-6.53H218.48z"/>
		<circle class="st7" cx="203.45" cy="135.19" r="7.61"/>
		<circle class="st7" cx="266.54" cy="135.19" r="7.61"/>
		<path class="st8" d="M198.01,107.99c2.18-2.18,4.35-4.35,8.46-4.35c2.98,0,5.96,0,8.94,0v-1.91c0-1.35-1.09-2.44-2.44-2.44h-6.81
			c-2.72,0-8.15,2.18-8.15,4.35C198.01,105.09,198.01,106.54,198.01,107.99z"/>
		<path class="st8" d="M267.63,107.99c-2.18-2.18-4.35-4.35-8.46-4.35c-2.98,0-5.96,0-8.94,0v-1.91c0-1.35,1.09-2.44,2.44-2.44h6.81
			c2.72,0,8.15,2.18,8.15,4.35C267.63,105.09,267.63,106.54,267.63,107.99z"/>
	</g>
	<path class="st1" d="M198.01,29.68c-2.46,2.46-6.53,10.01-6.53,15.23c0,8.7,0.13,10.84,2.18,17.4c0.72,2.33,3.85,10.37,8.7,15.23
		c4.35,4.35,10.56,7.45,13.05,8.7c4.35,2.18,5.19,2.46,10.88,4.35c6.53,2.18,13.75,3.61,15.23,4.35c4.35,2.18,10.88,2.18,15.23,2.18
		c6.94,0,8.7,0,15.23,0c4.35,0,17.36,1.22,23.93-6.53c5.98-7.04,3.81-17.92,2.18-26.11c-0.23-1.14-1.33-6.54-4.35-13.05
		c-2.74-5.92-5.71-9.83-6.53-10.88c-2.35-3.03-5.32-5.32-8.7-8.7c-2.18-2.18-6.26-4.99-10.88-6.53c-6.53-2.18-12.35-1.61-17.4-2.18
		c-1.63-0.18-0.82-0.02-17.4,0c-8.56,0.01-12.84,0-13.05,0c-6.53,0-7.48,0-10.88,0C204.54,23.15,200.19,27.5,198.01,29.68z"/>
	<path class="st2" d="M184.96,225.47c-1.71-5.96-3.04-14.22,0-21.75c1.64-4.06,3.79-6.03,4.35-6.53c2.16-1.9,3.6-2.01,10.88-4.35
		c7.42-2.38,7.44-2.76,13.05-4.35c3.56-1.01,5.75-1.63,8.7-2.18c10.42-1.93,19.22-0.85,23.93,0c3.11,0.56,5.24,1.18,8.7,2.18
		c7.02,2.02,12.72,4.32,17.4,6.53c7.82,3.68,11.76,5.59,13.05,8.7c1.65,3.97-0.21,7.77-2.18,13.05c-3.13,8.41-4.22,17.44-6.53,26.11
		c-7.07,26.53-0.16,33.45-6.53,39.16c-11.49,10.31-42.97-4.18-60.91-19.58C208.89,262.45,191.25,247.31,184.96,225.47z"/>
	<path class="st2" d="M126.78,272.58l-3.22-3.55c-3.65-4.03-3.34-10.31,0.69-13.96l51.18-48.61c3.9-3.71,8.32-6.85,13.16-9.2
		c8.82-4.29,11.9-3.72,14.8-0.51l3.22,3.55c3.65,4.03,10.65,12.82,6.62,16.47l-72.51,56.5
		C136.71,276.92,130.42,276.61,126.78,272.58z"/>
	<path class="st2" d="M324.19,284.21h-2.18c4.35,6.53-13.15,4.34-17.4-2.18l-41.94-60.37c-4.25-6.51-2.4-15.32,4.11-19.57l0,0
		c6.51-4.25,15.32-2.4,19.57,4.11l39.94,61.17C330.54,273.88,330.7,279.96,324.19,284.21z"/>
	<g>
		<path class="st2" d="M219.77,630.11h2.18c-7.78,0-4.35,1.25-9.2-2.49l-23.43-228.11c4.85-11.82,21.59-6.53,29.37-6.53h0
			c7.78,0,14.14,6.36,14.14,14.14v211.02C232.82,625.92,227.55,630.11,219.77,630.11z"/>
		<path class="st9" d="M176.26,647.51c-1.1,0.86-1.78,3.09-2.18,6.53c-0.28,2.46,0.75,5.02,2.18,6.53
			c5.39,5.71,17.81,0.16,23.93-2.18c9.2-3.5,15.68-8.09,19.58-10.88c7.05-5.05,5.11-5.12,13.05-10.88c3.38-2.44,6.53-3.49,6.53-6.53
			c0-2.18,0.97-7.87-2.18-10.88c-2.38-2.27-6.63-3.79-8.7-2.18c-2.93,2.28,2.01,8.09,0,13.05
			C223.92,641.33,187.7,638.58,176.26,647.51z"/>
		<path class="st10" d="M189.31,632.28c-0.7,0.35,1.82,0.6,4.35,2.18c2.26,1.41,3.5,3.16,4.35,4.35c3.96,5.58,1.97,9.31,4.35,10.88
			c2.58,1.71,8.97-2.49,21.75-10.88c2.85-1.87-0.28,0.1,8.7-6.53c4.73-3.49,6.34-4.58,6.53-6.53c0.33-3.41-1.82-6.3-2.18-6.53
			c-5.08-3.3-15.85-1.63-21.75,0c-5.09,1.4-8.7,4.35-13.05,6.53C194.96,629.46,193.66,630.11,189.31,632.28z"/>
		<path class="st2" d="M206.72,623.58c0.46-1.89,5.39-4.91,10.88-6.53c4.47-1.32,3.73-2.35,8.7-2.18
			c4.04,0.14,10.16,2.45,10.88,4.35c1.12,2.95-6.19,8.39-10.88,10.88c-3.39,1.8-5.48,2.09-6.53,2.18c-1.18,0.1-4.35,0-8.7-2.18
			C209.12,629.14,206,626.54,206.72,623.58z"/>
		<path class="st10" d="M189.31,632.28c-2.3,1.19-4.09,2.01-8.7,6.53c-5.45,5.34-5.09,5.44-6.53,8.7c-0.25,0.57-2.4,5.63,0,8.7
			c1.88,2.41,5.56,2.31,8.7,2.18c6.3-0.27,10.9-2.34,15.23-4.35c18.51-8.58,19.58-10.88,21.75-13.05c3.51-3.51-12.27-7.23-17.4-8.7
			C199.16,631.37,193.96,629.88,189.31,632.28z"/>
		<path class="st10" d="M208.89,621.41c3.45,0.52,5.31,5.47,6.53,6.53c5.49,4.75,20.34-5.11,21.75-6.53
			c2.18-2.18-8.66,17.67-21.75,17.4c-7.14-0.15-15.25-4.52-15.23-8.7c0.01-2.59-0.25,0.25,2.18-2.18
			C204.54,625.76,207.79,621.24,208.89,621.41z"/>
		<path class="st2" d="M202.32,625.76c1.48,1.64,3.7,3.5,6.5,3.52c1.14,0.01,1.92-0.29,2.17,0c0.58,0.69-2.26,4.12-6.5,5.28
			c-5.47,1.49-10.48-1.54-10.84-1.76c-1.01-0.63-1.72-1.28-2.17-1.76"/>
	</g>
	<g>
		<path class="st2" d="M307.24,625.14l-2.13,0.43c7.63-1.52,4.51,0.38,8.54-4.24l-18.41-232.74c-7.07-10.64-14.34-6.01-21.97-4.49h0
			c-7.63,1.52-22.39,12.14-20.87,19.77l39.7,212.1C293.62,623.59,299.62,626.66,307.24,625.14z"/>
		<path class="st9" d="M353.32,633.69c1.24,0.63,2.35,2.68,3.41,5.97c0.76,2.35,0.25,5.07-0.86,6.83
			c-4.17,6.66-17.43,3.64-23.89,2.55c-9.7-1.63-16.96-4.86-21.33-6.84c-7.9-3.57-6.01-4.03-14.93-8.11
			c-3.79-1.74-7.08-2.14-7.68-5.12c-0.43-2.13-2.49-7.53,0.01-11.09c1.89-2.69,5.76-5.01,8.11-3.84c3.32,1.66-0.39,8.33,2.55,12.8
			C305.37,636.95,340.35,627.18,353.32,633.69z"/>
		<path class="st10" d="M337.54,621.31c0.76,0.21-1.67,0.95-3.84,2.98c-1.94,1.82-2.82,3.78-3.42,5.12
			c-2.8,6.25-0.12,9.51-2.14,11.52c-2.2,2.18-9.29-0.68-23.46-6.41c-3.16-1.28,0.3,0.05-9.81-4.7c-5.32-2.5-7.11-3.25-7.68-5.12
			c-1-3.28,0.55-6.53,0.86-6.83c4.34-4.23,15.22-4.69,21.33-4.26c5.27,0.38,9.39,2.56,14.08,3.85
			C331.45,619.65,332.85,620.03,337.54,621.31z"/>
		<path class="st2" d="M318.77,616.19c-0.82-1.76-6.24-3.76-11.94-4.27c-4.64-0.42-4.11-1.57-8.96-0.43
			c-3.93,0.93-9.48,4.39-9.82,6.4c-0.52,3.11,7.72,7.02,12.8,8.54c3.68,1.1,5.78,0.98,6.83,0.86c1.17-0.13,4.27-0.85,8.11-3.84
			C317.5,622.1,320.05,618.95,318.77,616.19z"/>
		<path class="st10" d="M337.54,621.31c2.49,0.72,4.41,1.17,9.81,4.7c6.39,4.17,6.05,4.34,8.1,7.26c0.36,0.51,3.46,5.05,1.7,8.53
			c-1.38,2.73-5,3.35-8.11,3.84c-6.23,0.97-11.15-0.17-15.79-1.29c-19.83-4.79-21.33-6.84-23.89-8.54
			c-4.13-2.76,10.62-9.49,15.36-11.94C327.7,622.34,332.51,619.86,337.54,621.31z"/>
		<path class="st10" d="M316.21,614.48c-3.28,1.18-4.14,6.41-5.12,7.68c-4.45,5.73-20.94-1.03-22.61-2.14
			c-2.56-1.71,11.95,15.63,24.74,12.81c6.97-1.54,14.07-7.42,13.23-11.51c-0.52-2.53,0.3,0.2-2.56-1.71
			C321.33,617.89,317.26,614.1,316.21,614.48z"/>
		<path class="st2" d="M323.5,617.46c-1.13,1.89-2.94,4.16-5.69,4.72c-1.12,0.23-1.94,0.09-2.13,0.42c-0.44,0.79,3.02,3.6,7.41,3.91
			c5.65,0.39,9.98-3.56,10.28-3.85c0.87-0.82,1.43-1.6,1.78-2.15"/>
	</g>
	<g>
		<path class="st11" d="M254.58,188.49c1.57,0.94,14.53,10.99,14.38,12.64c-0.68,7.44-26.66,7.76-36.14,9.12
			c-6.07,0.87-32.89-0.85-32.89-7.76c0-1.9,10.58-14.3,14.21-15.56c0,0-48.05,12.86-45.34,19.62c2.93,7.33,5.35,8.85,10.15,14.77
			c3.38,4.17-5.19,14.3-4.74,25.15c5.41,24.36,27.07,97.44,12.86,129.92c-6.46,14.77,29.92-23.12,46.86-22.58
			c24.02,0.76,50.83,25.49,49.23,19.88c-7.31-25.59,3.04-93.11,12.18-115.04c2.19-5.26,2.4-12.58,2.71-18.27
			c0.36-6.75-2.71-10.83-4.06-18.27c0.27,1.49,3.27-1.62,1.91-20.56C295.8,200.04,254.58,188.49,254.58,188.49z"/>
		<g>
			<path class="st10" d="M239.35,227.65c-7.44,8.12-26.11,13.05,5.41-16.05l7.67-9.29c2.2-2.67,2.62-6.38,1.07-9.47l-3.27-6.53
				c7.44,0,12.64,0.6,16.7,1.96l0,0c4.6,2.09,2.25,7.82,2.71,12.86l10.15,12.86c-0.29,4.38-6.24,6.9-10.49,8.01l-14.63-3.32
				L239.35,227.65z"/>
			<path class="st10" d="M232.82,234.17c14.39,0.65-5.19-15.73-9.73-21.22l-6.62-8.02c-2.79-3.38-3.12-8.16-0.83-11.89l4.13-6.72
				c-7.44,0-14.79,1.96-18.85,3.31v0c-4.6,2.09-2.25,7.82-2.71,12.86l-8.8,15.56c0.29,4.38,6.24,6.9,10.49,8.01l13.27-6.02
				L232.82,234.17z"/>
		</g>
	</g>
	<path class="st10" d="M324.8,386.75c-1.07-5.75-3.22-11.2-7.48-21.87c-3.62-9.07-5.81-14.55-9.35-21.87
		c-5.17-10.69-8.89-18.4-14.96-26.56c-2.68-3.61-5.4-7.25-8.46-10.77c-10.09,8.03-27.54,13.34-47.39,13.34
		c-21.76,0-40.63-6.38-50.1-15.74c-4.58,5.91-10.17,15.35-17.46,31.91c-6.05,13.76-3.27,9.67-14.96,40.62
		c-8.09,21.41-10.79,26.98-7.48,34.37c3.04,6.79,10.13,10.78,24.31,18.75c12.59,7.08,25.39,14.28,44.87,17.19
		c16.28,2.43,29.31,0.68,33.65,0c13.92-2.17,25.57-6.87,31.79-9.37c14.63-5.9,14.96-7.81,24.31-9.37c4.76-0.8,10.77,0.16,16.83-3.12
		c1.69-0.92,5.61-1.94,5.61-4.69C328.54,414.87,326.58,396.34,324.8,386.75z"/>
	<g>
		<path class="st12" d="M236.56,225.08c0,0.72-0.33,1.08-1.34,3.6c-0.2,0.5-1.31,3.41-3.34,9.36c-1.59,4.69-2.39,7.03-3.01,10.08
			c-0.81,4.06-2,7.56-2,7.56c-0.13,0.02-0.27-0.03-2-1.8c-1.35-1.38-2-1.8-2-1.8s-0.67,0.36-1.67,1.08
			c-1.24,0.89-2.67,2.16-3.01,2.16c0,0,0.42-1.35,1-3.24c0.33-1.08,0.67-2.16,2-5.76c1.18-3.18,1.82-5.77,2.34-7.2
			c0.36-1.01,0.89-2.45,1.67-4.32c1.24-2.96,2.12-4.59,3.34-6.84c0.47-0.86,0.91-1.65,1.67-2.52c0.74-0.86,1.63-1.86,3.01-2.16
			c0.48-0.11,1.59-0.35,2.34,0.36C236.26,224.3,236.56,224.67,236.56,225.08z"/>
		<path class="st13" d="M228.64,231.56c0,0.72,0.36,1.08,1.44,3.6c0.21,0.5,1.42,3.41,3.6,9.36c1.72,4.69,2.58,7.03,3.24,10.08
			c0.88,4.06,2.16,7.56,2.16,7.56c0.14,0.02,0.29-0.03,2.16-1.8c1.45-1.38,2.16-1.8,2.16-1.8s0.72,0.36,1.8,1.08
			c1.34,0.89,2.88,2.16,3.24,2.16c0,0-0.45-1.35-1.08-3.24c-0.36-1.08-0.72-2.16-2.16-5.76c-1.27-3.18-1.96-5.77-2.52-7.2
			c-0.39-1.01-0.96-2.45-1.8-4.32c-1.33-2.96-2.28-4.59-3.6-6.84c-0.51-0.86-0.98-1.65-1.8-2.52c-0.8-0.86-1.76-1.86-3.24-2.16
			c-0.52-0.11-1.71-0.35-2.52,0.36C228.97,230.78,228.64,231.15,228.64,231.56z"/>
		<path class="st12" d="M213.51,221.84c0.42,0.78-0.07,1.2-0.36,3.24c-0.06,0.43-0.45,3.37,0.36,6.48c0.63,2.43,1.57,3.37,1.08,3.96
			c-0.29,0.35-0.82,0.29-3.96-0.36c-3.87-0.8-4.28-0.97-4.68-1.44c-0.48-0.56-0.56-1.82-0.72-4.32c-0.15-2.39,0-2.88,0-4.68
			c0-2.7,0.72-3.29,1.08-3.6c0.63-0.55,1.35-0.63,2.16-0.72C208.66,220.38,212.52,219.98,213.51,221.84z"/>
		<path class="st14" d="M226.12,224.72c-1.03,0.12-1.1,0.96-3.24,2.52c-1.63,1.19-3.08,1.8-3.96,2.16c-0.65,0.27-2.8,1.11-5.76,1.44
			c-1.94,0.22-2.89,0.22-3.96,0c-1.8-0.36-3.6-1.8-3.96-2.16c-0.09-0.09-0.14,0.22,0,1.44c0.14,1.25,0.21,1.87,0.36,2.52
			c0.26,1.16,0.49,2.14,1.08,3.24c0.41,0.75,1.11,2.05,2.52,2.88c1.2,0.71,2.29,0.71,4.32,0.72c2.53,0.01,4.42-0.53,5.04-0.72
			c1.3-0.4,2.19-0.87,3.96-1.8c1.58-0.83,3.39-1.6,5.04-2.88c2.28-1.77,2.69-1.58,2.88-2.88
			C230.81,228.62,228.21,224.47,226.12,224.72z"/>
		<path class="st13" d="M229.36,221.84c-0.38-0.45-0.29-0.66-2.52-2.16c-2.91-1.95-4.74-2.94-5.4-3.24
			c-1.81-0.82-3.28-1.46-5.04-1.8c-2.71-0.52-4.07-0.42-5.4,0c-2.41,0.75-3.67,2.88-4.32,3.96c-2.09,3.5-1.44,6.84-1.44,7.56
			c0,0.12,0.19-0.42,0.72-1.08c0.66-0.82,1.43-1.2,1.8-1.44c1.08-0.72,2-0.77,2.88-0.72c0.85,0.05,3.24,0.36,4.32,0.72
			c1.88,0.63,3.5,1.28,5.4,2.16c2.96,1.37,4.45,2.05,5.76,2.88c2.44,1.54,3.15,2.49,3.96,2.16c1.34-0.54,1.11-3.84,1.08-4.32
			C231.12,225.86,230.94,223.72,229.36,221.84z"/>
		<path class="st12" d="M250.55,222.2c-0.42,0.78,0.07,1.2,0.36,3.24c0.06,0.43,0.45,3.37-0.36,6.48c-0.63,2.43-1.57,3.37-1.08,3.96
			c0.29,0.35,0.82,0.29,3.96-0.36c3.87-0.8,4.28-0.97,4.68-1.44c0.48-0.56,0.56-1.82,0.72-4.32c0.15-2.39,0-2.88,0-4.68
			c0-2.7-0.72-3.29-1.08-3.6c-0.63-0.55-1.35-0.63-2.16-0.72C255.4,220.74,251.54,220.34,250.55,222.2z"/>
		<path class="st14" d="M237.94,225.08c1.03,0.12,1.1,0.96,3.24,2.52c1.63,1.19,3.08,1.8,3.96,2.16c0.65,0.27,2.8,1.11,5.76,1.44
			c1.94,0.22,2.89,0.22,3.96,0c1.8-0.36,3.6-1.8,3.96-2.16c0.09-0.09,0.14,0.22,0,1.44c-0.14,1.25-0.21,1.87-0.36,2.52
			c-0.26,1.16-0.49,2.14-1.08,3.24c-0.41,0.75-1.11,2.05-2.52,2.88c-1.2,0.71-2.29,0.71-4.32,0.72c-2.53,0.01-4.42-0.53-5.04-0.72
			c-1.3-0.4-2.19-0.87-3.96-1.8c-1.58-0.83-3.03-1.6-4.68-2.88c-2.28-1.77-1.19-3.38-1.38-4.68
			C235.11,227.18,235.86,224.83,237.94,225.08z"/>
		<path class="st13" d="M234.7,222.2c0.38-0.45,0.29-0.66,2.52-2.16c2.91-1.95,4.74-2.94,5.4-3.24c1.81-0.82,3.28-1.46,5.04-1.8
			c2.71-0.52,4.07-0.42,5.4,0c2.41,0.75,3.67,2.88,4.32,3.96c2.09,3.5,1.44,6.84,1.44,7.56c0,0.12-0.19-0.42-0.72-1.08
			c-0.66-0.82-1.43-1.2-1.8-1.44c-1.08-0.72-2-0.77-2.88-0.72c-0.85,0.05-3.24,0.36-4.32,0.72c-1.88,0.63-3.5,1.28-5.4,2.16
			c-2.96,1.37-4.45,2.05-5.76,2.88c-2.44,1.54-3.15,2.49-3.96,2.16c-1.34-0.54-1.11-3.84-1.08-4.32
			C232.95,226.22,233.12,224.08,234.7,222.2z"/>
		<polygon class="st15" points="235.84,221.12 229,221.12 227.92,226.16 229,233 235.84,233.36 237.64,227.24 		"/>
	</g>
	<path class="st2" d="M124.84,254.77L124.84,254.77c-4.87,4.43-5.23,12.04-0.8,16.9l45.39,49.88c4.43,4.87,12.04,5.23,16.9,0.8l0,0
		c4.87-4.43,5.23-12.04,0.8-16.9l-43.51-53.87C139.2,246.71,129.71,250.34,124.84,254.77z"/>
	<path class="st2" d="M189.31,323.37c1.18-0.16,1.7-0.12,2.18,0c2.23,0.56,3.21,0.86,4.35,2.18c2.17,2.52,2.18,4.35,2.18,6.53
		c0,2.28,1.76,2.17,2.18,2.18c0.97,0.02,1.9-1.16,2.18-2.18c0.13-0.48,0.06-3.91,0-4.35c-0.36-2.65-1.26-4.46-4.35-6.53
		c-1.43-0.95-2.13-1.36-2.18-2.18c-0.06-1.05,1.18-2.27,2.18-2.18c0.67,0.06,2.95,0.78,4.35,2.18c2.18,2.18,1.38,3.13,1.78,4.77
		c0.4,1.64,1.99,2.58,3.67,2.4c1.2-0.13,1.14-4.34,1.08-5c-0.16-1.81-1.08-3.26-2.18-4.35c-2.18-2.18-6.53-4.35-6.53-4.35
		c-0.61-0.61-0.46-1.83,0-2.18c0.38-0.28,1.56-0.39,4.82,1.75c2.72,1.78,2.96,2.78,3.88,2.6c1.03-0.2,2.2-1.11,2.18-2.18
		c-0.06-2.43-6.09-5.31-8.06-6.43c-3.36-1.9-4.37-1.84-7.17-2.28c-2.03-0.32-2.17,0.03-6.53,0c-5.47-0.04-5.49-1.32-6.3-0.72
		c-2.79,2.03,0.96,8.36-2.4,13.78c-0.96,1.54-2.13,2.46-2.18,4.35c-0.03,1.47-1.7,4.35,0,4.35
		C182.79,325.54,184.15,324.07,189.31,323.37z"/>
	<g>
		<path class="st2" d="M321.66,289.38l7.65-1.59c4.79-0.99,7.9-5.72,6.9-10.51l-15.86-76.52c-0.99-4.79-5.72-7.9-10.51-6.9
			l-7.65,1.59c-4.79,0.99-7.9,5.72-6.9,10.51l15.86,76.52C312.14,287.26,316.87,290.37,321.66,289.38z"/>
		<path class="st2" d="M301.39,207.38c-1.53,1.54-4.43,1.16-6.46-0.85l-11.05-10.95c-2.03-2.01-2.44-4.91-0.91-6.45
			c1.53-1.54,4.43-1.16,6.46,0.85l11.05,10.95C302.51,202.93,302.92,205.84,301.39,207.38z"/>
		<path class="st2" d="M295.61,198.01c-0.3-0.45-0.68-1.27-0.03-6.15c0.51-3.77,0.76-5.66,1.5-7.7c1.27-3.48,3.03-5.74,4.58-7.71
			c4.65-5.95,5.65-6.22,6.12-6.18c1.47,0.12,2.88,1.62,3.09,3.06c0.22,1.52-1.48,4.44-3.05,6.17c-1.51,1.66-2.12,1.65-3.06,3.09
			c-1.02,1.56-0.5,4.95-0.67,6.43c-0.85,7.15,0.95,8.74-0.78,10.5C301.67,201.16,297.15,200.37,295.61,198.01z"/>
		<path class="st2" d="M306.32,187.19c0.32-1.65,0.58-3.02,1.52-4.62c1.64-2.81,3.18-2.61,6.12-6.18c1.63-1.98,1.99-3.04,3.06-3.09
			c1.34-0.06,2.74,1.51,3.09,3.06c0.41,1.83-0.68,3.42-1.52,4.62c-1.12,1.62-1.82,1.72-3.06,3.09c-1.55,1.71-2.12,3.4-3.05,6.17
			c-1.41,4.21,0.08,6.63-1.5,7.7c-0.88,0.6-2.2,0.5-3.08,0.02C304.6,196.14,306.13,188.22,306.32,187.19z"/>
		<path class="st2" d="M313.29,191.09c0.24-1.35,2.63-3.8,3.79-5.49c0.82-1.2,1.28-1.16,3.06-3.09c2.01-2.18,2.16-3.02,3.06-3.09
			c1.29-0.1,2.74,1.48,3.09,3.06c0.43,1.93-0.8,3.64-1.52,4.62c-1.2,1.66-2.01,1.62-3.06,3.09c-0.27,0.38-1.11,1.62-1.52,4.62
			c-0.76,5.62,1.29,7.92,0.05,9.23c-1.72,1.82-8.26,0.15-9.24-3.03C310.14,198.19,312.13,197.55,313.29,191.09z"/>
		<path class="st2" d="M318.64,190.21c-0.51-1.11,0.6-0.66-1.12-1.96c-1.52-1.15-5.4-3.69-8.14-4.14c-0.63-0.1-6.64-1.67-9.56,0.7
			c-4.03,3.27-2.8,12.37,1.95,16.26c3.66,3,9,2.18,12.31-0.06C317.75,198.51,320.13,193.45,318.64,190.21z"/>
	</g>
</g>
<g id="Layer_4">
	<ellipse class="st0" cx="235" cy="169.08" rx="43.51" ry="80.49"/>
	<path class="st1" d="M285.03,51.61c7.34,1.06,12.76,9.3,15.23,13.05c3.92,5.96,5.2,11.49,6.53,17.4
		c2.4,10.73,2.24,19.33,2.18,21.75c-0.42,16.59-0.62,24.88-2.18,47.86c-2.12,31.43-3.18,47.15-2.18,63.09
		c0.96,15.28,2.59,21.68-2.18,28.28c-7.58,10.51-24.98,12.74-36.98,10.88c-6.95-1.08-10.42-1.62-13.05-4.35
		c-9.86-10.23,7.01-31.87,10.88-71.79c1.2-12.37,0.66-21.44,0-32.63c-2.46-41.54-12.63-53.34-4.35-71.79
		C264.02,62.03,275.17,50.18,285.03,51.61z"/>
	<path class="st1" d="M206.72,32.03c-5.02-0.89-9.2,2.34-17.4,8.7c-4.57,3.54-11.89,9.34-17.4,19.58
		c-3.19,5.92-5.12,12.12-6.53,21.75c-2.55,17.46-0.92,29.45,0,43.51c1.38,21.03,0.59,37.55,0,50.04
		c-0.63,13.17-2.03,30.8,2.18,52.21c0.74,3.76,2.04,9.63,6.53,15.23c7.43,9.27,21.56,15.3,28.28,10.88
		c0.08-0.05,0.17-0.11,0.25-0.17c14.12-9.24,18.69-27.75,10.6-42.55c-6.88-12.6-14.44-35.07-8.68-68.23
		c8.7-50.04-7.76-64.45-2.18-69.62c6.9-6.38,14.85-7.03,17.4-15.23C222.88,48.14,215.88,33.66,206.72,32.03z"/>
	<g>
		<rect x="221.95" y="160.38" class="st2" width="26.11" height="34.81"/>
		<polygon class="st3" points="221.95,171.26 248.05,179.96 248.05,164.73 221.95,164.73 		"/>
	</g>
	<path class="st2" d="M244.13,166.91h-18.26c-21.3,0-38.73-17.43-38.73-38.73V88.16c0-21.3,17.43-38.73,38.73-38.73h18.26
		c21.3,0,38.73,17.43,38.73,38.73v40.02C282.86,149.48,265.43,166.91,244.13,166.91z"/>
	<circle class="st2" cx="180.61" cy="123.4" r="13.05"/>
	<circle class="st2" cx="287.21" cy="123.4" r="13.05"/>
	<g>
		<ellipse class="st4" cx="209.98" cy="115.78" rx="5.44" ry="7.61"/>
		<ellipse class="st4" cx="257.84" cy="115.78" rx="5.44" ry="7.61"/>
		<path class="st5" d="M217.57,134.27c-1.05,0-1.96,0.78-2.07,1.82c-0.14,1.31-0.13,2.93,0.31,4.7c1.16,4.65,4.51,7.22,6.46,8.7
			c1.71,1.31,6.34,4.74,12.92,4.35c5.44-0.32,9.1-3.06,10.76-4.35c2-1.55,5.31-4.1,6.46-8.7c0.44-1.76,0.45-3.37,0.31-4.67
			c-0.11-1.06-1.01-1.86-2.08-1.86h-17.61H217.57z"/>
		<path class="st6" d="M218.48,134.27c0.44,0.9,0.9,1.64,1.29,2.18c3.93,5.48,10.1,6.42,10.88,6.53c1.63,0.22,2.85,0.12,4.35,0
			c1.65-0.13,5.2-0.45,8.7-2.18c3.57-1.76,5.91-4.4,7.37-6.53H218.48z"/>
		<circle class="st7" cx="203.45" cy="133.19" r="7.61"/>
		<circle class="st7" cx="266.54" cy="133.19" r="7.61"/>
		<path class="st8" d="M198.01,105.99c2.18-2.18,4.35-4.35,8.46-4.35c2.98,0,5.96,0,8.94,0v-1.91c0-1.35-1.09-2.44-2.44-2.44h-6.81
			c-2.72,0-8.15,2.18-8.15,4.35C198.01,103.09,198.01,104.54,198.01,105.99z"/>
		<path class="st8" d="M267.63,105.99c-2.18-2.18-4.35-4.35-8.46-4.35c-2.98,0-5.96,0-8.94,0v-1.91c0-1.35,1.09-2.44,2.44-2.44h6.81
			c2.72,0,8.15,2.18,8.15,4.35C267.63,103.09,267.63,104.54,267.63,105.99z"/>
	</g>
	<path class="st1" d="M198.01,27.68c-2.46,2.46-6.53,10.01-6.53,15.23c0,8.7,0.13,10.84,2.18,17.4c0.72,2.33,3.85,10.37,8.7,15.23
		c4.35,4.35,10.56,7.45,13.05,8.7c4.35,2.18,5.19,2.46,10.88,4.35c6.53,2.18,13.75,3.61,15.23,4.35c4.35,2.18,10.88,2.18,15.23,2.18
		c6.94,0,8.7,0,15.23,0c4.35,0,17.36,1.22,23.93-6.53c5.98-7.04,3.81-17.92,2.18-26.11c-0.23-1.14-1.33-6.54-4.35-13.05
		c-2.74-5.92-5.71-9.83-6.53-10.88c-2.35-3.03-5.32-5.32-8.7-8.7c-2.18-2.18-6.26-4.99-10.88-6.53c-6.53-2.18-12.35-1.61-17.4-2.18
		c-1.63-0.18-0.82-0.02-17.4,0c-8.56,0.01-12.84,0-13.05,0c-6.53,0-7.48,0-10.88,0C204.54,21.15,200.19,25.5,198.01,27.68z"/>
	<path class="st2" d="M184.96,223.47c-1.71-5.96-3.04-14.22,0-21.75c1.64-4.06,3.79-6.03,4.35-6.53c2.16-1.9,3.6-2.01,10.88-4.35
		c7.42-2.38,7.44-2.76,13.05-4.35c3.56-1.01,5.75-1.63,8.7-2.18c10.42-1.93,19.22-0.85,23.93,0c3.11,0.56,5.24,1.18,8.7,2.18
		c7.02,2.02,12.72,4.32,17.4,6.53c7.82,3.68,11.76,5.59,13.05,8.7c1.65,3.97-0.21,7.77-2.18,13.05c-3.13,8.41-4.22,17.44-6.53,26.11
		c-7.07,26.53-0.16,33.45-6.53,39.16c-11.49,10.31-42.97-4.18-60.91-19.58C208.89,260.45,191.25,245.31,184.96,223.47z"/>
	<path class="st2" d="M126.78,270.58l-3.22-3.55c-3.65-4.03-3.34-10.31,0.69-13.96l51.18-48.61c3.9-3.71,8.32-6.85,13.16-9.2
		c8.82-4.29,11.9-3.72,14.8-0.51l3.22,3.55c3.65,4.03,10.65,12.82,6.62,16.47l-72.51,56.5
		C136.71,274.92,130.42,274.61,126.78,270.58z"/>
	<path class="st2" d="M324.19,282.21h-2.18c4.35,6.53-13.15,4.34-17.4-2.18l-41.94-60.37c-4.25-6.51-2.4-15.32,4.11-19.57l0,0
		c6.51-4.25,15.32-2.4,19.57,4.11l39.94,61.17C330.54,271.88,330.7,277.96,324.19,282.21z"/>
	<path class="st2" d="M314.56,288.24l7.38,2.57c4.62,1.61,9.71-0.86,11.32-5.48l25.68-73.81c1.61-4.62-0.86-9.71-5.48-11.32
		l-7.38-2.57c-4.62-1.61-9.71,0.86-11.32,5.48l-25.68,73.81C307.47,281.54,309.94,286.64,314.56,288.24z"/>
	<path class="st2" d="M339.26,207.47c-2.1,0.54-4.4-1.28-5.11-4.04l-3.87-15.07c-0.71-2.76,0.43-5.46,2.53-6
		c2.1-0.54,4.4,1.28,5.11,4.04l3.87,15.07C342.5,204.23,341.37,206.93,339.26,207.47z"/>
	<path class="st2" d="M339.11,196.46c-0.02-0.54,0.06-1.44,3.13-5.3c2.37-2.98,3.56-4.47,5.24-5.84c2.88-2.34,5.55-3.37,7.89-4.27
		c7.05-2.72,8.04-2.44,8.43-2.16c1.2,0.86,1.64,2.87,1.08,4.21c-0.59,1.42-3.55,3.05-5.78,3.73c-2.15,0.65-2.66,0.33-4.21,1.08
		c-1.68,0.81-2.97,4-3.88,5.18c-4.4,5.7-3.67,7.99-6.06,8.6C342.69,202.28,339.23,199.28,339.11,196.46z"/>
	<path class="st2" d="M353.86,192.68c1.12-1.25,2.05-2.29,3.67-3.19c2.85-1.57,4.07-0.61,8.43-2.16c2.41-0.86,3.27-1.59,4.21-1.08
		c1.18,0.64,1.58,2.7,1.08,4.21c-0.58,1.78-2.34,2.58-3.67,3.19c-1.79,0.82-2.45,0.54-4.21,1.08c-2.21,0.67-3.56,1.83-5.78,3.73
		c-3.37,2.89-3.34,5.73-5.24,5.84c-1.06,0.06-2.14-0.7-2.65-1.57C347.78,199.47,353.16,193.46,353.86,192.68z"/>
	<path class="st2" d="M357.84,199.61c0.9-1.03,4.2-1.91,6.07-2.77c1.32-0.61,1.69-0.34,4.21-1.08c2.85-0.84,3.4-1.48,4.21-1.08
		c1.16,0.58,1.59,2.68,1.08,4.21c-0.62,1.88-2.55,2.71-3.67,3.19c-1.89,0.81-2.55,0.36-4.21,1.08c-0.42,0.18-1.79,0.82-3.67,3.19
		c-3.54,4.43-2.96,7.46-4.7,7.94c-2.41,0.67-7.17-4.11-6.38-7.35C351.48,204.08,353.52,204.55,357.84,199.61z"/>
	<path class="st2" d="M362.88,201.59c0.13-1.21,0.85-0.26,0.05-2.26c-0.71-1.76-2.74-5.94-4.86-7.73c-0.49-0.42-4.84-4.84-8.56-4.31
		c-5.13,0.73-8.75,9.18-6.68,14.96c1.6,4.45,6.6,6.49,10.59,6.27C357.85,208.26,362.5,205.14,362.88,201.59z"/>
	<g>
		<path class="st2" d="M219.77,628.11h2.18c-7.78,0-4.35,1.25-9.2-2.49l-23.43-228.11c4.85-11.82,21.59-6.53,29.37-6.53h0
			c7.78,0,14.14,6.36,14.14,14.14v211.02C232.82,623.92,227.55,628.11,219.77,628.11z"/>
		<path class="st9" d="M176.26,645.51c-1.1,0.86-1.78,3.09-2.18,6.53c-0.28,2.46,0.75,5.02,2.18,6.53
			c5.39,5.71,17.81,0.16,23.93-2.18c9.2-3.5,15.68-8.09,19.58-10.88c7.05-5.05,5.11-5.12,13.05-10.88c3.38-2.44,6.53-3.49,6.53-6.53
			c0-2.18,0.97-7.87-2.18-10.88c-2.38-2.27-6.63-3.79-8.7-2.18c-2.93,2.28,2.01,8.09,0,13.05
			C223.92,639.33,187.7,636.58,176.26,645.51z"/>
		<path class="st10" d="M189.31,630.28c-0.7,0.35,1.82,0.6,4.35,2.18c2.26,1.41,3.5,3.16,4.35,4.35c3.96,5.58,1.97,9.31,4.35,10.88
			c2.58,1.71,8.97-2.49,21.75-10.88c2.85-1.87-0.28,0.1,8.7-6.53c4.73-3.49,6.34-4.58,6.53-6.53c0.33-3.41-1.82-6.3-2.18-6.53
			c-5.08-3.3-15.85-1.63-21.75,0c-5.09,1.4-8.7,4.35-13.05,6.53C194.96,627.46,193.66,628.11,189.31,630.28z"/>
		<path class="st2" d="M206.72,621.58c0.46-1.89,5.39-4.91,10.88-6.53c4.47-1.32,3.73-2.35,8.7-2.18
			c4.04,0.14,10.16,2.45,10.88,4.35c1.12,2.95-6.19,8.39-10.88,10.88c-3.39,1.8-5.48,2.09-6.53,2.18c-1.18,0.1-4.35,0-8.7-2.18
			C209.12,627.14,206,624.54,206.72,621.58z"/>
		<path class="st10" d="M189.31,630.28c-2.3,1.19-4.09,2.01-8.7,6.53c-5.45,5.34-5.09,5.44-6.53,8.7c-0.25,0.57-2.4,5.63,0,8.7
			c1.88,2.41,5.56,2.31,8.7,2.18c6.3-0.27,10.9-2.34,15.23-4.35c18.51-8.58,19.58-10.88,21.75-13.05c3.51-3.51-12.27-7.23-17.4-8.7
			C199.16,629.37,193.96,627.88,189.31,630.28z"/>
		<path class="st10" d="M208.89,619.41c3.45,0.52,5.31,5.47,6.53,6.53c5.49,4.75,20.34-5.11,21.75-6.53
			c2.18-2.18-8.66,17.67-21.75,17.4c-7.14-0.15-15.25-4.52-15.23-8.7c0.01-2.59-0.25,0.25,2.18-2.18
			C204.54,623.76,207.79,619.24,208.89,619.41z"/>
		<path class="st2" d="M202.32,623.76c1.48,1.64,3.7,3.5,6.5,3.52c1.14,0.01,1.92-0.29,2.17,0c0.58,0.69-2.26,4.12-6.5,5.28
			c-5.47,1.49-10.48-1.54-10.84-1.76c-1.01-0.63-1.72-1.28-2.17-1.76"/>
	</g>
	<g>
		<path class="st2" d="M307.24,623.14l-2.13,0.43c7.63-1.52,4.51,0.38,8.54-4.24l-18.41-232.74c-7.07-10.64-14.34-6.01-21.97-4.49h0
			c-7.63,1.52-22.39,12.14-20.87,19.77l39.7,212.1C293.62,621.59,299.62,624.66,307.24,623.14z"/>
		<path class="st9" d="M353.32,631.69c1.24,0.63,2.35,2.68,3.41,5.97c0.76,2.35,0.25,5.07-0.86,6.83
			c-4.17,6.66-17.43,3.64-23.89,2.55c-9.7-1.63-16.96-4.86-21.33-6.84c-7.9-3.57-6.01-4.03-14.93-8.11
			c-3.79-1.74-7.08-2.14-7.68-5.12c-0.43-2.13-2.49-7.53,0.01-11.09c1.89-2.69,5.76-5.01,8.11-3.84c3.32,1.66-0.39,8.33,2.55,12.8
			C305.37,634.95,340.35,625.18,353.32,631.69z"/>
		<path class="st10" d="M337.54,619.31c0.76,0.21-1.67,0.95-3.84,2.98c-1.94,1.82-2.82,3.78-3.42,5.12
			c-2.8,6.25-0.12,9.51-2.14,11.52c-2.2,2.18-9.29-0.68-23.46-6.41c-3.16-1.28,0.3,0.05-9.81-4.7c-5.32-2.5-7.11-3.25-7.68-5.12
			c-1-3.28,0.55-6.53,0.86-6.83c4.34-4.23,15.22-4.69,21.33-4.26c5.27,0.38,9.39,2.56,14.08,3.85
			C331.45,617.65,332.85,618.03,337.54,619.31z"/>
		<path class="st2" d="M318.77,614.19c-0.82-1.76-6.24-3.76-11.94-4.27c-4.64-0.42-4.11-1.57-8.96-0.43
			c-3.93,0.93-9.48,4.39-9.82,6.4c-0.52,3.11,7.72,7.02,12.8,8.54c3.68,1.1,5.78,0.98,6.83,0.86c1.17-0.13,4.27-0.85,8.11-3.84
			C317.5,620.1,320.05,616.95,318.77,614.19z"/>
		<path class="st10" d="M337.54,619.31c2.49,0.72,4.41,1.17,9.81,4.7c6.39,4.17,6.05,4.34,8.1,7.26c0.36,0.51,3.46,5.05,1.7,8.53
			c-1.38,2.73-5,3.35-8.11,3.84c-6.23,0.97-11.15-0.17-15.79-1.29c-19.83-4.79-21.33-6.84-23.89-8.54
			c-4.13-2.76,10.62-9.49,15.36-11.94C327.7,620.34,332.51,617.86,337.54,619.31z"/>
		<path class="st10" d="M316.21,612.48c-3.28,1.18-4.14,6.41-5.12,7.68c-4.45,5.73-20.94-1.03-22.61-2.14
			c-2.56-1.71,11.95,15.63,24.74,12.81c6.97-1.54,14.07-7.42,13.23-11.51c-0.52-2.53,0.3,0.2-2.56-1.71
			C321.33,615.89,317.26,612.1,316.21,612.48z"/>
		<path class="st2" d="M323.5,615.46c-1.13,1.89-2.94,4.16-5.69,4.72c-1.12,0.23-1.94,0.09-2.13,0.42c-0.44,0.79,3.02,3.6,7.41,3.91
			c5.65,0.39,9.98-3.56,10.28-3.85c0.87-0.82,1.43-1.6,1.78-2.15"/>
	</g>
	<g>
		<path class="st11" d="M254.58,186.49c1.57,0.94,14.53,10.99,14.38,12.64c-0.68,7.44-26.66,7.76-36.14,9.12
			c-6.07,0.87-32.89-0.85-32.89-7.76c0-1.9,10.58-14.3,14.21-15.56c0,0-48.05,12.86-45.34,19.62c2.93,7.33,5.35,8.85,10.15,14.77
			c3.38,4.17-5.19,14.3-4.74,25.15c5.41,24.36,27.07,97.44,12.86,129.92c-6.46,14.77,29.92-23.12,46.86-22.58
			c24.02,0.76,50.83,25.49,49.23,19.88c-7.31-25.59,3.04-93.11,12.18-115.04c2.19-5.26,2.4-12.58,2.71-18.27
			c0.36-6.75-2.71-10.83-4.06-18.27c0.27,1.49,3.27-1.62,1.91-20.56C295.8,198.04,254.58,186.49,254.58,186.49z"/>
		<g>
			<path class="st10" d="M239.35,225.65c-7.44,8.12-26.11,13.05,5.41-16.05l7.67-9.29c2.2-2.67,2.62-6.38,1.07-9.47l-3.27-6.53
				c7.44,0,12.64,0.6,16.7,1.96l0,0c4.6,2.09,2.25,7.82,2.71,12.86l10.15,12.86c-0.29,4.38-6.24,6.9-10.49,8.01l-14.63-3.32
				L239.35,225.65z"/>
			<path class="st10" d="M232.82,232.17c14.39,0.65-5.19-15.73-9.73-21.22l-6.62-8.02c-2.79-3.38-3.12-8.16-0.83-11.89l4.13-6.72
				c-7.44,0-14.79,1.96-18.85,3.31v0c-4.6,2.09-2.25,7.82-2.71,12.86l-8.8,15.56c0.29,4.38,6.24,6.9,10.49,8.01l13.27-6.02
				L232.82,232.17z"/>
		</g>
	</g>
	<path class="st10" d="M324.8,384.75c-1.07-5.75-3.22-11.2-7.48-21.87c-3.62-9.07-5.81-14.55-9.35-21.87
		c-5.17-10.69-8.89-18.4-14.96-26.56c-2.68-3.61-5.4-7.25-8.46-10.77c-10.09,8.03-27.54,13.34-47.39,13.34
		c-21.76,0-40.63-6.38-50.1-15.74c-4.58,5.91-10.17,15.35-17.46,31.91c-6.05,13.76-3.27,9.67-14.96,40.62
		c-8.09,21.41-10.79,26.98-7.48,34.37c3.04,6.79,10.13,10.78,24.31,18.75c12.59,7.08,25.39,14.28,44.87,17.19
		c16.28,2.43,29.31,0.68,33.65,0c13.92-2.17,25.57-6.87,31.79-9.37c14.63-5.9,14.96-7.81,24.31-9.37c4.76-0.8,10.77,0.16,16.83-3.12
		c1.69-0.92,5.61-1.94,5.61-4.69C328.54,412.87,326.58,394.34,324.8,384.75z"/>
	<g>
		<path class="st12" d="M236.56,223.08c0,0.72-0.33,1.08-1.34,3.6c-0.2,0.5-1.31,3.41-3.34,9.36c-1.59,4.69-2.39,7.03-3.01,10.08
			c-0.81,4.06-2,7.56-2,7.56c-0.13,0.02-0.27-0.03-2-1.8c-1.35-1.38-2-1.8-2-1.8s-0.67,0.36-1.67,1.08
			c-1.24,0.89-2.67,2.16-3.01,2.16c0,0,0.42-1.35,1-3.24c0.33-1.08,0.67-2.16,2-5.76c1.18-3.18,1.82-5.77,2.34-7.2
			c0.36-1.01,0.89-2.45,1.67-4.32c1.24-2.96,2.12-4.59,3.34-6.84c0.47-0.86,0.91-1.65,1.67-2.52c0.74-0.86,1.63-1.86,3.01-2.16
			c0.48-0.11,1.59-0.35,2.34,0.36C236.26,222.3,236.56,222.67,236.56,223.08z"/>
		<path class="st13" d="M228.64,229.56c0,0.72,0.36,1.08,1.44,3.6c0.21,0.5,1.42,3.41,3.6,9.36c1.72,4.69,2.58,7.03,3.24,10.08
			c0.88,4.06,2.16,7.56,2.16,7.56c0.14,0.02,0.29-0.03,2.16-1.8c1.45-1.38,2.16-1.8,2.16-1.8s0.72,0.36,1.8,1.08
			c1.34,0.89,2.88,2.16,3.24,2.16c0,0-0.45-1.35-1.08-3.24c-0.36-1.08-0.72-2.16-2.16-5.76c-1.27-3.18-1.96-5.77-2.52-7.2
			c-0.39-1.01-0.96-2.45-1.8-4.32c-1.33-2.96-2.28-4.59-3.6-6.84c-0.51-0.86-0.98-1.65-1.8-2.52c-0.8-0.86-1.76-1.86-3.24-2.16
			c-0.52-0.11-1.71-0.35-2.52,0.36C228.97,228.78,228.64,229.15,228.64,229.56z"/>
		<path class="st12" d="M213.51,219.84c0.42,0.78-0.07,1.2-0.36,3.24c-0.06,0.43-0.45,3.37,0.36,6.48c0.63,2.43,1.57,3.37,1.08,3.96
			c-0.29,0.35-0.82,0.29-3.96-0.36c-3.87-0.8-4.28-0.97-4.68-1.44c-0.48-0.56-0.56-1.82-0.72-4.32c-0.15-2.39,0-2.88,0-4.68
			c0-2.7,0.72-3.29,1.08-3.6c0.63-0.55,1.35-0.63,2.16-0.72C208.66,218.38,212.52,217.98,213.51,219.84z"/>
		<path class="st14" d="M226.12,222.72c-1.03,0.12-1.1,0.96-3.24,2.52c-1.63,1.19-3.08,1.8-3.96,2.16c-0.65,0.27-2.8,1.11-5.76,1.44
			c-1.94,0.22-2.89,0.22-3.96,0c-1.8-0.36-3.6-1.8-3.96-2.16c-0.09-0.09-0.14,0.22,0,1.44c0.14,1.25,0.21,1.87,0.36,2.52
			c0.26,1.16,0.49,2.14,1.08,3.24c0.41,0.75,1.11,2.05,2.52,2.88c1.2,0.71,2.29,0.71,4.32,0.72c2.53,0.01,4.42-0.53,5.04-0.72
			c1.3-0.4,2.19-0.87,3.96-1.8c1.58-0.83,3.39-1.6,5.04-2.88c2.28-1.77,2.69-1.58,2.88-2.88
			C230.81,226.62,228.21,222.47,226.12,222.72z"/>
		<path class="st13" d="M229.36,219.84c-0.38-0.45-0.29-0.66-2.52-2.16c-2.91-1.95-4.74-2.94-5.4-3.24
			c-1.81-0.82-3.28-1.46-5.04-1.8c-2.71-0.52-4.07-0.42-5.4,0c-2.41,0.75-3.67,2.88-4.32,3.96c-2.09,3.5-1.44,6.84-1.44,7.56
			c0,0.12,0.19-0.42,0.72-1.08c0.66-0.82,1.43-1.2,1.8-1.44c1.08-0.72,2-0.77,2.88-0.72c0.85,0.05,3.24,0.36,4.32,0.72
			c1.88,0.63,3.5,1.28,5.4,2.16c2.96,1.37,4.45,2.05,5.76,2.88c2.44,1.54,3.15,2.49,3.96,2.16c1.34-0.54,1.11-3.84,1.08-4.32
			C231.12,223.86,230.94,221.72,229.36,219.84z"/>
		<path class="st12" d="M250.55,220.2c-0.42,0.78,0.07,1.2,0.36,3.24c0.06,0.43,0.45,3.37-0.36,6.48c-0.63,2.43-1.57,3.37-1.08,3.96
			c0.29,0.35,0.82,0.29,3.96-0.36c3.87-0.8,4.28-0.97,4.68-1.44c0.48-0.56,0.56-1.82,0.72-4.32c0.15-2.39,0-2.88,0-4.68
			c0-2.7-0.72-3.29-1.08-3.6c-0.63-0.55-1.35-0.63-2.16-0.72C255.4,218.74,251.54,218.34,250.55,220.2z"/>
		<path class="st14" d="M237.94,223.08c1.03,0.12,1.1,0.96,3.24,2.52c1.63,1.19,3.08,1.8,3.96,2.16c0.65,0.27,2.8,1.11,5.76,1.44
			c1.94,0.22,2.89,0.22,3.96,0c1.8-0.36,3.6-1.8,3.96-2.16c0.09-0.09,0.14,0.22,0,1.44c-0.14,1.25-0.21,1.87-0.36,2.52
			c-0.26,1.16-0.49,2.14-1.08,3.24c-0.41,0.75-1.11,2.05-2.52,2.88c-1.2,0.71-2.29,0.71-4.32,0.72c-2.53,0.01-4.42-0.53-5.04-0.72
			c-1.3-0.4-2.19-0.87-3.96-1.8c-1.58-0.83-3.03-1.6-4.68-2.88c-2.28-1.77-1.19-3.38-1.38-4.68
			C235.11,225.18,235.86,222.83,237.94,223.08z"/>
		<path class="st13" d="M234.7,220.2c0.38-0.45,0.29-0.66,2.52-2.16c2.91-1.95,4.74-2.94,5.4-3.24c1.81-0.82,3.28-1.46,5.04-1.8
			c2.71-0.52,4.07-0.42,5.4,0c2.41,0.75,3.67,2.88,4.32,3.96c2.09,3.5,1.44,6.84,1.44,7.56c0,0.12-0.19-0.42-0.72-1.08
			c-0.66-0.82-1.43-1.2-1.8-1.44c-1.08-0.72-2-0.77-2.88-0.72c-0.85,0.05-3.24,0.36-4.32,0.72c-1.88,0.63-3.5,1.28-5.4,2.16
			c-2.96,1.37-4.45,2.05-5.76,2.88c-2.44,1.54-3.15,2.49-3.96,2.16c-1.34-0.54-1.11-3.84-1.08-4.32
			C232.95,224.22,233.12,222.08,234.7,220.2z"/>
		<polygon class="st15" points="235.84,219.12 229,219.12 227.92,224.16 229,231 235.84,231.36 237.64,225.24 		"/>
	</g>
	<path class="st2" d="M124.84,252.77L124.84,252.77c-4.87,4.43-5.23,12.04-0.8,16.9l45.39,49.88c4.43,4.87,12.04,5.23,16.9,0.8l0,0
		c4.87-4.43,5.23-12.04,0.8-16.9l-43.51-53.87C139.2,244.71,129.71,248.34,124.84,252.77z"/>
	<path class="st2" d="M189.31,321.37c1.18-0.16,1.7-0.12,2.18,0c2.23,0.56,3.21,0.86,4.35,2.18c2.17,2.52,2.18,4.35,2.18,6.53
		c0,2.28,1.76,2.17,2.18,2.18c0.97,0.02,1.9-1.16,2.18-2.18c0.13-0.48,0.06-3.91,0-4.35c-0.36-2.65-1.26-4.46-4.35-6.53
		c-1.43-0.95-2.13-1.36-2.18-2.18c-0.06-1.05,1.18-2.27,2.18-2.18c0.67,0.06,2.95,0.78,4.35,2.18c2.18,2.18,1.38,3.13,1.78,4.77
		c0.4,1.64,1.99,2.58,3.67,2.4c1.2-0.13,1.14-4.34,1.08-5c-0.16-1.81-1.08-3.26-2.18-4.35c-2.18-2.18-6.53-4.35-6.53-4.35
		c-0.61-0.61-0.46-1.83,0-2.18c0.38-0.28,1.56-0.39,4.82,1.75c2.72,1.78,2.96,2.78,3.88,2.6c1.03-0.2,2.2-1.11,2.18-2.18
		c-0.06-2.43-6.09-5.31-8.06-6.43c-3.36-1.9-4.37-1.84-7.17-2.28c-2.03-0.32-2.17,0.03-6.53,0c-5.47-0.04-5.49-1.32-6.3-0.72
		c-2.79,2.03,0.96,8.36-2.4,13.78c-0.96,1.54-2.13,2.46-2.18,4.35c-0.03,1.47-1.7,4.35,0,4.35
		C182.79,323.54,184.15,322.07,189.31,321.37z"/>
</g>
<g id="Layer_5">
	<ellipse class="st0" cx="233.83" cy="171.08" rx="43.51" ry="80.49"/>
	<path class="st1" d="M283.86,53.61c7.34,1.06,12.76,9.3,15.23,13.05c3.92,5.96,5.2,11.49,6.53,17.4
		c2.4,10.73,2.24,19.33,2.18,21.75c-0.42,16.59-0.62,24.88-2.18,47.86c-2.12,31.43-3.18,47.15-2.18,63.09
		c0.96,15.28,2.59,21.68-2.18,28.28c-7.58,10.51-24.98,12.74-36.98,10.88c-6.95-1.08-10.42-1.62-13.05-4.35
		c-9.86-10.23,7.01-31.87,10.88-71.79c1.2-12.37,0.66-21.44,0-32.63c-2.46-41.54-12.63-53.34-4.35-71.79
		C262.84,64.03,274,52.18,283.86,53.61z"/>
	<path class="st1" d="M205.55,34.03c-5.02-0.89-9.2,2.34-17.4,8.7c-4.57,3.54-11.89,9.34-17.4,19.58
		c-3.19,5.92-5.12,12.12-6.53,21.75c-2.55,17.46-0.92,29.45,0,43.51c1.38,21.03,0.59,37.55,0,50.04
		c-0.63,13.17-2.03,30.8,2.18,52.21c0.74,3.76,2.04,9.63,6.53,15.23c7.43,9.27,21.56,15.3,28.28,10.88
		c0.08-0.05,0.17-0.11,0.25-0.17c14.12-9.24,18.69-27.75,10.6-42.55c-6.88-12.6-14.44-35.07-8.68-68.23
		c8.7-50.04-7.76-64.45-2.18-69.62c6.9-6.38,14.85-7.03,17.4-15.23C221.71,50.14,214.71,35.66,205.55,34.03z"/>
	<g>
		<rect x="220.77" y="162.38" class="st2" width="26.11" height="34.81"/>
		<polygon class="st3" points="220.77,173.26 246.88,181.96 246.88,166.73 220.77,166.73 		"/>
	</g>
	<path class="st2" d="M242.96,168.91h-18.26c-21.3,0-38.73-17.43-38.73-38.73V90.16c0-21.3,17.43-38.73,38.73-38.73h18.26
		c21.3,0,38.73,17.43,38.73,38.73v40.02C281.69,151.48,264.26,168.91,242.96,168.91z"/>
	<circle class="st2" cx="179.44" cy="125.4" r="13.05"/>
	<circle class="st2" cx="286.04" cy="125.4" r="13.05"/>
	<g>
		<ellipse class="st4" cx="208.81" cy="117.78" rx="5.44" ry="7.61"/>
		<ellipse class="st4" cx="256.67" cy="117.78" rx="5.44" ry="7.61"/>
		<path class="st5" d="M216.4,136.27c-1.05,0-1.96,0.78-2.07,1.82c-0.14,1.31-0.13,2.93,0.31,4.7c1.16,4.65,4.51,7.22,6.46,8.7
			c1.71,1.31,6.34,4.74,12.92,4.35c5.44-0.32,9.1-3.06,10.76-4.35c2-1.55,5.31-4.1,6.46-8.7c0.44-1.76,0.45-3.37,0.31-4.67
			c-0.11-1.06-1.01-1.86-2.08-1.86h-17.61H216.4z"/>
		<path class="st6" d="M217.31,136.27c0.44,0.9,0.9,1.64,1.29,2.18c3.93,5.48,10.1,6.42,10.88,6.53c1.63,0.22,2.85,0.12,4.35,0
			c1.65-0.13,5.2-0.45,8.7-2.18c3.57-1.76,5.91-4.4,7.37-6.53H217.31z"/>
		<circle class="st7" cx="202.28" cy="135.19" r="7.61"/>
		<circle class="st7" cx="265.37" cy="135.19" r="7.61"/>
		<path class="st8" d="M196.84,107.99c2.18-2.18,4.35-4.35,8.46-4.35c2.98,0,5.96,0,8.94,0v-1.91c0-1.35-1.09-2.44-2.44-2.44H205
			c-2.72,0-8.15,2.18-8.15,4.35C196.84,105.09,196.84,106.54,196.84,107.99z"/>
		<path class="st8" d="M266.46,107.99c-2.18-2.18-4.35-4.35-8.46-4.35c-2.98,0-5.96,0-8.94,0v-1.91c0-1.35,1.09-2.44,2.44-2.44h6.81
			c2.72,0,8.15,2.18,8.15,4.35C266.46,105.09,266.46,106.54,266.46,107.99z"/>
	</g>
	<path class="st1" d="M196.84,29.68c-2.46,2.46-6.53,10.01-6.53,15.23c0,8.7,0.13,10.84,2.18,17.4c0.72,2.33,3.85,10.37,8.7,15.23
		c4.35,4.35,10.56,7.45,13.05,8.7c4.35,2.18,5.19,2.46,10.88,4.35c6.53,2.18,13.75,3.61,15.23,4.35c4.35,2.18,10.88,2.18,15.23,2.18
		c6.94,0,8.7,0,15.23,0c4.35,0,17.36,1.22,23.93-6.53c5.98-7.04,3.81-17.92,2.18-26.11c-0.23-1.14-1.33-6.54-4.35-13.05
		c-2.74-5.92-5.71-9.83-6.53-10.88c-2.35-3.03-5.32-5.32-8.7-8.7c-2.18-2.18-6.26-4.99-10.88-6.53c-6.53-2.18-12.35-1.61-17.4-2.18
		c-1.63-0.18-0.82-0.02-17.4,0c-8.56,0.01-12.84,0-13.05,0c-6.53,0-7.48,0-10.88,0C203.37,23.15,199.02,27.5,196.84,29.68z"/>
	<path class="st2" d="M183.79,225.47c-1.71-5.96-3.04-14.22,0-21.75c1.64-4.06,3.79-6.03,4.35-6.53c2.16-1.9,3.6-2.01,10.88-4.35
		c7.42-2.38,7.44-2.76,13.05-4.35c3.56-1.01,5.75-1.63,8.7-2.18c10.42-1.93,19.22-0.85,23.93,0c3.11,0.56,5.24,1.18,8.7,2.18
		c7.02,2.02,12.72,4.32,17.4,6.53c7.82,3.68,11.76,5.59,13.05,8.7c1.65,3.97-0.21,7.77-2.18,13.05c-3.13,8.41-4.22,17.44-6.53,26.11
		c-7.07,26.53-0.16,33.45-6.53,39.16c-11.49,10.31-42.97-4.18-60.91-19.58C207.72,262.45,190.07,247.31,183.79,225.47z"/>
	<path class="st2" d="M125.61,272.58l-3.22-3.55c-3.65-4.03-3.34-10.31,0.69-13.96l51.18-48.61c3.9-3.71,8.32-6.85,13.16-9.2
		c8.82-4.29,11.9-3.72,14.8-0.51l3.22,3.55c3.65,4.03,10.65,12.82,6.62,16.47l-72.51,56.5
		C135.53,276.92,129.25,276.61,125.61,272.58z"/>
	<path class="st2" d="M323.02,284.21h-2.18c4.35,6.53-13.15,4.34-17.4-2.18l-41.94-60.37c-4.25-6.51-2.4-15.32,4.11-19.57l0,0
		c6.51-4.25,15.32-2.4,19.57,4.11l39.94,61.17C329.37,273.88,329.53,279.96,323.02,284.21z"/>
	<path class="st2" d="M306.89,282.16l6.51,4.32c4.08,2.7,9.62,1.58,12.33-2.49l43.22-65.12c2.7-4.08,1.58-9.62-2.49-12.33
		l-6.51-4.32c-4.08-2.7-9.62-1.58-12.33,2.49l-43.22,65.12C301.69,273.91,302.81,279.46,306.89,282.16z"/>
	<path class="st2" d="M350.9,210.06c-2.17,0-3.94-2.33-3.94-5.19v-15.56c0-2.85,1.77-5.19,3.94-5.19c2.17,0,3.94,2.33,3.94,5.19
		v15.56C354.84,207.73,353.06,210.06,350.9,210.06z"/>
	<path class="st2" d="M353.48,199.36c0.11-0.53,0.42-1.38,4.35-4.35c3.04-2.3,4.56-3.44,6.53-4.35c3.37-1.55,6.21-1.88,8.7-2.18
		c7.5-0.88,8.4-0.36,8.7,0c0.95,1.13,0.87,3.19,0,4.35c-0.92,1.23-4.2,2.07-6.53,2.18c-2.24,0.1-2.66-0.34-4.35,0
		c-1.83,0.37-3.87,3.13-5.04,4.05c-5.68,4.43-5.54,6.83-8.01,6.83C355.51,205.89,352.89,202.12,353.48,199.36z"/>
	<path class="st2" d="M368.71,199.36c1.39-0.93,2.56-1.71,4.35-2.18c3.15-0.81,4.09,0.42,8.7,0c2.55-0.23,3.56-0.73,4.35,0
		c0.99,0.91,0.86,3.01,0,4.35c-1.01,1.58-2.91,1.92-4.35,2.18c-1.94,0.35-2.51-0.08-4.35,0c-2.31,0.1-3.9,0.89-6.53,2.18
		c-3.99,1.96-4.66,4.72-6.53,4.35c-1.04-0.21-1.9-1.21-2.18-2.18C361.13,204.43,367.84,199.94,368.71,199.36z"/>
	<path class="st2" d="M370.84,207.06c1.13-0.78,4.55-0.8,6.57-1.17c1.43-0.26,1.72,0.09,4.35,0c2.97-0.1,3.67-0.59,4.35,0
		c0.98,0.85,0.87,2.99,0,4.35c-1.06,1.67-3.15,1.99-4.35,2.18c-2.03,0.31-2.56-0.29-4.35,0c-0.46,0.07-1.93,0.35-4.35,2.18
		c-4.53,3.42-4.72,6.49-6.53,6.53c-2.5,0.05-5.92-5.76-4.35-8.7C363.57,209.81,365.43,210.77,370.84,207.06z"/>
	<path class="st2" d="M375.23,210.24c0.43-1.14,0.89-0.04,0.61-2.18c-0.25-1.88-1.18-6.44-2.78-8.7c-0.37-0.52-3.49-5.89-7.22-6.3
		c-5.16-0.56-10.76,6.71-10.19,12.83c0.44,4.71,4.78,7.93,8.7,8.7C368.7,215.45,373.98,213.58,375.23,210.24z"/>
	<g>
		<path class="st2" d="M218.6,630.11h2.18c-7.78,0-4.35,1.25-9.2-2.49l-23.43-228.11c4.85-11.82,21.59-6.53,29.37-6.53h0
			c7.78,0,14.14,6.36,14.14,14.14v211.02C231.65,625.92,226.38,630.11,218.6,630.11z"/>
		<path class="st9" d="M175.09,647.51c-1.1,0.86-1.78,3.09-2.18,6.53c-0.28,2.46,0.75,5.02,2.18,6.53
			c5.39,5.71,17.81,0.16,23.93-2.18c9.2-3.5,15.68-8.09,19.58-10.88c7.05-5.05,5.11-5.12,13.05-10.88c3.38-2.44,6.53-3.49,6.53-6.53
			c0-2.18,0.97-7.87-2.18-10.88c-2.38-2.27-6.63-3.79-8.7-2.18c-2.93,2.28,2.01,8.09,0,13.05
			C222.75,641.33,186.53,638.58,175.09,647.51z"/>
		<path class="st10" d="M188.14,632.28c-0.7,0.35,1.82,0.6,4.35,2.18c2.26,1.41,3.5,3.16,4.35,4.35c3.96,5.58,1.97,9.31,4.35,10.88
			c2.58,1.71,8.97-2.49,21.75-10.88c2.85-1.87-0.28,0.1,8.7-6.53c4.73-3.49,6.34-4.58,6.53-6.53c0.33-3.41-1.82-6.3-2.18-6.53
			c-5.08-3.3-15.85-1.63-21.75,0c-5.09,1.4-8.7,4.35-13.05,6.53C193.79,629.46,192.49,630.11,188.14,632.28z"/>
		<path class="st2" d="M205.55,623.58c0.46-1.89,5.39-4.91,10.88-6.53c4.47-1.32,3.73-2.35,8.7-2.18
			c4.04,0.14,10.16,2.45,10.88,4.35c1.12,2.95-6.19,8.39-10.88,10.88c-3.39,1.8-5.48,2.09-6.53,2.18c-1.18,0.1-4.35,0-8.7-2.18
			C207.95,629.14,204.83,626.54,205.55,623.58z"/>
		<path class="st10" d="M188.14,632.28c-2.3,1.19-4.09,2.01-8.7,6.53c-5.45,5.34-5.09,5.44-6.53,8.7c-0.25,0.57-2.4,5.63,0,8.7
			c1.88,2.41,5.56,2.31,8.7,2.18c6.3-0.27,10.9-2.34,15.23-4.35c18.51-8.58,19.58-10.88,21.75-13.05c3.51-3.51-12.27-7.23-17.4-8.7
			C197.99,631.37,192.79,629.88,188.14,632.28z"/>
		<path class="st10" d="M207.72,621.41c3.45,0.52,5.31,5.47,6.53,6.53c5.49,4.75,20.34-5.11,21.75-6.53
			c2.18-2.18-8.66,17.67-21.75,17.4c-7.14-0.15-15.25-4.52-15.23-8.7c0.01-2.59-0.25,0.25,2.18-2.18
			C203.37,625.76,206.62,621.24,207.72,621.41z"/>
		<path class="st2" d="M201.15,625.76c1.48,1.64,3.7,3.5,6.5,3.52c1.14,0.01,1.92-0.29,2.17,0c0.58,0.69-2.26,4.12-6.5,5.28
			c-5.47,1.49-10.48-1.54-10.84-1.76c-1.01-0.63-1.72-1.28-2.17-1.76"/>
	</g>
	<g>
		<path class="st2" d="M306.07,625.14l-2.13,0.43c7.63-1.52,4.51,0.38,8.54-4.24l-18.41-232.74c-7.07-10.64-14.34-6.01-21.97-4.49
			l0,0c-7.63,1.52-22.39,12.14-20.87,19.77l39.7,212.1C292.45,623.59,298.45,626.66,306.07,625.14z"/>
		<path class="st9" d="M352.15,633.69c1.24,0.63,2.35,2.68,3.41,5.97c0.76,2.35,0.25,5.07-0.86,6.83
			c-4.17,6.66-17.43,3.64-23.89,2.55c-9.7-1.63-16.96-4.86-21.33-6.84c-7.9-3.57-6.01-4.03-14.93-8.11
			c-3.79-1.74-7.08-2.14-7.68-5.12c-0.43-2.13-2.49-7.53,0.01-11.09c1.89-2.69,5.76-5.01,8.11-3.84c3.32,1.66-0.39,8.33,2.55,12.8
			C304.2,636.95,339.18,627.18,352.15,633.69z"/>
		<path class="st10" d="M336.37,621.31c0.76,0.21-1.67,0.95-3.84,2.98c-1.94,1.82-2.82,3.78-3.42,5.12
			c-2.8,6.25-0.12,9.51-2.14,11.52c-2.2,2.18-9.29-0.68-23.46-6.41c-3.16-1.28,0.3,0.05-9.81-4.7c-5.32-2.5-7.11-3.25-7.68-5.12
			c-1-3.28,0.55-6.53,0.86-6.83c4.34-4.23,15.22-4.69,21.33-4.26c5.27,0.38,9.39,2.56,14.08,3.85
			C330.28,619.65,331.67,620.03,336.37,621.31z"/>
		<path class="st2" d="M317.6,616.19c-0.82-1.76-6.24-3.76-11.94-4.27c-4.64-0.42-4.11-1.57-8.96-0.43
			c-3.93,0.93-9.48,4.39-9.82,6.4c-0.52,3.11,7.72,7.02,12.8,8.54c3.68,1.1,5.78,0.98,6.83,0.86c1.17-0.13,4.27-0.85,8.11-3.84
			C316.32,622.1,318.88,618.95,317.6,616.19z"/>
		<path class="st10" d="M336.37,621.31c2.49,0.72,4.41,1.17,9.81,4.7c6.39,4.17,6.05,4.34,8.1,7.26c0.36,0.51,3.46,5.05,1.7,8.53
			c-1.38,2.73-5,3.35-8.11,3.84c-6.23,0.97-11.15-0.17-15.79-1.29c-19.83-4.79-21.33-6.84-23.89-8.54
			c-4.13-2.76,10.62-9.49,15.36-11.94C326.53,622.34,331.33,619.86,336.37,621.31z"/>
		<path class="st10" d="M315.04,614.48c-3.28,1.18-4.14,6.41-5.12,7.68c-4.45,5.73-20.94-1.03-22.61-2.14
			c-2.56-1.71,11.95,15.63,24.74,12.81c6.97-1.54,14.07-7.42,13.23-11.51c-0.52-2.53,0.3,0.2-2.56-1.71
			C320.16,617.89,316.09,614.1,315.04,614.48z"/>
		<path class="st2" d="M322.33,617.46c-1.13,1.89-2.94,4.16-5.69,4.72c-1.12,0.23-1.94,0.09-2.13,0.42
			c-0.44,0.79,3.02,3.6,7.41,3.91c5.65,0.39,9.98-3.56,10.28-3.85c0.87-0.82,1.43-1.6,1.78-2.15"/>
	</g>
	<g>
		<path class="st11" d="M253.41,188.49c1.57,0.94,14.53,10.99,14.38,12.64c-0.68,7.44-26.66,7.76-36.14,9.12
			c-6.07,0.87-32.89-0.85-32.89-7.76c0-1.9,10.58-14.3,14.21-15.56c0,0-48.05,12.86-45.34,19.62c2.93,7.33,5.35,8.85,10.15,14.77
			c3.38,4.17-5.19,14.3-4.74,25.15c5.41,24.36,27.07,97.44,12.86,129.92c-6.46,14.77,29.92-23.12,46.86-22.58
			c24.02,0.76,50.83,25.49,49.23,19.88c-7.31-25.59,3.04-93.11,12.18-115.04c2.19-5.26,2.4-12.58,2.71-18.27
			c0.36-6.75-2.71-10.83-4.06-18.27c0.27,1.49,3.27-1.62,1.91-20.56C294.63,200.04,253.41,188.49,253.41,188.49z"/>
		<g>
			<path class="st10" d="M238.18,227.65c-7.44,8.12-26.11,13.05,5.41-16.05l7.67-9.29c2.2-2.67,2.62-6.38,1.07-9.47l-3.27-6.53
				c7.44,0,12.64,0.6,16.7,1.96h0c4.6,2.09,2.25,7.82,2.71,12.86l10.15,12.86c-0.29,4.38-6.24,6.9-10.49,8.01l-14.63-3.32
				L238.18,227.65z"/>
			<path class="st10" d="M231.65,234.17c14.39,0.65-5.19-15.73-9.73-21.22l-6.62-8.02c-2.79-3.38-3.12-8.16-0.83-11.89l4.13-6.72
				c-7.44,0-14.79,1.96-18.85,3.31v0c-4.6,2.09-2.25,7.82-2.71,12.86l-8.8,15.56c0.29,4.38,6.24,6.9,10.49,8.01l13.27-6.02
				L231.65,234.17z"/>
		</g>
	</g>
	<path class="st10" d="M323.63,386.75c-1.07-5.75-3.22-11.2-7.48-21.87c-3.62-9.07-5.81-14.55-9.35-21.87
		c-5.17-10.69-8.89-18.4-14.96-26.56c-2.68-3.61-5.4-7.25-8.46-10.77c-10.09,8.03-27.54,13.34-47.39,13.34
		c-21.76,0-40.63-6.38-50.1-15.74c-4.58,5.91-10.17,15.35-17.46,31.91c-6.05,13.76-3.27,9.67-14.96,40.62
		c-8.09,21.41-10.79,26.98-7.48,34.37c3.04,6.79,10.13,10.78,24.31,18.75c12.59,7.08,25.39,14.28,44.87,17.19
		c16.28,2.43,29.31,0.68,33.65,0c13.92-2.17,25.57-6.87,31.79-9.37c14.63-5.9,14.96-7.81,24.31-9.37c4.76-0.8,10.77,0.16,16.83-3.12
		c1.69-0.92,5.61-1.94,5.61-4.69C327.37,414.87,325.41,396.34,323.63,386.75z"/>
	<g>
		<path class="st12" d="M235.39,225.08c0,0.72-0.33,1.08-1.34,3.6c-0.2,0.5-1.31,3.41-3.34,9.36c-1.59,4.69-2.39,7.03-3.01,10.08
			c-0.81,4.06-2,7.56-2,7.56c-0.13,0.02-0.27-0.03-2-1.8c-1.35-1.38-2-1.8-2-1.8s-0.67,0.36-1.67,1.08
			c-1.24,0.89-2.67,2.16-3.01,2.16c0,0,0.42-1.35,1-3.24c0.33-1.08,0.67-2.16,2-5.76c1.18-3.18,1.82-5.77,2.34-7.2
			c0.36-1.01,0.89-2.45,1.67-4.32c1.24-2.96,2.12-4.59,3.34-6.84c0.47-0.86,0.91-1.65,1.67-2.52c0.74-0.86,1.63-1.86,3.01-2.16
			c0.48-0.11,1.59-0.35,2.34,0.36C235.09,224.3,235.39,224.67,235.39,225.08z"/>
		<path class="st13" d="M227.47,231.56c0,0.72,0.36,1.08,1.44,3.6c0.21,0.5,1.42,3.41,3.6,9.36c1.72,4.69,2.58,7.03,3.24,10.08
			c0.88,4.06,2.16,7.56,2.16,7.56c0.14,0.02,0.29-0.03,2.16-1.8c1.45-1.38,2.16-1.8,2.16-1.8s0.72,0.36,1.8,1.08
			c1.34,0.89,2.88,2.16,3.24,2.16c0,0-0.45-1.35-1.08-3.24c-0.36-1.08-0.72-2.16-2.16-5.76c-1.27-3.18-1.96-5.77-2.52-7.2
			c-0.39-1.01-0.96-2.45-1.8-4.32c-1.33-2.96-2.28-4.59-3.6-6.84c-0.51-0.86-0.98-1.65-1.8-2.52c-0.8-0.86-1.76-1.86-3.24-2.16
			c-0.52-0.11-1.71-0.35-2.52,0.36C227.8,230.78,227.47,231.15,227.47,231.56z"/>
		<path class="st12" d="M212.34,221.84c0.42,0.78-0.07,1.2-0.36,3.24c-0.06,0.43-0.45,3.37,0.36,6.48c0.63,2.43,1.57,3.37,1.08,3.96
			c-0.29,0.35-0.82,0.29-3.96-0.36c-3.87-0.8-4.28-0.97-4.68-1.44c-0.48-0.56-0.56-1.82-0.72-4.32c-0.15-2.39,0-2.88,0-4.68
			c0-2.7,0.72-3.29,1.08-3.6c0.63-0.55,1.35-0.63,2.16-0.72C207.49,220.38,211.35,219.98,212.34,221.84z"/>
		<path class="st14" d="M224.95,224.72c-1.03,0.12-1.1,0.96-3.24,2.52c-1.63,1.19-3.08,1.8-3.96,2.16c-0.65,0.27-2.8,1.11-5.76,1.44
			c-1.94,0.22-2.89,0.22-3.96,0c-1.8-0.36-3.6-1.8-3.96-2.16c-0.09-0.09-0.14,0.22,0,1.44c0.14,1.25,0.21,1.87,0.36,2.52
			c0.26,1.16,0.49,2.14,1.08,3.24c0.41,0.75,1.11,2.05,2.52,2.88c1.2,0.71,2.29,0.71,4.32,0.72c2.53,0.01,4.42-0.53,5.04-0.72
			c1.3-0.4,2.19-0.87,3.96-1.8c1.58-0.83,3.39-1.6,5.04-2.88c2.28-1.77,2.69-1.58,2.88-2.88
			C229.64,228.62,227.04,224.47,224.95,224.72z"/>
		<path class="st13" d="M228.19,221.84c-0.38-0.45-0.29-0.66-2.52-2.16c-2.91-1.95-4.74-2.94-5.4-3.24
			c-1.81-0.82-3.28-1.46-5.04-1.8c-2.71-0.52-4.07-0.42-5.4,0c-2.41,0.75-3.67,2.88-4.32,3.96c-2.09,3.5-1.44,6.84-1.44,7.56
			c0,0.12,0.19-0.42,0.72-1.08c0.66-0.82,1.43-1.2,1.8-1.44c1.08-0.72,2-0.77,2.88-0.72c0.85,0.05,3.24,0.36,4.32,0.72
			c1.88,0.63,3.5,1.28,5.4,2.16c2.96,1.37,4.45,2.05,5.76,2.88c2.44,1.54,3.15,2.49,3.96,2.16c1.34-0.54,1.11-3.84,1.08-4.32
			C229.94,225.86,229.77,223.72,228.19,221.84z"/>
		<path class="st12" d="M249.38,222.2c-0.42,0.78,0.07,1.2,0.36,3.24c0.06,0.43,0.45,3.37-0.36,6.48c-0.63,2.43-1.57,3.37-1.08,3.96
			c0.29,0.35,0.82,0.29,3.96-0.36c3.87-0.8,4.28-0.97,4.68-1.44c0.48-0.56,0.56-1.82,0.72-4.32c0.15-2.39,0-2.88,0-4.68
			c0-2.7-0.72-3.29-1.08-3.6c-0.63-0.55-1.35-0.63-2.16-0.72C254.23,220.74,250.37,220.34,249.38,222.2z"/>
		<path class="st14" d="M236.77,225.08c1.03,0.12,1.1,0.96,3.24,2.52c1.63,1.19,3.08,1.8,3.96,2.16c0.65,0.27,2.8,1.11,5.76,1.44
			c1.94,0.22,2.89,0.22,3.96,0c1.8-0.36,3.6-1.8,3.96-2.16c0.09-0.09,0.14,0.22,0,1.44c-0.14,1.25-0.21,1.87-0.36,2.52
			c-0.26,1.16-0.49,2.14-1.08,3.24c-0.41,0.75-1.11,2.05-2.52,2.88c-1.2,0.71-2.29,0.71-4.32,0.72c-2.53,0.01-4.42-0.53-5.04-0.72
			c-1.3-0.4-2.19-0.87-3.96-1.8c-1.58-0.83-3.03-1.6-4.68-2.88c-2.28-1.77-1.19-3.38-1.38-4.68
			C233.94,227.18,234.68,224.83,236.77,225.08z"/>
		<path class="st13" d="M233.53,222.2c0.38-0.45,0.29-0.66,2.52-2.16c2.91-1.95,4.74-2.94,5.4-3.24c1.81-0.82,3.28-1.46,5.04-1.8
			c2.71-0.52,4.07-0.42,5.4,0c2.41,0.75,3.67,2.88,4.32,3.96c2.09,3.5,1.44,6.84,1.44,7.56c0,0.12-0.19-0.42-0.72-1.08
			c-0.66-0.82-1.43-1.2-1.8-1.44c-1.08-0.72-2-0.77-2.88-0.72c-0.85,0.05-3.24,0.36-4.32,0.72c-1.88,0.63-3.5,1.28-5.4,2.16
			c-2.96,1.37-4.45,2.05-5.76,2.88c-2.44,1.54-3.15,2.49-3.96,2.16c-1.34-0.54-1.11-3.84-1.08-4.32
			C231.78,226.22,231.95,224.08,233.53,222.2z"/>
		<polygon class="st15" points="234.67,221.12 227.83,221.12 226.75,226.16 227.83,233 234.67,233.36 236.47,227.24 		"/>
	</g>
	<path class="st2" d="M123.67,254.77L123.67,254.77c-4.87,4.43-5.23,12.04-0.8,16.9l45.39,49.88c4.43,4.87,12.04,5.23,16.9,0.8l0,0
		c4.87-4.43,5.23-12.04,0.8-16.9l-43.51-53.87C138.03,246.71,128.54,250.34,123.67,254.77z"/>
	<path class="st2" d="M188.14,323.37c1.18-0.16,1.7-0.12,2.18,0c2.23,0.56,3.21,0.86,4.35,2.18c2.17,2.52,2.18,4.35,2.18,6.53
		c0,2.28,1.76,2.17,2.18,2.18c0.97,0.02,1.9-1.16,2.18-2.18c0.13-0.48,0.06-3.91,0-4.35c-0.36-2.65-1.26-4.46-4.35-6.53
		c-1.43-0.95-2.13-1.36-2.18-2.18c-0.06-1.05,1.18-2.27,2.18-2.18c0.67,0.06,2.95,0.78,4.35,2.18c2.18,2.18,1.38,3.13,1.78,4.77
		c0.4,1.64,1.99,2.58,3.67,2.4c1.2-0.13,1.14-4.34,1.08-5c-0.16-1.81-1.08-3.26-2.18-4.35c-2.18-2.18-6.53-4.35-6.53-4.35
		c-0.61-0.61-0.46-1.83,0-2.18c0.38-0.28,1.56-0.39,4.82,1.75c2.72,1.78,2.96,2.78,3.88,2.6c1.03-0.2,2.2-1.11,2.18-2.18
		c-0.06-2.43-6.09-5.31-8.06-6.43c-3.36-1.9-4.37-1.84-7.17-2.28c-2.03-0.32-2.17,0.03-6.53,0c-5.47-0.04-5.49-1.32-6.3-0.72
		c-2.79,2.03,0.96,8.36-2.4,13.78c-0.96,1.54-2.13,2.46-2.18,4.35c-0.03,1.47-1.7,4.35,0,4.35
		C181.62,325.54,182.98,324.07,188.14,323.37z"/>
</g>
</svg>
